G04 #@! TF.GenerationSoftware,KiCad,Pcbnew,9.0.0*
G04 #@! TF.CreationDate,2026-03-11T14:35:33-04:00*
G04 #@! TF.ProjectId,4x4_compression_matrix_modular_split,3478345f-636f-46d7-9072-657373696f6e,rev?*
G04 #@! TF.SameCoordinates,Original*
G04 #@! TF.FileFunction,Copper,L2,Bot*
G04 #@! TF.FilePolarity,Positive*
%FSLAX46Y46*%
G04 Gerber Fmt 4.6, Leading zero omitted, Abs format (unit mm)*
G04 Created by KiCad (PCBNEW 9.0.0) date 2026-03-11 14:35:33*
%MOMM*%
%LPD*%
G01*
G04 APERTURE LIST*
G04 Aperture macros list*
%AMRoundRect*
0 Rectangle with rounded corners*
0 $1 Rounding radius*
0 $2 $3 $4 $5 $6 $7 $8 $9 X,Y pos of 4 corners*
0 Add a 4 corners polygon primitive as box body*
4,1,4,$2,$3,$4,$5,$6,$7,$8,$9,$2,$3,0*
0 Add four circle primitives for the rounded corners*
1,1,$1+$1,$2,$3*
1,1,$1+$1,$4,$5*
1,1,$1+$1,$6,$7*
1,1,$1+$1,$8,$9*
0 Add four rect primitives between the rounded corners*
20,1,$1+$1,$2,$3,$4,$5,0*
20,1,$1+$1,$4,$5,$6,$7,0*
20,1,$1+$1,$6,$7,$8,$9,0*
20,1,$1+$1,$8,$9,$2,$3,0*%
G04 Aperture macros list end*
G04 #@! TA.AperFunction,ComponentPad*
%ADD10C,2.100000*%
G04 #@! TD*
G04 #@! TA.AperFunction,ComponentPad*
%ADD11C,1.650000*%
G04 #@! TD*
G04 #@! TA.AperFunction,ComponentPad*
%ADD12RoundRect,0.250000X-0.350000X-0.625000X0.350000X-0.625000X0.350000X0.625000X-0.350000X0.625000X0*%
G04 #@! TD*
G04 #@! TA.AperFunction,ComponentPad*
%ADD13O,1.200000X1.750000*%
G04 #@! TD*
G04 #@! TA.AperFunction,ComponentPad*
%ADD14R,1.130000X1.130000*%
G04 #@! TD*
G04 #@! TA.AperFunction,ComponentPad*
%ADD15C,1.130000*%
G04 #@! TD*
G04 #@! TA.AperFunction,ViaPad*
%ADD16C,0.600000*%
G04 #@! TD*
G04 #@! TA.AperFunction,ViaPad*
%ADD17C,0.500000*%
G04 #@! TD*
G04 #@! TA.AperFunction,Conductor*
%ADD18C,0.800000*%
G04 #@! TD*
G04 #@! TA.AperFunction,Conductor*
%ADD19C,1.000000*%
G04 #@! TD*
G04 #@! TA.AperFunction,Conductor*
%ADD20C,0.500000*%
G04 #@! TD*
G04 #@! TA.AperFunction,Conductor*
%ADD21C,0.300000*%
G04 #@! TD*
G04 #@! TA.AperFunction,Conductor*
%ADD22C,0.200000*%
G04 #@! TD*
G04 APERTURE END LIST*
D10*
X327415000Y-182410000D03*
X327415000Y-187490000D03*
X322335000Y-187490000D03*
X322335000Y-182410000D03*
D11*
X324875000Y-184950000D03*
X203418750Y-189800000D03*
D10*
X200878750Y-187260000D03*
X200878750Y-192340000D03*
X205958750Y-192340000D03*
X205958750Y-187260000D03*
D11*
X263416250Y-142000000D03*
D10*
X260876250Y-139460000D03*
X260876250Y-144540000D03*
X265956250Y-144540000D03*
X265956250Y-139460000D03*
D11*
X298600000Y-96765000D03*
D10*
X296060000Y-94225000D03*
X296060000Y-99305000D03*
X301140000Y-99305000D03*
X301140000Y-94225000D03*
D11*
X263416250Y-189800000D03*
D10*
X260876250Y-187260000D03*
X260876250Y-192340000D03*
X265956250Y-192340000D03*
X265956250Y-187260000D03*
D11*
X263416250Y-166650000D03*
D10*
X260876250Y-164110000D03*
X260876250Y-169190000D03*
X265956250Y-169190000D03*
X265956250Y-164110000D03*
D11*
X180460000Y-148210000D03*
D10*
X177920000Y-145670000D03*
X177920000Y-150750000D03*
X183000000Y-150750000D03*
X183000000Y-145670000D03*
D11*
X313820000Y-96765000D03*
D10*
X311280000Y-94225000D03*
X311280000Y-99305000D03*
X316360000Y-99305000D03*
X316360000Y-94225000D03*
D11*
X324880000Y-120450000D03*
D10*
X322340000Y-117910000D03*
X322340000Y-122990000D03*
X327420000Y-122990000D03*
X327420000Y-117910000D03*
D11*
X263416250Y-116400000D03*
D10*
X260876250Y-113860000D03*
X260876250Y-118940000D03*
X265956250Y-118940000D03*
X265956250Y-113860000D03*
D11*
X180460000Y-178210000D03*
D10*
X177920000Y-175670000D03*
X177920000Y-180750000D03*
X183000000Y-180750000D03*
X183000000Y-175670000D03*
D11*
X203418750Y-166650000D03*
D10*
X200878750Y-164110000D03*
X200878750Y-169190000D03*
X205958750Y-169190000D03*
X205958750Y-164110000D03*
D11*
X340100000Y-120450000D03*
D10*
X337560000Y-117910000D03*
X337560000Y-122990000D03*
X342640000Y-122990000D03*
X342640000Y-117910000D03*
D11*
X146995000Y-155710000D03*
D10*
X144455000Y-153170000D03*
X144455000Y-158250000D03*
X149535000Y-158250000D03*
X149535000Y-153170000D03*
D11*
X298280000Y-163210000D03*
D10*
X295740000Y-160670000D03*
X295740000Y-165750000D03*
X300820000Y-165750000D03*
X300820000Y-160670000D03*
D11*
X313520000Y-163210000D03*
D10*
X310980000Y-160670000D03*
X310980000Y-165750000D03*
X316060000Y-165750000D03*
X316060000Y-160670000D03*
D11*
X180460000Y-133210000D03*
D10*
X177920000Y-130670000D03*
X177920000Y-135750000D03*
X183000000Y-135750000D03*
X183000000Y-130670000D03*
D11*
X180460000Y-163210000D03*
D10*
X177920000Y-160670000D03*
X177920000Y-165750000D03*
X183000000Y-165750000D03*
X183000000Y-160670000D03*
D11*
X203418750Y-142000000D03*
D10*
X200878750Y-139460000D03*
X200878750Y-144540000D03*
X205958750Y-144540000D03*
X205958750Y-139460000D03*
D12*
X188018750Y-222300000D03*
D13*
X190018750Y-222300000D03*
X192018750Y-222300000D03*
X194018750Y-222300000D03*
X196018750Y-222300000D03*
X198018750Y-222300000D03*
D12*
X286100000Y-222150000D03*
D13*
X288100000Y-222150000D03*
X290100000Y-222150000D03*
X292100000Y-222150000D03*
X294100000Y-222150000D03*
X296100000Y-222150000D03*
D11*
X340125000Y-184950000D03*
D10*
X337585000Y-182410000D03*
X337585000Y-187490000D03*
X342665000Y-187490000D03*
X342665000Y-182410000D03*
D11*
X203418750Y-116400000D03*
D10*
X200878750Y-113860000D03*
X200878750Y-118940000D03*
X205958750Y-118940000D03*
X205958750Y-113860000D03*
D14*
X295030000Y-202868690D03*
D15*
X295030000Y-205408690D03*
X295030000Y-207948690D03*
X295030000Y-210488690D03*
X302970000Y-210488690D03*
X302970000Y-207948690D03*
X302970000Y-205408690D03*
X302970000Y-202868690D03*
D12*
X255668750Y-95750000D03*
D13*
X257668750Y-95750000D03*
X259668750Y-95750000D03*
X261668750Y-95750000D03*
X263668750Y-95750000D03*
X265668750Y-95750000D03*
X267668750Y-95750000D03*
X269668750Y-95750000D03*
D14*
X295030000Y-136240000D03*
D15*
X295030000Y-138780000D03*
X295030000Y-141320000D03*
X295030000Y-143860000D03*
X302970000Y-143860000D03*
X302970000Y-141320000D03*
X302970000Y-138780000D03*
X302970000Y-136240000D03*
D12*
X255618750Y-222300000D03*
D13*
X257618750Y-222300000D03*
X259618750Y-222300000D03*
X261618750Y-222300000D03*
X263618750Y-222300000D03*
X265618750Y-222300000D03*
X267618750Y-222300000D03*
X269618750Y-222300000D03*
D16*
X239741250Y-143200000D03*
X159675000Y-160720000D03*
X239743750Y-191000000D03*
X239841250Y-146300000D03*
X332570000Y-196950000D03*
X163075000Y-163320000D03*
X212918750Y-152100000D03*
X239878750Y-120700000D03*
X233978750Y-138200000D03*
X226181250Y-192400000D03*
X188018750Y-215900000D03*
X225878750Y-144700000D03*
X225678750Y-118800000D03*
X235278750Y-106950000D03*
X235300000Y-181450000D03*
X235278750Y-133050000D03*
X280100000Y-175250000D03*
X235187500Y-157850000D03*
X237778750Y-160950000D03*
D17*
X261600000Y-212500000D03*
X261600000Y-216450000D03*
D16*
X280100000Y-152300000D03*
X276550000Y-136900000D03*
X261700000Y-106950000D03*
D17*
X265618750Y-216450000D03*
X265618750Y-208850000D03*
D16*
X237778750Y-136150000D03*
X225818750Y-170500000D03*
X280100000Y-135750000D03*
X280100000Y-128700000D03*
X261700000Y-101150000D03*
X280100000Y-182350000D03*
X280100000Y-159850000D03*
X259700000Y-105450000D03*
X227500000Y-153450000D03*
X276550000Y-175350000D03*
X237787500Y-184300000D03*
X276550000Y-184300000D03*
X265700000Y-110050000D03*
X232678750Y-105450000D03*
X259700000Y-101150000D03*
X228600000Y-176450000D03*
X265700000Y-101150000D03*
X276550000Y-161700000D03*
X276550000Y-152150000D03*
X227700000Y-102300000D03*
X276550000Y-127100000D03*
X237800000Y-110050000D03*
X227600000Y-128350000D03*
X281600000Y-176150000D03*
X281600000Y-130300000D03*
X232587500Y-156350000D03*
D17*
X259618750Y-216450000D03*
D16*
X281600000Y-181950000D03*
D17*
X259618750Y-214300000D03*
D16*
X236400000Y-159450000D03*
X231400000Y-103850000D03*
X281600000Y-153450000D03*
X282900000Y-135350000D03*
X283100000Y-177650000D03*
X232678750Y-131550000D03*
D17*
X263618750Y-216450000D03*
D16*
X231597515Y-178058750D03*
X281600000Y-159350000D03*
X257700000Y-103850000D03*
X257700000Y-101150000D03*
X263700000Y-101150000D03*
X231576265Y-129947515D03*
X282900000Y-131200000D03*
X281600000Y-135650000D03*
X282900000Y-157950000D03*
X282900000Y-154700000D03*
X232700000Y-179850000D03*
X283100000Y-180850000D03*
X278450000Y-175250000D03*
X231576265Y-154750000D03*
X236378750Y-134550000D03*
X278450000Y-152250000D03*
X236387500Y-182950000D03*
X236400000Y-108450000D03*
X278450000Y-136500000D03*
X263700000Y-108450000D03*
D17*
X263618750Y-210600000D03*
D16*
X278450000Y-160500000D03*
X278450000Y-127200000D03*
X278450000Y-184050000D03*
X306200000Y-191050000D03*
X332570000Y-212650000D03*
X306400000Y-124450000D03*
X159475000Y-145720000D03*
X239778750Y-117600000D03*
X233887500Y-162850000D03*
X212518750Y-199700000D03*
X306100000Y-173450000D03*
X233987500Y-186000000D03*
X159775000Y-165520000D03*
X239843750Y-194100000D03*
X163175000Y-158120000D03*
X239643750Y-167850000D03*
X233978750Y-112600000D03*
X212518750Y-176700000D03*
X306600000Y-106950000D03*
X332533333Y-130650000D03*
X163175000Y-147920000D03*
X213368750Y-126450000D03*
X239743750Y-170950000D03*
X332533333Y-148250000D03*
D18*
X290100000Y-158150000D02*
X302970000Y-145280000D01*
X290100000Y-222150000D02*
X290100000Y-158150000D01*
X302970000Y-145280000D02*
X302970000Y-143860000D01*
X302970000Y-211930000D02*
X302970000Y-210488690D01*
X294100000Y-220800000D02*
X302970000Y-211930000D01*
X294100000Y-222150000D02*
X294100000Y-220800000D01*
X288875000Y-228225000D02*
X289200000Y-228550000D01*
D19*
X310655000Y-222095000D02*
X310655000Y-221400000D01*
X288875000Y-228225000D02*
X289300000Y-228650000D01*
X304100000Y-228650000D02*
X310655000Y-222095000D01*
X289300000Y-228650000D02*
X304100000Y-228650000D01*
D18*
X310655000Y-221905000D02*
X310655000Y-221400000D01*
D20*
X199618750Y-205200000D02*
X196018750Y-208800000D01*
X196018750Y-208800000D02*
X196018750Y-222300000D01*
X220218750Y-205200000D02*
X199618750Y-205200000D01*
X226181250Y-192400000D02*
X226181250Y-199237500D01*
X226181250Y-199237500D02*
X220218750Y-205200000D01*
X194018750Y-185600000D02*
X194018750Y-222300000D01*
X197518750Y-182100000D02*
X194018750Y-185600000D01*
X220118750Y-182100000D02*
X197518750Y-182100000D01*
X225818750Y-176400000D02*
X220118750Y-182100000D01*
X225818750Y-170500000D02*
X225818750Y-176400000D01*
X192018750Y-161000000D02*
X192018750Y-222300000D01*
X195718750Y-157300000D02*
X192018750Y-161000000D01*
X225878750Y-152540000D02*
X221118750Y-157300000D01*
X221118750Y-157300000D02*
X195718750Y-157300000D01*
X225878750Y-144700000D02*
X225878750Y-152540000D01*
X276100000Y-209750000D02*
X278450000Y-207400000D01*
X264100000Y-209750000D02*
X276100000Y-209750000D01*
X263618750Y-210231250D02*
X264100000Y-209750000D01*
X263618750Y-210600000D02*
X263618750Y-210231250D01*
X278450000Y-207400000D02*
X278450000Y-184050000D01*
X275900000Y-211550000D02*
X280100000Y-207350000D01*
X261600000Y-212150000D02*
X262200000Y-211550000D01*
X262200000Y-211550000D02*
X275900000Y-211550000D01*
X261600000Y-212500000D02*
X261600000Y-212150000D01*
X280100000Y-207350000D02*
X280100000Y-182350000D01*
X275600000Y-213550000D02*
X281600000Y-207550000D01*
X259618750Y-214031250D02*
X260100000Y-213550000D01*
X259618750Y-214300000D02*
X259618750Y-214031250D01*
X260100000Y-213550000D02*
X275600000Y-213550000D01*
X281600000Y-207550000D02*
X281600000Y-181950000D01*
X276550000Y-175350000D02*
X276550000Y-161700000D01*
X282900000Y-135350000D02*
X282900000Y-154700000D01*
X280100000Y-152300000D02*
X280100000Y-135750000D01*
X282900000Y-131200000D02*
X282900000Y-114350000D01*
X282900000Y-114350000D02*
X272400000Y-103850000D01*
X272400000Y-103850000D02*
X257700000Y-103850000D01*
X281600000Y-115250000D02*
X271800000Y-105450000D01*
X281600000Y-130300000D02*
X281600000Y-115250000D01*
X271800000Y-105450000D02*
X259700000Y-105450000D01*
X270900000Y-106950000D02*
X235278750Y-106950000D01*
X280100000Y-128700000D02*
X280100000Y-116150000D01*
X280100000Y-116150000D02*
X270900000Y-106950000D01*
X278450000Y-116800000D02*
X270100000Y-108450000D01*
X278450000Y-127200000D02*
X278450000Y-116800000D01*
X270100000Y-108450000D02*
X263700000Y-108450000D01*
X276550000Y-117400000D02*
X269200000Y-110050000D01*
X276550000Y-127100000D02*
X276550000Y-117400000D01*
X269200000Y-110050000D02*
X265700000Y-110050000D01*
X283100000Y-207550000D02*
X281950000Y-208700000D01*
X283100000Y-177650000D02*
X283100000Y-158150000D01*
X283100000Y-180850000D02*
X283100000Y-207550000D01*
X257668750Y-101118750D02*
X257700000Y-101150000D01*
X231597515Y-178058750D02*
X280308750Y-178058750D01*
X257668750Y-95750000D02*
X257668750Y-101118750D01*
X282900000Y-135350000D02*
X277497515Y-129947515D01*
D21*
X231588765Y-178050000D02*
X231597515Y-178058750D01*
D20*
X257700000Y-103850000D02*
X231597515Y-103850000D01*
X258801000Y-215349000D02*
X257618750Y-216531250D01*
X257618750Y-216531250D02*
X257618750Y-222300000D01*
X282900000Y-157950000D02*
X282750000Y-157800000D01*
X257700000Y-101150000D02*
X257700000Y-100950000D01*
X280308750Y-178058750D02*
X283100000Y-180850000D01*
X282750000Y-157800000D02*
X279700000Y-154750000D01*
X275301000Y-215349000D02*
X258801000Y-215349000D01*
X277497515Y-129947515D02*
X231576265Y-129947515D01*
X281950000Y-208700000D02*
X275301000Y-215349000D01*
X279700000Y-154750000D02*
X231576265Y-154750000D01*
X278450000Y-152250000D02*
X278450000Y-136500000D01*
X263668750Y-95750000D02*
X263668750Y-101118750D01*
X278450000Y-136500000D02*
X276500000Y-134550000D01*
X263618750Y-216450000D02*
X263618750Y-222100000D01*
X277400000Y-159450000D02*
X236400000Y-159450000D01*
X278450000Y-175250000D02*
X278450000Y-160500000D01*
X263700000Y-108450000D02*
X263800000Y-108550000D01*
X278450000Y-184050000D02*
X277350000Y-182950000D01*
X276500000Y-134550000D02*
X236378750Y-134550000D01*
X277350000Y-182950000D02*
X236387500Y-182950000D01*
X278450000Y-160500000D02*
X277400000Y-159450000D01*
X263668750Y-101118750D02*
X263700000Y-101150000D01*
X263600000Y-108450000D02*
X236578750Y-108450000D01*
D18*
X288100000Y-148250000D02*
X295030000Y-141320000D01*
X292100000Y-210878690D02*
X295030000Y-207948690D01*
X288100000Y-222150000D02*
X288100000Y-148250000D01*
X292100000Y-222150000D02*
X292100000Y-219750000D01*
X292100000Y-220150000D02*
X292100000Y-210878690D01*
D19*
X289200000Y-228550000D02*
X286100000Y-225450000D01*
X319955000Y-135735000D02*
X319955000Y-190135000D01*
X302970000Y-202868690D02*
X305188690Y-202868690D01*
X319955000Y-190135000D02*
X314055000Y-196035000D01*
X314055000Y-196035000D02*
X307055000Y-196035000D01*
X302970000Y-136240000D02*
X302970000Y-134020000D01*
X314255000Y-130035000D02*
X319955000Y-135735000D01*
X310655000Y-208335000D02*
X310655000Y-221905000D01*
X306955000Y-130035000D02*
X314255000Y-130035000D01*
X302970000Y-134020000D02*
X306955000Y-130035000D01*
X286100000Y-225450000D02*
X286100000Y-222150000D01*
X307055000Y-196035000D02*
X302970000Y-200120000D01*
X305188690Y-202868690D02*
X310655000Y-208335000D01*
X302970000Y-200120000D02*
X302970000Y-202868690D01*
X188018750Y-222300000D02*
X188018750Y-215900000D01*
D20*
X225678750Y-126640000D02*
X225678750Y-118800000D01*
X190018750Y-222300000D02*
X190018750Y-136300000D01*
X220318750Y-132000000D02*
X225678750Y-126640000D01*
X194318750Y-132000000D02*
X220318750Y-132000000D01*
X190018750Y-136300000D02*
X194318750Y-132000000D01*
X280100000Y-175250000D02*
X280100000Y-159850000D01*
X279200000Y-181450000D02*
X235300000Y-181450000D01*
X280100000Y-182350000D02*
X279200000Y-181450000D01*
X278100000Y-157850000D02*
X235187500Y-157850000D01*
X280100000Y-159850000D02*
X278100000Y-157850000D01*
X261668750Y-101118750D02*
X261700000Y-101150000D01*
X261668750Y-95750000D02*
X261668750Y-101118750D01*
X280100000Y-135750000D02*
X277400000Y-133050000D01*
X277400000Y-133050000D02*
X235278750Y-133050000D01*
X261700000Y-101150000D02*
X261700000Y-101050000D01*
X261600000Y-216450000D02*
X261600000Y-222281250D01*
D21*
X261600000Y-222281250D02*
X261618750Y-222300000D01*
D20*
X259700000Y-105450000D02*
X232678750Y-105450000D01*
X281650000Y-159400000D02*
X278600000Y-156350000D01*
X283100000Y-158150000D02*
X282750000Y-157800000D01*
X278600000Y-156350000D02*
X232587500Y-156350000D01*
X232700000Y-179850000D02*
X279500000Y-179850000D01*
X259668750Y-101118750D02*
X259700000Y-101150000D01*
X276550000Y-136900000D02*
X275800000Y-136150000D01*
X265618750Y-208850000D02*
X265618750Y-208531250D01*
X265668750Y-101118750D02*
X265700000Y-101150000D01*
X275900000Y-208250000D02*
X276550000Y-207600000D01*
X265900000Y-208250000D02*
X275900000Y-208250000D01*
X276550000Y-207600000D02*
X276550000Y-184300000D01*
X265700000Y-110050000D02*
X237800000Y-110050000D01*
X265618750Y-208531250D02*
X265900000Y-208250000D01*
X284800000Y-158150000D02*
X280100000Y-153450000D01*
X276550000Y-152150000D02*
X276550000Y-136900000D01*
X277800000Y-128350000D02*
X227600000Y-128350000D01*
X265668750Y-95750000D02*
X265668750Y-101118750D01*
X275800000Y-136150000D02*
X237778750Y-136150000D01*
X275800000Y-160950000D02*
X237778750Y-160950000D01*
X265618750Y-216450000D02*
X265618750Y-222100000D01*
D21*
X237837500Y-184350000D02*
X237787500Y-184300000D01*
D20*
X276500000Y-184350000D02*
X237837500Y-184350000D01*
X276550000Y-161700000D02*
X275800000Y-160950000D01*
X276550000Y-184300000D02*
X276500000Y-184350000D01*
X280400000Y-176450000D02*
X228600000Y-176450000D01*
X273150000Y-102300000D02*
X268300000Y-102300000D01*
X259668750Y-95750000D02*
X259668750Y-101118750D01*
X281600000Y-135650000D02*
X281600000Y-153450000D01*
X284800000Y-135350000D02*
X277800000Y-128350000D01*
X267618750Y-222100000D02*
X267618750Y-217931250D01*
X268300000Y-102300000D02*
X267668750Y-102300000D01*
X279500000Y-179850000D02*
X281600000Y-181950000D01*
D22*
X227702500Y-102302500D02*
X227700000Y-102300000D01*
D20*
X284800000Y-139150000D02*
X284800000Y-135350000D01*
X281600000Y-176150000D02*
X281600000Y-159450000D01*
X267618750Y-217931250D02*
X268700000Y-216850000D01*
X259618750Y-216450000D02*
X259618750Y-222100000D01*
X284800000Y-158150000D02*
X284800000Y-139150000D01*
X267668750Y-102300000D02*
X267668750Y-95750000D01*
X268300000Y-102300000D02*
X227700000Y-102300000D01*
X284800000Y-139150000D02*
X284800000Y-113950000D01*
X284800000Y-113950000D02*
X273150000Y-102300000D01*
X281600000Y-159450000D02*
X281650000Y-159400000D01*
X284800000Y-207750000D02*
X284800000Y-180850000D01*
X281600000Y-135650000D02*
X277500000Y-131550000D01*
X268700000Y-216850000D02*
X275700000Y-216850000D01*
X280100000Y-153450000D02*
X227500000Y-153450000D01*
X275700000Y-216850000D02*
X284800000Y-207750000D01*
X281600000Y-159350000D02*
X281650000Y-159400000D01*
X277500000Y-131550000D02*
X232678750Y-131550000D01*
X259700000Y-101150000D02*
X259700000Y-101050000D01*
X284800000Y-180850000D02*
X280400000Y-176450000D01*
X284800000Y-180850000D02*
X284800000Y-158150000D01*
G04 #@! TA.AperFunction,Conductor*
G36*
X346642539Y-88020185D02*
G01*
X346688294Y-88072989D01*
X346699500Y-88124500D01*
X346699500Y-230575500D01*
X346679815Y-230642539D01*
X346627011Y-230688294D01*
X346575500Y-230699500D01*
X131824500Y-230699500D01*
X131757461Y-230679815D01*
X131711706Y-230627011D01*
X131700500Y-230575500D01*
X131700500Y-226078711D01*
X134349500Y-226078711D01*
X134349500Y-226321288D01*
X134381161Y-226561785D01*
X134443947Y-226796104D01*
X134536773Y-227020205D01*
X134536776Y-227020212D01*
X134658064Y-227230289D01*
X134658066Y-227230292D01*
X134658067Y-227230293D01*
X134805733Y-227422736D01*
X134805739Y-227422743D01*
X134977256Y-227594260D01*
X134977262Y-227594265D01*
X135169711Y-227741936D01*
X135379788Y-227863224D01*
X135603900Y-227956054D01*
X135838211Y-228018838D01*
X136018586Y-228042584D01*
X136078711Y-228050500D01*
X136078712Y-228050500D01*
X136321289Y-228050500D01*
X136369388Y-228044167D01*
X136561789Y-228018838D01*
X136796100Y-227956054D01*
X137020212Y-227863224D01*
X137230289Y-227741936D01*
X137422738Y-227594265D01*
X137594265Y-227422738D01*
X137741936Y-227230289D01*
X137863224Y-227020212D01*
X137956054Y-226796100D01*
X138018838Y-226561789D01*
X138050500Y-226321288D01*
X138050500Y-226078712D01*
X138050500Y-226078711D01*
X237349500Y-226078711D01*
X237349500Y-226321288D01*
X237381161Y-226561785D01*
X237443947Y-226796104D01*
X237536773Y-227020205D01*
X237536776Y-227020212D01*
X237658064Y-227230289D01*
X237658066Y-227230292D01*
X237658067Y-227230293D01*
X237805733Y-227422736D01*
X237805739Y-227422743D01*
X237977256Y-227594260D01*
X237977262Y-227594265D01*
X238169711Y-227741936D01*
X238379788Y-227863224D01*
X238603900Y-227956054D01*
X238838211Y-228018838D01*
X239018586Y-228042584D01*
X239078711Y-228050500D01*
X239078712Y-228050500D01*
X239321289Y-228050500D01*
X239369388Y-228044167D01*
X239561789Y-228018838D01*
X239796100Y-227956054D01*
X240020212Y-227863224D01*
X240230289Y-227741936D01*
X240422738Y-227594265D01*
X240594265Y-227422738D01*
X240741936Y-227230289D01*
X240863224Y-227020212D01*
X240956054Y-226796100D01*
X241018838Y-226561789D01*
X241050500Y-226321288D01*
X241050500Y-226078712D01*
X241018838Y-225838211D01*
X240956054Y-225603900D01*
X240863224Y-225379788D01*
X240741936Y-225169711D01*
X240594265Y-224977262D01*
X240594260Y-224977256D01*
X240422743Y-224805739D01*
X240422736Y-224805733D01*
X240230293Y-224658067D01*
X240230292Y-224658066D01*
X240230289Y-224658064D01*
X240020212Y-224536776D01*
X240020205Y-224536773D01*
X239796104Y-224443947D01*
X239561785Y-224381161D01*
X239321289Y-224349500D01*
X239321288Y-224349500D01*
X239078712Y-224349500D01*
X239078711Y-224349500D01*
X238838214Y-224381161D01*
X238603895Y-224443947D01*
X238379794Y-224536773D01*
X238379785Y-224536777D01*
X238169706Y-224658067D01*
X237977263Y-224805733D01*
X237977256Y-224805739D01*
X237805739Y-224977256D01*
X237805733Y-224977263D01*
X237658067Y-225169706D01*
X237536777Y-225379785D01*
X237536773Y-225379794D01*
X237443947Y-225603895D01*
X237381161Y-225838214D01*
X237349500Y-226078711D01*
X138050500Y-226078711D01*
X138018838Y-225838211D01*
X137956054Y-225603900D01*
X137863224Y-225379788D01*
X137741936Y-225169711D01*
X137594265Y-224977262D01*
X137594260Y-224977256D01*
X137422743Y-224805739D01*
X137422736Y-224805733D01*
X137230293Y-224658067D01*
X137230292Y-224658066D01*
X137230289Y-224658064D01*
X137020212Y-224536776D01*
X137020205Y-224536773D01*
X136796104Y-224443947D01*
X136561785Y-224381161D01*
X136321289Y-224349500D01*
X136321288Y-224349500D01*
X136078712Y-224349500D01*
X136078711Y-224349500D01*
X135838214Y-224381161D01*
X135603895Y-224443947D01*
X135379794Y-224536773D01*
X135379785Y-224536777D01*
X135169706Y-224658067D01*
X134977263Y-224805733D01*
X134977256Y-224805739D01*
X134805739Y-224977256D01*
X134805733Y-224977263D01*
X134658067Y-225169706D01*
X134536777Y-225379785D01*
X134536773Y-225379794D01*
X134443947Y-225603895D01*
X134381161Y-225838214D01*
X134349500Y-226078711D01*
X131700500Y-226078711D01*
X131700500Y-221624983D01*
X186918250Y-221624983D01*
X186918250Y-222975001D01*
X186918251Y-222975018D01*
X186928750Y-223077796D01*
X186928751Y-223077799D01*
X186983935Y-223244331D01*
X186983937Y-223244336D01*
X187006677Y-223281204D01*
X187076038Y-223393656D01*
X187200094Y-223517712D01*
X187349416Y-223609814D01*
X187515953Y-223664999D01*
X187618741Y-223675500D01*
X188418758Y-223675499D01*
X188418766Y-223675498D01*
X188418769Y-223675498D01*
X188475052Y-223669748D01*
X188521547Y-223664999D01*
X188688084Y-223609814D01*
X188837406Y-223517712D01*
X188961462Y-223393656D01*
X189001060Y-223329456D01*
X189053008Y-223282732D01*
X189121970Y-223271509D01*
X189186053Y-223299352D01*
X189194280Y-223306872D01*
X189301822Y-223414414D01*
X189441962Y-223516232D01*
X189596305Y-223594873D01*
X189761049Y-223648402D01*
X189932139Y-223675500D01*
X189932140Y-223675500D01*
X190105360Y-223675500D01*
X190105361Y-223675500D01*
X190276451Y-223648402D01*
X190441195Y-223594873D01*
X190595538Y-223516232D01*
X190735678Y-223414414D01*
X190858164Y-223291928D01*
X190918432Y-223208975D01*
X190973762Y-223166311D01*
X191043376Y-223160332D01*
X191105171Y-223192938D01*
X191119065Y-223208973D01*
X191179336Y-223291928D01*
X191301822Y-223414414D01*
X191441962Y-223516232D01*
X191596305Y-223594873D01*
X191761049Y-223648402D01*
X191932139Y-223675500D01*
X191932140Y-223675500D01*
X192105360Y-223675500D01*
X192105361Y-223675500D01*
X192276451Y-223648402D01*
X192441195Y-223594873D01*
X192595538Y-223516232D01*
X192735678Y-223414414D01*
X192858164Y-223291928D01*
X192918432Y-223208975D01*
X192973762Y-223166311D01*
X193043376Y-223160332D01*
X193105171Y-223192938D01*
X193119065Y-223208973D01*
X193179336Y-223291928D01*
X193301822Y-223414414D01*
X193441962Y-223516232D01*
X193596305Y-223594873D01*
X193761049Y-223648402D01*
X193932139Y-223675500D01*
X193932140Y-223675500D01*
X194105360Y-223675500D01*
X194105361Y-223675500D01*
X194276451Y-223648402D01*
X194441195Y-223594873D01*
X194595538Y-223516232D01*
X194735678Y-223414414D01*
X194858164Y-223291928D01*
X194918432Y-223208975D01*
X194973762Y-223166311D01*
X195043376Y-223160332D01*
X195105171Y-223192938D01*
X195119065Y-223208973D01*
X195179336Y-223291928D01*
X195301822Y-223414414D01*
X195441962Y-223516232D01*
X195596305Y-223594873D01*
X195761049Y-223648402D01*
X195932139Y-223675500D01*
X195932140Y-223675500D01*
X196105360Y-223675500D01*
X196105361Y-223675500D01*
X196276451Y-223648402D01*
X196441195Y-223594873D01*
X196595538Y-223516232D01*
X196735678Y-223414414D01*
X196858164Y-223291928D01*
X196959982Y-223151788D01*
X197038623Y-222997445D01*
X197092152Y-222832701D01*
X197119250Y-222661611D01*
X197119250Y-221938389D01*
X197092152Y-221767299D01*
X197038623Y-221602555D01*
X196959982Y-221448212D01*
X196858164Y-221308072D01*
X196805569Y-221255477D01*
X196772084Y-221194154D01*
X196769250Y-221167796D01*
X196769250Y-209162230D01*
X196788935Y-209095191D01*
X196805569Y-209074549D01*
X199893299Y-205986819D01*
X199954622Y-205953334D01*
X199980980Y-205950500D01*
X220292670Y-205950500D01*
X220390212Y-205931096D01*
X220437663Y-205921658D01*
X220574245Y-205865084D01*
X220643727Y-205818658D01*
X220697166Y-205782952D01*
X226764201Y-199715916D01*
X226846334Y-199592995D01*
X226902908Y-199456413D01*
X226912346Y-199408962D01*
X226931750Y-199311420D01*
X226931750Y-192704604D01*
X226941189Y-192657151D01*
X226950987Y-192633497D01*
X226981750Y-192478842D01*
X226981750Y-192321158D01*
X226981750Y-192321155D01*
X226981749Y-192321153D01*
X226950988Y-192166510D01*
X226950987Y-192166503D01*
X226950985Y-192166498D01*
X226890647Y-192020827D01*
X226890640Y-192020814D01*
X226803039Y-191889711D01*
X226803036Y-191889707D01*
X226691542Y-191778213D01*
X226691538Y-191778210D01*
X226560435Y-191690609D01*
X226560422Y-191690602D01*
X226414751Y-191630264D01*
X226414739Y-191630261D01*
X226260095Y-191599500D01*
X226260092Y-191599500D01*
X226102408Y-191599500D01*
X226102405Y-191599500D01*
X225947760Y-191630261D01*
X225947748Y-191630264D01*
X225802077Y-191690602D01*
X225802064Y-191690609D01*
X225670961Y-191778210D01*
X225670957Y-191778213D01*
X225559463Y-191889707D01*
X225559460Y-191889711D01*
X225471859Y-192020814D01*
X225471852Y-192020827D01*
X225411514Y-192166498D01*
X225411511Y-192166510D01*
X225380750Y-192321153D01*
X225380750Y-192478846D01*
X225411511Y-192633489D01*
X225411513Y-192633497D01*
X225421311Y-192657151D01*
X225430750Y-192704604D01*
X225430750Y-198875270D01*
X225411065Y-198942309D01*
X225394431Y-198962951D01*
X219944201Y-204413181D01*
X219882878Y-204446666D01*
X219856520Y-204449500D01*
X199544830Y-204449500D01*
X199399842Y-204478340D01*
X199399836Y-204478342D01*
X199263258Y-204534914D01*
X199263246Y-204534921D01*
X199214019Y-204567813D01*
X199140338Y-204617044D01*
X199140330Y-204617050D01*
X195435799Y-208321582D01*
X195411026Y-208358659D01*
X195411025Y-208358660D01*
X195353669Y-208444498D01*
X195353662Y-208444511D01*
X195297093Y-208581082D01*
X195297090Y-208581092D01*
X195268250Y-208726079D01*
X195268250Y-221167796D01*
X195261115Y-221192091D01*
X195257974Y-221217222D01*
X195250522Y-221228166D01*
X195248565Y-221234835D01*
X195239442Y-221247259D01*
X195235870Y-221251537D01*
X195179336Y-221308072D01*
X195116625Y-221394385D01*
X195113942Y-221397600D01*
X195088232Y-221414799D01*
X195063737Y-221433689D01*
X195059447Y-221434057D01*
X195055870Y-221436451D01*
X195024944Y-221437020D01*
X194994124Y-221439667D01*
X194990316Y-221437657D01*
X194986012Y-221437737D01*
X194959692Y-221421499D01*
X194932329Y-221407061D01*
X194927780Y-221401811D01*
X194926548Y-221401051D01*
X194925838Y-221399569D01*
X194918433Y-221391023D01*
X194858168Y-221308078D01*
X194858164Y-221308072D01*
X194805569Y-221255477D01*
X194772084Y-221194154D01*
X194769250Y-221167796D01*
X194769250Y-189695675D01*
X202093250Y-189695675D01*
X202093250Y-189904324D01*
X202125887Y-190110389D01*
X202190362Y-190308820D01*
X202250491Y-190426829D01*
X202285080Y-190494714D01*
X202407715Y-190663505D01*
X202555245Y-190811035D01*
X202724036Y-190933670D01*
X202811866Y-190978421D01*
X202909929Y-191028387D01*
X202909931Y-191028387D01*
X202909934Y-191028389D01*
X203016295Y-191062948D01*
X203108360Y-191092862D01*
X203314426Y-191125500D01*
X203314431Y-191125500D01*
X203523074Y-191125500D01*
X203729139Y-191092862D01*
X203927566Y-191028389D01*
X204113464Y-190933670D01*
X204282255Y-190811035D01*
X204429785Y-190663505D01*
X204552420Y-190494714D01*
X204647139Y-190308816D01*
X204711612Y-190110389D01*
X204744250Y-189904324D01*
X204744250Y-189695675D01*
X262090750Y-189695675D01*
X262090750Y-189904324D01*
X262123387Y-190110389D01*
X262187862Y-190308820D01*
X262247991Y-190426829D01*
X262282580Y-190494714D01*
X262405215Y-190663505D01*
X262552745Y-190811035D01*
X262721536Y-190933670D01*
X262809366Y-190978421D01*
X262907429Y-191028387D01*
X262907431Y-191028387D01*
X262907434Y-191028389D01*
X263013795Y-191062948D01*
X263105860Y-191092862D01*
X263311926Y-191125500D01*
X263311931Y-191125500D01*
X263520574Y-191125500D01*
X263726639Y-191092862D01*
X263925066Y-191028389D01*
X264110964Y-190933670D01*
X264279755Y-190811035D01*
X264427285Y-190663505D01*
X264549920Y-190494714D01*
X264644639Y-190308816D01*
X264709112Y-190110389D01*
X264741750Y-189904324D01*
X264741750Y-189695675D01*
X264709112Y-189489610D01*
X264644637Y-189291179D01*
X264549919Y-189105285D01*
X264427285Y-188936495D01*
X264279755Y-188788965D01*
X264110964Y-188666330D01*
X263925070Y-188571612D01*
X263726639Y-188507137D01*
X263520574Y-188474500D01*
X263520569Y-188474500D01*
X263311931Y-188474500D01*
X263311926Y-188474500D01*
X263105860Y-188507137D01*
X262907429Y-188571612D01*
X262721535Y-188666330D01*
X262552743Y-188788966D01*
X262405216Y-188936493D01*
X262282580Y-189105285D01*
X262187862Y-189291179D01*
X262123387Y-189489610D01*
X262090750Y-189695675D01*
X204744250Y-189695675D01*
X204711612Y-189489610D01*
X204647137Y-189291179D01*
X204552419Y-189105285D01*
X204429785Y-188936495D01*
X204282255Y-188788965D01*
X204113464Y-188666330D01*
X203927570Y-188571612D01*
X203729139Y-188507137D01*
X203523074Y-188474500D01*
X203523069Y-188474500D01*
X203314431Y-188474500D01*
X203314426Y-188474500D01*
X203108360Y-188507137D01*
X202909929Y-188571612D01*
X202724035Y-188666330D01*
X202555243Y-188788966D01*
X202407716Y-188936493D01*
X202285080Y-189105285D01*
X202190362Y-189291179D01*
X202125887Y-189489610D01*
X202093250Y-189695675D01*
X194769250Y-189695675D01*
X194769250Y-185962229D01*
X194788935Y-185895190D01*
X194805569Y-185874548D01*
X197793298Y-182886819D01*
X197854621Y-182853334D01*
X197880979Y-182850500D01*
X220192670Y-182850500D01*
X220290212Y-182831096D01*
X220337663Y-182821658D01*
X220474245Y-182765084D01*
X220546952Y-182716503D01*
X220597166Y-182682952D01*
X226401701Y-176878416D01*
X226483834Y-176755495D01*
X226540408Y-176618913D01*
X226569250Y-176473918D01*
X226569250Y-176326083D01*
X226569250Y-170804604D01*
X226578689Y-170757151D01*
X226588487Y-170733497D01*
X226619250Y-170578842D01*
X226619250Y-170421158D01*
X226619250Y-170421155D01*
X226619249Y-170421153D01*
X226588488Y-170266510D01*
X226588487Y-170266503D01*
X226588485Y-170266498D01*
X226528147Y-170120827D01*
X226528140Y-170120814D01*
X226440539Y-169989711D01*
X226440536Y-169989707D01*
X226329042Y-169878213D01*
X226329038Y-169878210D01*
X226197935Y-169790609D01*
X226197922Y-169790602D01*
X226052251Y-169730264D01*
X226052239Y-169730261D01*
X225897595Y-169699500D01*
X225897592Y-169699500D01*
X225739908Y-169699500D01*
X225739905Y-169699500D01*
X225585260Y-169730261D01*
X225585248Y-169730264D01*
X225439577Y-169790602D01*
X225439564Y-169790609D01*
X225308461Y-169878210D01*
X225308457Y-169878213D01*
X225196963Y-169989707D01*
X225196960Y-169989711D01*
X225109359Y-170120814D01*
X225109352Y-170120827D01*
X225049014Y-170266498D01*
X225049011Y-170266510D01*
X225018250Y-170421153D01*
X225018250Y-170578846D01*
X225049011Y-170733489D01*
X225049013Y-170733497D01*
X225058811Y-170757151D01*
X225068250Y-170804604D01*
X225068250Y-176037770D01*
X225048565Y-176104809D01*
X225031931Y-176125451D01*
X219844201Y-181313181D01*
X219782878Y-181346666D01*
X219756520Y-181349500D01*
X197444830Y-181349500D01*
X197299842Y-181378340D01*
X197299832Y-181378343D01*
X197163261Y-181434912D01*
X197163248Y-181434919D01*
X197040334Y-181517048D01*
X197040330Y-181517051D01*
X193435800Y-185121580D01*
X193435794Y-185121588D01*
X193386562Y-185195268D01*
X193386563Y-185195269D01*
X193353671Y-185244496D01*
X193353664Y-185244508D01*
X193297092Y-185381086D01*
X193297090Y-185381092D01*
X193268250Y-185526079D01*
X193268250Y-221167796D01*
X193261115Y-221192091D01*
X193257974Y-221217222D01*
X193250522Y-221228166D01*
X193248565Y-221234835D01*
X193239442Y-221247259D01*
X193235870Y-221251537D01*
X193179336Y-221308072D01*
X193116625Y-221394385D01*
X193113942Y-221397600D01*
X193088232Y-221414799D01*
X193063737Y-221433689D01*
X193059447Y-221434057D01*
X193055870Y-221436451D01*
X193024944Y-221437020D01*
X192994124Y-221439667D01*
X192990316Y-221437657D01*
X192986012Y-221437737D01*
X192959692Y-221421499D01*
X192932329Y-221407061D01*
X192927780Y-221401811D01*
X192926548Y-221401051D01*
X192925838Y-221399569D01*
X192918433Y-221391023D01*
X192858168Y-221308078D01*
X192858164Y-221308072D01*
X192805569Y-221255477D01*
X192772084Y-221194154D01*
X192769250Y-221167796D01*
X192769250Y-166545675D01*
X202093250Y-166545675D01*
X202093250Y-166754324D01*
X202125887Y-166960389D01*
X202190362Y-167158820D01*
X202285080Y-167344714D01*
X202407715Y-167513505D01*
X202555245Y-167661035D01*
X202724036Y-167783670D01*
X202811866Y-167828421D01*
X202909929Y-167878387D01*
X202909931Y-167878387D01*
X202909934Y-167878389D01*
X203016295Y-167912948D01*
X203108360Y-167942862D01*
X203314426Y-167975500D01*
X203314431Y-167975500D01*
X203523074Y-167975500D01*
X203729139Y-167942862D01*
X203927566Y-167878389D01*
X204113464Y-167783670D01*
X204282255Y-167661035D01*
X204429785Y-167513505D01*
X204552420Y-167344714D01*
X204647139Y-167158816D01*
X204711612Y-166960389D01*
X204744250Y-166754324D01*
X204744250Y-166545675D01*
X262090750Y-166545675D01*
X262090750Y-166754324D01*
X262123387Y-166960389D01*
X262187862Y-167158820D01*
X262282580Y-167344714D01*
X262405215Y-167513505D01*
X262552745Y-167661035D01*
X262721536Y-167783670D01*
X262809366Y-167828421D01*
X262907429Y-167878387D01*
X262907431Y-167878387D01*
X262907434Y-167878389D01*
X263013795Y-167912948D01*
X263105860Y-167942862D01*
X263311926Y-167975500D01*
X263311931Y-167975500D01*
X263520574Y-167975500D01*
X263726639Y-167942862D01*
X263925066Y-167878389D01*
X264110964Y-167783670D01*
X264279755Y-167661035D01*
X264427285Y-167513505D01*
X264549920Y-167344714D01*
X264644639Y-167158816D01*
X264709112Y-166960389D01*
X264741750Y-166754324D01*
X264741750Y-166545675D01*
X264709112Y-166339610D01*
X264644637Y-166141179D01*
X264549919Y-165955285D01*
X264427285Y-165786495D01*
X264279755Y-165638965D01*
X264110964Y-165516330D01*
X263925070Y-165421612D01*
X263726639Y-165357137D01*
X263520574Y-165324500D01*
X263520569Y-165324500D01*
X263311931Y-165324500D01*
X263311926Y-165324500D01*
X263105860Y-165357137D01*
X262907429Y-165421612D01*
X262721535Y-165516330D01*
X262552743Y-165638966D01*
X262405216Y-165786493D01*
X262282580Y-165955285D01*
X262187862Y-166141179D01*
X262123387Y-166339610D01*
X262090750Y-166545675D01*
X204744250Y-166545675D01*
X204711612Y-166339610D01*
X204647137Y-166141179D01*
X204552419Y-165955285D01*
X204429785Y-165786495D01*
X204282255Y-165638965D01*
X204113464Y-165516330D01*
X203927570Y-165421612D01*
X203729139Y-165357137D01*
X203523074Y-165324500D01*
X203523069Y-165324500D01*
X203314431Y-165324500D01*
X203314426Y-165324500D01*
X203108360Y-165357137D01*
X202909929Y-165421612D01*
X202724035Y-165516330D01*
X202555243Y-165638966D01*
X202407716Y-165786493D01*
X202285080Y-165955285D01*
X202190362Y-166141179D01*
X202125887Y-166339610D01*
X202093250Y-166545675D01*
X192769250Y-166545675D01*
X192769250Y-161362229D01*
X192788935Y-161295190D01*
X192805569Y-161274548D01*
X195993298Y-158086819D01*
X196054621Y-158053334D01*
X196080979Y-158050500D01*
X221192670Y-158050500D01*
X221290212Y-158031096D01*
X221337663Y-158021658D01*
X221474245Y-157965084D01*
X221528485Y-157928842D01*
X221597166Y-157882952D01*
X224024325Y-155455793D01*
X226108965Y-153371153D01*
X226699500Y-153371153D01*
X226699500Y-153528846D01*
X226730261Y-153683489D01*
X226730264Y-153683501D01*
X226790602Y-153829172D01*
X226790609Y-153829185D01*
X226878210Y-153960288D01*
X226878213Y-153960292D01*
X226989707Y-154071786D01*
X226989711Y-154071789D01*
X227120814Y-154159390D01*
X227120827Y-154159397D01*
X227220060Y-154200500D01*
X227266503Y-154219737D01*
X227421153Y-154250499D01*
X227421156Y-154250500D01*
X227421158Y-154250500D01*
X227578844Y-154250500D01*
X227578845Y-154250499D01*
X227655152Y-154235320D01*
X227733488Y-154219739D01*
X227733489Y-154219738D01*
X227733497Y-154219737D01*
X227757155Y-154209937D01*
X227804604Y-154200500D01*
X230751841Y-154200500D01*
X230818880Y-154220185D01*
X230864635Y-154272989D01*
X230874579Y-154342147D01*
X230866402Y-154371952D01*
X230806529Y-154516498D01*
X230806526Y-154516510D01*
X230775765Y-154671153D01*
X230775765Y-154828846D01*
X230806526Y-154983489D01*
X230806529Y-154983501D01*
X230866867Y-155129172D01*
X230866874Y-155129185D01*
X230954475Y-155260288D01*
X230954478Y-155260292D01*
X231065972Y-155371786D01*
X231065976Y-155371789D01*
X231197079Y-155459390D01*
X231197092Y-155459397D01*
X231296325Y-155500500D01*
X231342768Y-155519737D01*
X231492396Y-155549500D01*
X231497418Y-155550499D01*
X231497421Y-155550500D01*
X231497423Y-155550500D01*
X231655109Y-155550500D01*
X231655110Y-155550499D01*
X231731417Y-155535320D01*
X231809753Y-155519739D01*
X231809754Y-155519738D01*
X231809762Y-155519737D01*
X231833420Y-155509937D01*
X231841594Y-155508311D01*
X231845934Y-155505523D01*
X231880869Y-155500500D01*
X232009231Y-155500500D01*
X232076270Y-155520185D01*
X232122025Y-155572989D01*
X232131969Y-155642147D01*
X232102944Y-155705703D01*
X232081873Y-155724292D01*
X232081919Y-155724347D01*
X232080380Y-155725609D01*
X232078121Y-155727603D01*
X232077208Y-155728212D01*
X231965713Y-155839707D01*
X231965710Y-155839711D01*
X231878109Y-155970814D01*
X231878102Y-155970827D01*
X231817764Y-156116498D01*
X231817761Y-156116510D01*
X231787000Y-156271153D01*
X231787000Y-156428846D01*
X231817761Y-156583489D01*
X231817764Y-156583501D01*
X231878102Y-156729172D01*
X231878109Y-156729185D01*
X231965710Y-156860288D01*
X231965713Y-156860292D01*
X232077207Y-156971786D01*
X232077211Y-156971789D01*
X232208314Y-157059390D01*
X232208327Y-157059397D01*
X232307560Y-157100500D01*
X232354003Y-157119737D01*
X232458918Y-157140606D01*
X232508653Y-157150499D01*
X232508656Y-157150500D01*
X232508658Y-157150500D01*
X232666344Y-157150500D01*
X232666345Y-157150499D01*
X232742652Y-157135320D01*
X232820988Y-157119739D01*
X232820989Y-157119738D01*
X232820997Y-157119737D01*
X232844655Y-157109937D01*
X232892104Y-157100500D01*
X234505559Y-157100500D01*
X234572598Y-157120185D01*
X234618353Y-157172989D01*
X234628297Y-157242147D01*
X234599272Y-157305703D01*
X234593240Y-157312181D01*
X234565713Y-157339707D01*
X234565710Y-157339711D01*
X234478109Y-157470814D01*
X234478102Y-157470827D01*
X234417764Y-157616498D01*
X234417761Y-157616510D01*
X234387000Y-157771153D01*
X234387000Y-157928846D01*
X234417761Y-158083489D01*
X234417764Y-158083501D01*
X234478102Y-158229172D01*
X234478109Y-158229185D01*
X234565710Y-158360288D01*
X234565713Y-158360292D01*
X234677207Y-158471786D01*
X234677211Y-158471789D01*
X234808314Y-158559390D01*
X234808327Y-158559397D01*
X234953998Y-158619735D01*
X234954003Y-158619737D01*
X235103631Y-158649500D01*
X235108653Y-158650499D01*
X235108656Y-158650500D01*
X235108658Y-158650500D01*
X235266344Y-158650500D01*
X235266345Y-158650499D01*
X235365350Y-158630806D01*
X235420988Y-158619739D01*
X235420989Y-158619738D01*
X235420997Y-158619737D01*
X235444655Y-158609937D01*
X235492104Y-158600500D01*
X235821731Y-158600500D01*
X235888770Y-158620185D01*
X235934525Y-158672989D01*
X235944469Y-158742147D01*
X235915444Y-158805703D01*
X235894373Y-158824292D01*
X235894419Y-158824347D01*
X235892880Y-158825609D01*
X235890621Y-158827603D01*
X235889708Y-158828212D01*
X235778213Y-158939707D01*
X235778210Y-158939711D01*
X235690609Y-159070814D01*
X235690602Y-159070827D01*
X235630264Y-159216498D01*
X235630261Y-159216510D01*
X235599500Y-159371153D01*
X235599500Y-159528846D01*
X235630261Y-159683489D01*
X235630264Y-159683501D01*
X235690602Y-159829172D01*
X235690609Y-159829185D01*
X235778210Y-159960288D01*
X235778213Y-159960292D01*
X235889707Y-160071786D01*
X235889711Y-160071789D01*
X236020814Y-160159390D01*
X236020827Y-160159397D01*
X236120060Y-160200500D01*
X236166503Y-160219737D01*
X236271418Y-160240606D01*
X236321153Y-160250499D01*
X236321156Y-160250500D01*
X236321158Y-160250500D01*
X236478844Y-160250500D01*
X236478845Y-160250499D01*
X236555152Y-160235320D01*
X236633488Y-160219739D01*
X236633489Y-160219738D01*
X236633497Y-160219737D01*
X236657155Y-160209937D01*
X236704604Y-160200500D01*
X237096809Y-160200500D01*
X237163848Y-160220185D01*
X237209603Y-160272989D01*
X237219547Y-160342147D01*
X237190522Y-160405703D01*
X237184490Y-160412181D01*
X237156963Y-160439707D01*
X237156960Y-160439711D01*
X237069359Y-160570814D01*
X237069352Y-160570827D01*
X237009014Y-160716498D01*
X237009011Y-160716510D01*
X236978250Y-160871153D01*
X236978250Y-161028846D01*
X237009011Y-161183489D01*
X237009014Y-161183501D01*
X237069352Y-161329172D01*
X237069359Y-161329185D01*
X237156960Y-161460288D01*
X237156963Y-161460292D01*
X237268457Y-161571786D01*
X237268461Y-161571789D01*
X237399564Y-161659390D01*
X237399577Y-161659397D01*
X237498810Y-161700500D01*
X237545253Y-161719737D01*
X237699903Y-161750499D01*
X237699906Y-161750500D01*
X237699908Y-161750500D01*
X237857594Y-161750500D01*
X237857595Y-161750499D01*
X237933902Y-161735320D01*
X238012238Y-161719739D01*
X238012239Y-161719738D01*
X238012247Y-161719737D01*
X238035905Y-161709937D01*
X238083354Y-161700500D01*
X275437770Y-161700500D01*
X275504809Y-161720185D01*
X275525451Y-161736819D01*
X275763181Y-161974548D01*
X275796666Y-162035871D01*
X275799500Y-162062229D01*
X275799500Y-175045396D01*
X275790062Y-175092844D01*
X275780263Y-175116503D01*
X275780262Y-175116506D01*
X275780260Y-175116511D01*
X275749500Y-175271153D01*
X275749500Y-175271158D01*
X275749500Y-175428842D01*
X275749500Y-175428844D01*
X275749499Y-175428844D01*
X275773860Y-175551308D01*
X275767633Y-175620900D01*
X275724770Y-175676077D01*
X275658880Y-175699322D01*
X275652243Y-175699500D01*
X228904604Y-175699500D01*
X228857155Y-175690062D01*
X228833497Y-175680263D01*
X228833493Y-175680262D01*
X228833488Y-175680260D01*
X228678845Y-175649500D01*
X228678842Y-175649500D01*
X228521158Y-175649500D01*
X228521155Y-175649500D01*
X228366510Y-175680261D01*
X228366498Y-175680264D01*
X228220827Y-175740602D01*
X228220814Y-175740609D01*
X228089711Y-175828210D01*
X228089707Y-175828213D01*
X227978213Y-175939707D01*
X227978210Y-175939711D01*
X227890609Y-176070814D01*
X227890602Y-176070827D01*
X227830264Y-176216498D01*
X227830261Y-176216510D01*
X227799500Y-176371153D01*
X227799500Y-176528846D01*
X227830261Y-176683489D01*
X227830264Y-176683501D01*
X227890602Y-176829172D01*
X227890609Y-176829185D01*
X227978210Y-176960288D01*
X227978213Y-176960292D01*
X228089707Y-177071786D01*
X228089711Y-177071789D01*
X228220814Y-177159390D01*
X228220827Y-177159397D01*
X228320060Y-177200500D01*
X228366503Y-177219737D01*
X228521153Y-177250499D01*
X228521156Y-177250500D01*
X228521158Y-177250500D01*
X228678844Y-177250500D01*
X228678845Y-177250499D01*
X228755152Y-177235320D01*
X228833488Y-177219739D01*
X228833489Y-177219738D01*
X228833497Y-177219737D01*
X228857155Y-177209937D01*
X228904604Y-177200500D01*
X231032341Y-177200500D01*
X231099380Y-177220185D01*
X231145135Y-177272989D01*
X231155079Y-177342147D01*
X231126054Y-177405703D01*
X231101232Y-177427602D01*
X231087226Y-177436960D01*
X231087222Y-177436963D01*
X230975728Y-177548457D01*
X230975725Y-177548461D01*
X230888124Y-177679564D01*
X230888117Y-177679577D01*
X230827779Y-177825248D01*
X230827776Y-177825260D01*
X230797015Y-177979903D01*
X230797015Y-178137596D01*
X230827776Y-178292239D01*
X230827779Y-178292251D01*
X230888117Y-178437922D01*
X230888124Y-178437935D01*
X230975725Y-178569038D01*
X230975728Y-178569042D01*
X231087222Y-178680536D01*
X231087226Y-178680539D01*
X231218329Y-178768140D01*
X231218342Y-178768147D01*
X231364013Y-178828485D01*
X231364018Y-178828487D01*
X231518668Y-178859249D01*
X231518671Y-178859250D01*
X231518673Y-178859250D01*
X231676359Y-178859250D01*
X231676360Y-178859249D01*
X231752667Y-178844070D01*
X231831003Y-178828489D01*
X231831004Y-178828488D01*
X231831012Y-178828487D01*
X231854670Y-178818687D01*
X231902119Y-178809250D01*
X232569982Y-178809250D01*
X232637021Y-178828935D01*
X232682776Y-178881739D01*
X232692720Y-178950897D01*
X232663695Y-179014453D01*
X232604917Y-179052227D01*
X232594174Y-179054867D01*
X232466508Y-179080261D01*
X232466498Y-179080264D01*
X232320827Y-179140602D01*
X232320814Y-179140609D01*
X232189711Y-179228210D01*
X232189707Y-179228213D01*
X232078213Y-179339707D01*
X232078210Y-179339711D01*
X231990609Y-179470814D01*
X231990602Y-179470827D01*
X231930264Y-179616498D01*
X231930261Y-179616510D01*
X231899500Y-179771153D01*
X231899500Y-179928846D01*
X231930261Y-180083489D01*
X231930264Y-180083501D01*
X231990602Y-180229172D01*
X231990609Y-180229185D01*
X232078210Y-180360288D01*
X232078213Y-180360292D01*
X232189707Y-180471786D01*
X232189711Y-180471789D01*
X232320814Y-180559390D01*
X232320827Y-180559397D01*
X232420060Y-180600500D01*
X232466503Y-180619737D01*
X232616131Y-180649500D01*
X232621153Y-180650499D01*
X232621156Y-180650500D01*
X232621158Y-180650500D01*
X232778844Y-180650500D01*
X232778845Y-180650499D01*
X232855152Y-180635320D01*
X232933488Y-180619739D01*
X232933489Y-180619738D01*
X232933497Y-180619737D01*
X232957155Y-180609937D01*
X233004604Y-180600500D01*
X234721731Y-180600500D01*
X234788770Y-180620185D01*
X234834525Y-180672989D01*
X234844469Y-180742147D01*
X234815444Y-180805703D01*
X234794373Y-180824292D01*
X234794419Y-180824347D01*
X234792880Y-180825609D01*
X234790621Y-180827603D01*
X234789708Y-180828212D01*
X234678213Y-180939707D01*
X234678210Y-180939711D01*
X234590609Y-181070814D01*
X234590602Y-181070827D01*
X234530264Y-181216498D01*
X234530261Y-181216510D01*
X234499500Y-181371153D01*
X234499500Y-181528846D01*
X234530261Y-181683489D01*
X234530264Y-181683501D01*
X234590602Y-181829172D01*
X234590609Y-181829185D01*
X234678210Y-181960288D01*
X234678213Y-181960292D01*
X234789707Y-182071786D01*
X234789711Y-182071789D01*
X234920814Y-182159390D01*
X234920827Y-182159397D01*
X235020060Y-182200500D01*
X235066503Y-182219737D01*
X235171418Y-182240606D01*
X235221153Y-182250499D01*
X235221156Y-182250500D01*
X235221158Y-182250500D01*
X235378844Y-182250500D01*
X235378845Y-182250499D01*
X235455152Y-182235320D01*
X235533488Y-182219739D01*
X235533489Y-182219738D01*
X235533497Y-182219737D01*
X235557155Y-182209937D01*
X235565329Y-182208311D01*
X235569669Y-182205523D01*
X235604604Y-182200500D01*
X235705559Y-182200500D01*
X235772598Y-182220185D01*
X235818353Y-182272989D01*
X235828297Y-182342147D01*
X235799272Y-182405703D01*
X235793240Y-182412181D01*
X235765713Y-182439707D01*
X235765710Y-182439711D01*
X235678109Y-182570814D01*
X235678102Y-182570827D01*
X235617764Y-182716498D01*
X235617761Y-182716510D01*
X235587000Y-182871153D01*
X235587000Y-183028846D01*
X235617761Y-183183489D01*
X235617764Y-183183501D01*
X235678102Y-183329172D01*
X235678109Y-183329185D01*
X235765710Y-183460288D01*
X235765713Y-183460292D01*
X235877207Y-183571786D01*
X235877211Y-183571789D01*
X236008314Y-183659390D01*
X236008327Y-183659397D01*
X236107560Y-183700500D01*
X236154003Y-183719737D01*
X236308653Y-183750499D01*
X236308656Y-183750500D01*
X236308658Y-183750500D01*
X236466344Y-183750500D01*
X236466345Y-183750499D01*
X236542652Y-183735320D01*
X236620988Y-183719739D01*
X236620989Y-183719738D01*
X236620997Y-183719737D01*
X236644655Y-183709937D01*
X236692104Y-183700500D01*
X236993332Y-183700500D01*
X237060371Y-183720185D01*
X237106126Y-183772989D01*
X237116070Y-183842147D01*
X237096433Y-183893392D01*
X237078110Y-183920812D01*
X237078102Y-183920827D01*
X237017764Y-184066498D01*
X237017761Y-184066510D01*
X236987000Y-184221153D01*
X236987000Y-184378846D01*
X237017761Y-184533489D01*
X237017764Y-184533501D01*
X237078102Y-184679172D01*
X237078109Y-184679185D01*
X237165710Y-184810288D01*
X237165713Y-184810292D01*
X237277207Y-184921786D01*
X237277211Y-184921789D01*
X237408314Y-185009390D01*
X237408327Y-185009397D01*
X237516780Y-185054319D01*
X237554003Y-185069737D01*
X237708653Y-185100499D01*
X237708656Y-185100500D01*
X237708658Y-185100500D01*
X237763582Y-185100500D01*
X275675500Y-185100500D01*
X275742539Y-185120185D01*
X275788294Y-185172989D01*
X275799500Y-185224500D01*
X275799500Y-207237770D01*
X275790855Y-207267210D01*
X275784332Y-207297197D01*
X275780577Y-207302212D01*
X275779815Y-207304809D01*
X275763181Y-207325451D01*
X275625451Y-207463181D01*
X275564128Y-207496666D01*
X275537770Y-207499500D01*
X265826076Y-207499500D01*
X265797242Y-207505234D01*
X265797243Y-207505235D01*
X265681092Y-207528339D01*
X265681086Y-207528341D01*
X265609821Y-207557861D01*
X265544506Y-207584915D01*
X265465216Y-207637895D01*
X265421582Y-207667049D01*
X265421579Y-207667052D01*
X265035799Y-208052831D01*
X265035798Y-208052833D01*
X265018146Y-208079251D01*
X265000612Y-208105495D01*
X264977058Y-208140745D01*
X264953664Y-208175757D01*
X264897093Y-208312332D01*
X264897090Y-208312342D01*
X264868250Y-208457329D01*
X264868250Y-208875500D01*
X264848565Y-208942539D01*
X264795761Y-208988294D01*
X264744250Y-208999500D01*
X264026080Y-208999500D01*
X263881092Y-209028340D01*
X263881082Y-209028343D01*
X263744511Y-209084912D01*
X263744498Y-209084919D01*
X263621584Y-209167048D01*
X263621580Y-209167051D01*
X263035802Y-209752828D01*
X263035801Y-209752829D01*
X262988304Y-209823916D01*
X262988303Y-209823917D01*
X262953669Y-209875749D01*
X262953662Y-209875761D01*
X262897093Y-210012332D01*
X262897090Y-210012342D01*
X262868250Y-210157329D01*
X262868250Y-210675500D01*
X262848565Y-210742539D01*
X262795761Y-210788294D01*
X262744250Y-210799500D01*
X262126080Y-210799500D01*
X261981092Y-210828340D01*
X261981082Y-210828343D01*
X261844511Y-210884912D01*
X261844498Y-210884919D01*
X261742749Y-210952906D01*
X261742748Y-210952908D01*
X261721859Y-210966864D01*
X261721581Y-210967051D01*
X261017052Y-211671578D01*
X261017049Y-211671581D01*
X260968270Y-211744584D01*
X260968271Y-211744585D01*
X260934914Y-211794508D01*
X260878343Y-211931082D01*
X260878340Y-211931092D01*
X260849500Y-212076079D01*
X260849500Y-212076082D01*
X260849500Y-212426082D01*
X260849500Y-212573918D01*
X260849500Y-212573920D01*
X260849499Y-212573920D01*
X260864894Y-212651308D01*
X260858667Y-212720899D01*
X260815805Y-212776077D01*
X260749915Y-212799322D01*
X260743277Y-212799500D01*
X260026080Y-212799500D01*
X259881092Y-212828340D01*
X259881082Y-212828343D01*
X259744511Y-212884912D01*
X259744498Y-212884919D01*
X259621584Y-212967048D01*
X259621580Y-212967051D01*
X259035802Y-213552828D01*
X259035801Y-213552829D01*
X258988304Y-213623916D01*
X258988303Y-213623917D01*
X258953669Y-213675749D01*
X258953662Y-213675761D01*
X258897093Y-213812332D01*
X258897090Y-213812342D01*
X258868250Y-213957329D01*
X258868250Y-213957332D01*
X258868250Y-214226082D01*
X258868250Y-214373918D01*
X258868250Y-214373920D01*
X258868249Y-214373920D01*
X258883445Y-214450308D01*
X258877218Y-214519900D01*
X258834355Y-214575077D01*
X258768466Y-214598322D01*
X258761828Y-214598500D01*
X258727080Y-214598500D01*
X258582092Y-214627340D01*
X258582082Y-214627343D01*
X258445511Y-214683912D01*
X258445499Y-214683919D01*
X258399481Y-214714668D01*
X258399480Y-214714669D01*
X258322582Y-214766049D01*
X258322581Y-214766050D01*
X257035800Y-216052830D01*
X257035794Y-216052838D01*
X256986562Y-216126518D01*
X256986563Y-216126519D01*
X256953671Y-216175746D01*
X256953664Y-216175758D01*
X256897092Y-216312336D01*
X256897090Y-216312342D01*
X256868250Y-216457329D01*
X256868250Y-221167796D01*
X256848565Y-221234835D01*
X256831931Y-221255477D01*
X256779338Y-221308069D01*
X256779338Y-221308070D01*
X256779336Y-221308072D01*
X256779332Y-221308078D01*
X256677518Y-221448211D01*
X256598878Y-221602552D01*
X256545347Y-221767302D01*
X256518250Y-221938389D01*
X256518250Y-222661610D01*
X256544129Y-222825008D01*
X256545348Y-222832701D01*
X256598877Y-222997445D01*
X256677518Y-223151788D01*
X256779336Y-223291928D01*
X256901822Y-223414414D01*
X257041962Y-223516232D01*
X257196305Y-223594873D01*
X257361049Y-223648402D01*
X257532139Y-223675500D01*
X257532140Y-223675500D01*
X257705360Y-223675500D01*
X257705361Y-223675500D01*
X257876451Y-223648402D01*
X258041195Y-223594873D01*
X258195538Y-223516232D01*
X258335678Y-223414414D01*
X258458164Y-223291928D01*
X258518432Y-223208975D01*
X258573762Y-223166311D01*
X258643376Y-223160332D01*
X258705171Y-223192938D01*
X258719065Y-223208973D01*
X258779336Y-223291928D01*
X258901822Y-223414414D01*
X259041962Y-223516232D01*
X259196305Y-223594873D01*
X259361049Y-223648402D01*
X259532139Y-223675500D01*
X259532140Y-223675500D01*
X259705360Y-223675500D01*
X259705361Y-223675500D01*
X259876451Y-223648402D01*
X260041195Y-223594873D01*
X260195538Y-223516232D01*
X260335678Y-223414414D01*
X260458164Y-223291928D01*
X260518432Y-223208975D01*
X260573762Y-223166311D01*
X260643376Y-223160332D01*
X260705171Y-223192938D01*
X260719065Y-223208973D01*
X260779336Y-223291928D01*
X260901822Y-223414414D01*
X261041962Y-223516232D01*
X261196305Y-223594873D01*
X261361049Y-223648402D01*
X261532139Y-223675500D01*
X261532140Y-223675500D01*
X261705360Y-223675500D01*
X261705361Y-223675500D01*
X261876451Y-223648402D01*
X262041195Y-223594873D01*
X262195538Y-223516232D01*
X262335678Y-223414414D01*
X262458164Y-223291928D01*
X262518432Y-223208975D01*
X262573762Y-223166311D01*
X262643376Y-223160332D01*
X262705171Y-223192938D01*
X262719065Y-223208973D01*
X262779336Y-223291928D01*
X262901822Y-223414414D01*
X263041962Y-223516232D01*
X263196305Y-223594873D01*
X263361049Y-223648402D01*
X263532139Y-223675500D01*
X263532140Y-223675500D01*
X263705360Y-223675500D01*
X263705361Y-223675500D01*
X263876451Y-223648402D01*
X264041195Y-223594873D01*
X264195538Y-223516232D01*
X264335678Y-223414414D01*
X264458164Y-223291928D01*
X264518432Y-223208975D01*
X264573762Y-223166311D01*
X264643376Y-223160332D01*
X264705171Y-223192938D01*
X264719065Y-223208973D01*
X264779336Y-223291928D01*
X264901822Y-223414414D01*
X265041962Y-223516232D01*
X265196305Y-223594873D01*
X265361049Y-223648402D01*
X265532139Y-223675500D01*
X265532140Y-223675500D01*
X265705360Y-223675500D01*
X265705361Y-223675500D01*
X265876451Y-223648402D01*
X266041195Y-223594873D01*
X266195538Y-223516232D01*
X266335678Y-223414414D01*
X266458164Y-223291928D01*
X266518432Y-223208975D01*
X266573762Y-223166311D01*
X266643376Y-223160332D01*
X266705171Y-223192938D01*
X266719065Y-223208973D01*
X266779336Y-223291928D01*
X266901822Y-223414414D01*
X267041962Y-223516232D01*
X267196305Y-223594873D01*
X267361049Y-223648402D01*
X267532139Y-223675500D01*
X267532140Y-223675500D01*
X267705360Y-223675500D01*
X267705361Y-223675500D01*
X267876451Y-223648402D01*
X268041195Y-223594873D01*
X268195538Y-223516232D01*
X268335678Y-223414414D01*
X268458164Y-223291928D01*
X268559982Y-223151788D01*
X268638623Y-222997445D01*
X268692152Y-222832701D01*
X268719250Y-222661611D01*
X268719250Y-221938389D01*
X268692152Y-221767299D01*
X268638623Y-221602555D01*
X268583168Y-221493718D01*
X268573622Y-221474983D01*
X284999500Y-221474983D01*
X284999500Y-222825001D01*
X284999501Y-222825018D01*
X285010000Y-222927796D01*
X285010001Y-222927799D01*
X285046004Y-223036448D01*
X285065186Y-223094334D01*
X285081039Y-223120036D01*
X285099500Y-223185132D01*
X285099500Y-225548541D01*
X285099500Y-225548543D01*
X285099499Y-225548543D01*
X285137947Y-225741829D01*
X285137950Y-225741839D01*
X285213364Y-225923907D01*
X285213371Y-225923920D01*
X285322860Y-226087781D01*
X285322863Y-226087785D01*
X285466537Y-226231459D01*
X285466559Y-226231479D01*
X288097861Y-228862781D01*
X288662213Y-229427135D01*
X288662216Y-229427138D01*
X288697180Y-229450500D01*
X288826079Y-229536628D01*
X288826092Y-229536635D01*
X288954833Y-229589961D01*
X288997744Y-229607735D01*
X289008164Y-229612051D01*
X289104812Y-229631275D01*
X289153135Y-229640887D01*
X289201458Y-229650500D01*
X289201459Y-229650500D01*
X304198542Y-229650500D01*
X304229566Y-229644328D01*
X304295188Y-229631275D01*
X304391836Y-229612051D01*
X304445165Y-229589961D01*
X304573914Y-229536632D01*
X304737782Y-229427139D01*
X304877139Y-229287782D01*
X304877140Y-229287779D01*
X304884206Y-229280714D01*
X304884209Y-229280710D01*
X308086208Y-226078711D01*
X340349500Y-226078711D01*
X340349500Y-226321288D01*
X340381161Y-226561785D01*
X340443947Y-226796104D01*
X340536773Y-227020205D01*
X340536776Y-227020212D01*
X340658064Y-227230289D01*
X340658066Y-227230292D01*
X340658067Y-227230293D01*
X340805733Y-227422736D01*
X340805739Y-227422743D01*
X340977256Y-227594260D01*
X340977262Y-227594265D01*
X341169711Y-227741936D01*
X341379788Y-227863224D01*
X341603900Y-227956054D01*
X341838211Y-228018838D01*
X342018586Y-228042584D01*
X342078711Y-228050500D01*
X342078712Y-228050500D01*
X342321289Y-228050500D01*
X342369388Y-228044167D01*
X342561789Y-228018838D01*
X342796100Y-227956054D01*
X343020212Y-227863224D01*
X343230289Y-227741936D01*
X343422738Y-227594265D01*
X343594265Y-227422738D01*
X343741936Y-227230289D01*
X343863224Y-227020212D01*
X343956054Y-226796100D01*
X344018838Y-226561789D01*
X344050500Y-226321288D01*
X344050500Y-226078712D01*
X344018838Y-225838211D01*
X343956054Y-225603900D01*
X343863224Y-225379788D01*
X343741936Y-225169711D01*
X343594265Y-224977262D01*
X343594260Y-224977256D01*
X343422743Y-224805739D01*
X343422736Y-224805733D01*
X343230293Y-224658067D01*
X343230292Y-224658066D01*
X343230289Y-224658064D01*
X343020212Y-224536776D01*
X343020205Y-224536773D01*
X342796104Y-224443947D01*
X342561785Y-224381161D01*
X342321289Y-224349500D01*
X342321288Y-224349500D01*
X342078712Y-224349500D01*
X342078711Y-224349500D01*
X341838214Y-224381161D01*
X341603895Y-224443947D01*
X341379794Y-224536773D01*
X341379785Y-224536777D01*
X341169706Y-224658067D01*
X340977263Y-224805733D01*
X340977256Y-224805739D01*
X340805739Y-224977256D01*
X340805733Y-224977263D01*
X340658067Y-225169706D01*
X340536777Y-225379785D01*
X340536773Y-225379794D01*
X340443947Y-225603895D01*
X340381161Y-225838214D01*
X340349500Y-226078711D01*
X308086208Y-226078711D01*
X311292778Y-222872141D01*
X311292782Y-222872139D01*
X311432139Y-222732782D01*
X311541632Y-222568914D01*
X311609372Y-222405374D01*
X311617051Y-222386836D01*
X311655500Y-222193540D01*
X311655500Y-221996460D01*
X311655500Y-221301459D01*
X311655500Y-208236459D01*
X311655500Y-208236456D01*
X311655499Y-208236454D01*
X311643425Y-208175755D01*
X311617051Y-208043165D01*
X311613634Y-208034916D01*
X311578254Y-207949500D01*
X311541635Y-207861091D01*
X311541628Y-207861079D01*
X311432140Y-207697219D01*
X311372815Y-207637894D01*
X311292782Y-207557861D01*
X311292781Y-207557860D01*
X305972898Y-202237978D01*
X305972896Y-202237975D01*
X305972896Y-202237976D01*
X305965829Y-202230909D01*
X305965829Y-202230908D01*
X305826472Y-202091551D01*
X305826471Y-202091550D01*
X305826470Y-202091549D01*
X305662610Y-201982061D01*
X305662597Y-201982054D01*
X305530906Y-201927507D01*
X305530904Y-201927506D01*
X305523542Y-201924457D01*
X305480526Y-201906639D01*
X305383878Y-201887414D01*
X305379741Y-201886591D01*
X305379737Y-201886590D01*
X305287234Y-201868190D01*
X305287231Y-201868190D01*
X304094500Y-201868190D01*
X304027461Y-201848505D01*
X303981706Y-201795701D01*
X303970500Y-201744190D01*
X303970500Y-200585782D01*
X303990185Y-200518743D01*
X304006819Y-200498101D01*
X307433102Y-197071819D01*
X307494425Y-197038334D01*
X307520783Y-197035500D01*
X314153542Y-197035500D01*
X314184566Y-197029328D01*
X314250188Y-197016275D01*
X314346836Y-196997051D01*
X314400165Y-196974961D01*
X314528914Y-196921632D01*
X314692782Y-196812139D01*
X314832139Y-196672782D01*
X314832140Y-196672779D01*
X314839206Y-196665714D01*
X314839209Y-196665710D01*
X320592778Y-190912141D01*
X320592782Y-190912139D01*
X320732139Y-190772782D01*
X320841632Y-190608914D01*
X320917051Y-190426835D01*
X320955500Y-190233541D01*
X320955500Y-184845675D01*
X323549500Y-184845675D01*
X323549500Y-185054324D01*
X323582137Y-185260389D01*
X323646612Y-185458820D01*
X323680884Y-185526082D01*
X323741330Y-185644714D01*
X323863965Y-185813505D01*
X324011495Y-185961035D01*
X324180286Y-186083670D01*
X324268116Y-186128421D01*
X324366179Y-186178387D01*
X324366181Y-186178387D01*
X324366184Y-186178389D01*
X324472545Y-186212948D01*
X324564610Y-186242862D01*
X324770676Y-186275500D01*
X324770681Y-186275500D01*
X324979324Y-186275500D01*
X325185389Y-186242862D01*
X325383816Y-186178389D01*
X325569714Y-186083670D01*
X325738505Y-185961035D01*
X325886035Y-185813505D01*
X326008670Y-185644714D01*
X326103389Y-185458816D01*
X326167862Y-185260389D01*
X326189846Y-185121588D01*
X326200500Y-185054324D01*
X326200500Y-184845675D01*
X338799500Y-184845675D01*
X338799500Y-185054324D01*
X338832137Y-185260389D01*
X338896612Y-185458820D01*
X338930884Y-185526082D01*
X338991330Y-185644714D01*
X339113965Y-185813505D01*
X339261495Y-185961035D01*
X339430286Y-186083670D01*
X339518116Y-186128421D01*
X339616179Y-186178387D01*
X339616181Y-186178387D01*
X339616184Y-186178389D01*
X339722545Y-186212948D01*
X339814610Y-186242862D01*
X340020676Y-186275500D01*
X340020681Y-186275500D01*
X340229324Y-186275500D01*
X340435389Y-186242862D01*
X340633816Y-186178389D01*
X340819714Y-186083670D01*
X340988505Y-185961035D01*
X341136035Y-185813505D01*
X341258670Y-185644714D01*
X341353389Y-185458816D01*
X341417862Y-185260389D01*
X341439846Y-185121588D01*
X341450500Y-185054324D01*
X341450500Y-184845675D01*
X341417862Y-184639610D01*
X341353387Y-184441179D01*
X341293961Y-184324549D01*
X341258670Y-184255286D01*
X341136035Y-184086495D01*
X340988505Y-183938965D01*
X340819714Y-183816330D01*
X340767471Y-183789711D01*
X340633820Y-183721612D01*
X340435389Y-183657137D01*
X340229324Y-183624500D01*
X340229319Y-183624500D01*
X340020681Y-183624500D01*
X340020676Y-183624500D01*
X339814610Y-183657137D01*
X339616179Y-183721612D01*
X339430285Y-183816330D01*
X339261493Y-183938966D01*
X339113966Y-184086493D01*
X338991330Y-184255285D01*
X338896612Y-184441179D01*
X338832137Y-184639610D01*
X338799500Y-184845675D01*
X326200500Y-184845675D01*
X326167862Y-184639610D01*
X326103387Y-184441179D01*
X326043961Y-184324549D01*
X326008670Y-184255286D01*
X325886035Y-184086495D01*
X325738505Y-183938965D01*
X325569714Y-183816330D01*
X325517471Y-183789711D01*
X325383820Y-183721612D01*
X325185389Y-183657137D01*
X324979324Y-183624500D01*
X324979319Y-183624500D01*
X324770681Y-183624500D01*
X324770676Y-183624500D01*
X324564610Y-183657137D01*
X324366179Y-183721612D01*
X324180285Y-183816330D01*
X324011493Y-183938966D01*
X323863966Y-184086493D01*
X323741330Y-184255285D01*
X323646612Y-184441179D01*
X323582137Y-184639610D01*
X323549500Y-184845675D01*
X320955500Y-184845675D01*
X320955500Y-159228711D01*
X340349500Y-159228711D01*
X340349500Y-159471288D01*
X340381161Y-159711785D01*
X340443947Y-159946104D01*
X340532293Y-160159390D01*
X340536776Y-160170212D01*
X340658064Y-160380289D01*
X340658066Y-160380292D01*
X340658067Y-160380293D01*
X340805733Y-160572736D01*
X340805739Y-160572743D01*
X340977256Y-160744260D01*
X340977263Y-160744266D01*
X341023753Y-160779939D01*
X341169711Y-160891936D01*
X341379788Y-161013224D01*
X341603900Y-161106054D01*
X341838211Y-161168838D01*
X341996730Y-161189707D01*
X342078711Y-161200500D01*
X342078712Y-161200500D01*
X342321289Y-161200500D01*
X342369388Y-161194167D01*
X342561789Y-161168838D01*
X342796100Y-161106054D01*
X343020212Y-161013224D01*
X343230289Y-160891936D01*
X343422738Y-160744265D01*
X343594265Y-160572738D01*
X343741936Y-160380289D01*
X343863224Y-160170212D01*
X343956054Y-159946100D01*
X344018838Y-159711789D01*
X344050500Y-159471288D01*
X344050500Y-159228712D01*
X344018838Y-158988211D01*
X343956054Y-158753900D01*
X343863224Y-158529788D01*
X343741936Y-158319711D01*
X343672473Y-158229185D01*
X343594266Y-158127263D01*
X343594260Y-158127256D01*
X343422743Y-157955739D01*
X343422736Y-157955733D01*
X343230293Y-157808067D01*
X343230292Y-157808066D01*
X343230289Y-157808064D01*
X343020212Y-157686776D01*
X343020205Y-157686773D01*
X342796104Y-157593947D01*
X342561785Y-157531161D01*
X342321289Y-157499500D01*
X342321288Y-157499500D01*
X342078712Y-157499500D01*
X342078711Y-157499500D01*
X341838214Y-157531161D01*
X341603895Y-157593947D01*
X341379794Y-157686773D01*
X341379785Y-157686777D01*
X341169706Y-157808067D01*
X340977263Y-157955733D01*
X340977256Y-157955739D01*
X340805739Y-158127256D01*
X340805733Y-158127263D01*
X340658067Y-158319706D01*
X340536777Y-158529785D01*
X340536773Y-158529794D01*
X340443947Y-158753895D01*
X340381161Y-158988214D01*
X340349500Y-159228711D01*
X320955500Y-159228711D01*
X320955500Y-135636459D01*
X320955500Y-135636456D01*
X320933968Y-135528212D01*
X320925356Y-135484916D01*
X320917051Y-135443164D01*
X320878254Y-135349500D01*
X320857958Y-135300500D01*
X320841635Y-135261092D01*
X320841628Y-135261079D01*
X320732140Y-135097219D01*
X320695209Y-135060288D01*
X320592782Y-134957861D01*
X320592781Y-134957860D01*
X315039208Y-129404288D01*
X315039206Y-129404285D01*
X315039206Y-129404286D01*
X315032139Y-129397219D01*
X315032139Y-129397218D01*
X314892782Y-129257861D01*
X314892781Y-129257860D01*
X314892780Y-129257859D01*
X314728920Y-129148371D01*
X314728907Y-129148364D01*
X314570850Y-129082895D01*
X314570843Y-129082893D01*
X314561876Y-129079179D01*
X314546836Y-129072949D01*
X314450188Y-129053724D01*
X314447758Y-129053240D01*
X314447743Y-129053237D01*
X314353544Y-129034500D01*
X314353541Y-129034500D01*
X306856459Y-129034500D01*
X306856455Y-129034500D01*
X306762256Y-129053237D01*
X306762235Y-129053241D01*
X306759812Y-129053724D01*
X306663164Y-129072949D01*
X306648124Y-129079179D01*
X306639155Y-129082894D01*
X306639151Y-129082895D01*
X306481092Y-129148364D01*
X306481079Y-129148371D01*
X306317219Y-129257859D01*
X306280819Y-129294260D01*
X306177861Y-129397218D01*
X306177858Y-129397221D01*
X302332221Y-133242858D01*
X302332218Y-133242861D01*
X302291590Y-133283489D01*
X302192859Y-133382219D01*
X302083371Y-133546080D01*
X302083364Y-133546093D01*
X302049618Y-133627565D01*
X302049615Y-133627573D01*
X302047388Y-133632951D01*
X302007949Y-133728164D01*
X301989734Y-133819737D01*
X301988493Y-133825975D01*
X301988492Y-133825979D01*
X301969500Y-133921456D01*
X301969500Y-135846470D01*
X301960062Y-135893920D01*
X301945447Y-135929205D01*
X301945446Y-135929208D01*
X301945446Y-135929209D01*
X301945445Y-135929210D01*
X301904500Y-136135054D01*
X301904500Y-136135057D01*
X301904500Y-136344943D01*
X301904500Y-136344945D01*
X301904499Y-136344945D01*
X301945445Y-136550789D01*
X301945447Y-136550795D01*
X302025765Y-136744701D01*
X302142373Y-136919218D01*
X302290781Y-137067626D01*
X302465298Y-137184234D01*
X302562251Y-137224393D01*
X302659205Y-137264553D01*
X302659209Y-137264553D01*
X302659210Y-137264554D01*
X302865054Y-137305500D01*
X302865057Y-137305500D01*
X303074945Y-137305500D01*
X303213433Y-137277952D01*
X303280795Y-137264553D01*
X303474703Y-137184233D01*
X303649216Y-137067628D01*
X303797628Y-136919216D01*
X303914233Y-136744703D01*
X303994553Y-136550795D01*
X304026595Y-136389711D01*
X304035500Y-136344945D01*
X304035500Y-136135054D01*
X303994554Y-135929210D01*
X303994553Y-135929209D01*
X303994553Y-135929205D01*
X303979937Y-135893920D01*
X303970500Y-135846470D01*
X303970500Y-134485782D01*
X303990185Y-134418743D01*
X304006819Y-134398101D01*
X307333101Y-131071819D01*
X307394424Y-131038334D01*
X307420782Y-131035500D01*
X313789218Y-131035500D01*
X313856257Y-131055185D01*
X313876899Y-131071819D01*
X318918181Y-136113101D01*
X318951666Y-136174424D01*
X318954500Y-136200782D01*
X318954500Y-189669218D01*
X318934815Y-189736257D01*
X318918181Y-189756899D01*
X313676899Y-194998181D01*
X313615576Y-195031666D01*
X313589218Y-195034500D01*
X306956456Y-195034500D01*
X306763171Y-195072946D01*
X306763167Y-195072948D01*
X306763165Y-195072948D01*
X306763164Y-195072949D01*
X306687745Y-195104188D01*
X306687743Y-195104189D01*
X306581085Y-195148368D01*
X306581085Y-195148369D01*
X306581084Y-195148369D01*
X306417222Y-195257857D01*
X306417214Y-195257863D01*
X302799809Y-198875270D01*
X302332220Y-199342859D01*
X302332218Y-199342861D01*
X302262538Y-199412540D01*
X302192859Y-199482219D01*
X302083374Y-199646076D01*
X302083364Y-199646092D01*
X302007950Y-199828160D01*
X302007947Y-199828170D01*
X301969500Y-200021456D01*
X301969500Y-202475160D01*
X301960062Y-202522610D01*
X301945447Y-202557895D01*
X301945446Y-202557898D01*
X301945446Y-202557899D01*
X301945445Y-202557900D01*
X301904500Y-202763744D01*
X301904500Y-202763747D01*
X301904500Y-202973633D01*
X301904500Y-202973635D01*
X301904499Y-202973635D01*
X301945445Y-203179479D01*
X301945447Y-203179485D01*
X302025765Y-203373391D01*
X302142373Y-203547908D01*
X302290781Y-203696316D01*
X302465298Y-203812924D01*
X302562251Y-203853083D01*
X302659205Y-203893243D01*
X302659209Y-203893243D01*
X302659210Y-203893244D01*
X302865054Y-203934190D01*
X302865057Y-203934190D01*
X303074945Y-203934190D01*
X303219130Y-203905509D01*
X303280795Y-203893243D01*
X303316076Y-203878628D01*
X303363529Y-203869190D01*
X304722908Y-203869190D01*
X304789947Y-203888875D01*
X304810589Y-203905509D01*
X309618181Y-208713101D01*
X309651666Y-208774424D01*
X309654500Y-208800782D01*
X309654500Y-221629218D01*
X309634815Y-221696257D01*
X309618181Y-221716899D01*
X303721899Y-227613181D01*
X303660576Y-227646666D01*
X303634218Y-227649500D01*
X289765782Y-227649500D01*
X289698743Y-227629815D01*
X289678101Y-227613181D01*
X287136819Y-225071899D01*
X287103334Y-225010576D01*
X287100500Y-224984218D01*
X287100500Y-223281204D01*
X287120185Y-223214165D01*
X287172989Y-223168410D01*
X287242147Y-223158466D01*
X287305703Y-223187491D01*
X287312181Y-223193523D01*
X287383072Y-223264414D01*
X287523212Y-223366232D01*
X287677555Y-223444873D01*
X287842299Y-223498402D01*
X288013389Y-223525500D01*
X288013390Y-223525500D01*
X288186610Y-223525500D01*
X288186611Y-223525500D01*
X288357701Y-223498402D01*
X288522445Y-223444873D01*
X288676788Y-223366232D01*
X288816928Y-223264414D01*
X288939414Y-223141928D01*
X288999682Y-223058975D01*
X289055012Y-223016311D01*
X289124626Y-223010332D01*
X289186421Y-223042938D01*
X289200315Y-223058973D01*
X289260586Y-223141928D01*
X289383072Y-223264414D01*
X289523212Y-223366232D01*
X289677555Y-223444873D01*
X289842299Y-223498402D01*
X290013389Y-223525500D01*
X290013390Y-223525500D01*
X290186610Y-223525500D01*
X290186611Y-223525500D01*
X290357701Y-223498402D01*
X290522445Y-223444873D01*
X290676788Y-223366232D01*
X290816928Y-223264414D01*
X290939414Y-223141928D01*
X290999682Y-223058975D01*
X291055012Y-223016311D01*
X291124626Y-223010332D01*
X291186421Y-223042938D01*
X291200315Y-223058973D01*
X291260586Y-223141928D01*
X291383072Y-223264414D01*
X291523212Y-223366232D01*
X291677555Y-223444873D01*
X291842299Y-223498402D01*
X292013389Y-223525500D01*
X292013390Y-223525500D01*
X292186610Y-223525500D01*
X292186611Y-223525500D01*
X292357701Y-223498402D01*
X292522445Y-223444873D01*
X292676788Y-223366232D01*
X292816928Y-223264414D01*
X292939414Y-223141928D01*
X292999682Y-223058975D01*
X293055012Y-223016311D01*
X293124626Y-223010332D01*
X293186421Y-223042938D01*
X293200315Y-223058973D01*
X293260586Y-223141928D01*
X293383072Y-223264414D01*
X293523212Y-223366232D01*
X293677555Y-223444873D01*
X293842299Y-223498402D01*
X294013389Y-223525500D01*
X294013390Y-223525500D01*
X294186610Y-223525500D01*
X294186611Y-223525500D01*
X294357701Y-223498402D01*
X294522445Y-223444873D01*
X294676788Y-223366232D01*
X294816928Y-223264414D01*
X294939414Y-223141928D01*
X295041232Y-223001788D01*
X295119873Y-222847445D01*
X295173402Y-222682701D01*
X295200500Y-222511611D01*
X295200500Y-221788389D01*
X295173402Y-221617299D01*
X295119873Y-221452555D01*
X295041232Y-221298212D01*
X295041228Y-221298207D01*
X295041227Y-221298204D01*
X295033649Y-221287774D01*
X295010171Y-221221967D01*
X295025998Y-221153914D01*
X295046284Y-221127214D01*
X303669463Y-212504036D01*
X303669464Y-212504035D01*
X303768013Y-212356547D01*
X303835894Y-212192666D01*
X303847772Y-212132951D01*
X303870500Y-212018692D01*
X303870500Y-211841309D01*
X303870500Y-211096459D01*
X303890185Y-211029420D01*
X303891399Y-211027567D01*
X303914228Y-210993401D01*
X303914229Y-210993398D01*
X303914233Y-210993393D01*
X303994553Y-210799485D01*
X304018216Y-210680527D01*
X304035500Y-210593635D01*
X304035500Y-210383744D01*
X303994554Y-210177900D01*
X303994553Y-210177899D01*
X303994553Y-210177895D01*
X303954393Y-210080941D01*
X303914234Y-209983988D01*
X303797626Y-209809471D01*
X303649218Y-209661063D01*
X303474701Y-209544455D01*
X303280795Y-209464137D01*
X303280789Y-209464135D01*
X303074945Y-209423190D01*
X303074943Y-209423190D01*
X302865057Y-209423190D01*
X302865055Y-209423190D01*
X302659210Y-209464135D01*
X302659204Y-209464137D01*
X302465298Y-209544455D01*
X302290781Y-209661063D01*
X302142373Y-209809471D01*
X302025765Y-209983988D01*
X301945447Y-210177894D01*
X301945445Y-210177900D01*
X301904500Y-210383744D01*
X301904500Y-210383747D01*
X301904500Y-210593633D01*
X301904500Y-210593635D01*
X301904499Y-210593635D01*
X301945445Y-210799479D01*
X301945447Y-210799485D01*
X302025765Y-210993389D01*
X302025771Y-210993401D01*
X302048601Y-211027567D01*
X302069480Y-211094244D01*
X302069500Y-211096459D01*
X302069500Y-211505637D01*
X302049815Y-211572676D01*
X302033181Y-211593318D01*
X293400538Y-220225960D01*
X293400537Y-220225961D01*
X293363193Y-220281852D01*
X293361063Y-220285040D01*
X293301987Y-220373453D01*
X293285745Y-220412666D01*
X293282551Y-220420374D01*
X293282550Y-220420378D01*
X293239061Y-220525370D01*
X293195219Y-220579773D01*
X293128925Y-220601837D01*
X293061226Y-220584557D01*
X293013616Y-220533420D01*
X293000500Y-220477916D01*
X293000500Y-211303050D01*
X293020185Y-211236011D01*
X293036814Y-211215374D01*
X295236991Y-209015196D01*
X295298312Y-208981713D01*
X295300383Y-208981281D01*
X295340795Y-208973243D01*
X295534703Y-208892923D01*
X295709216Y-208776318D01*
X295857628Y-208627906D01*
X295974233Y-208453393D01*
X295977918Y-208444498D01*
X296013473Y-208358659D01*
X296054553Y-208259485D01*
X296085184Y-208105495D01*
X296095500Y-208053635D01*
X301904499Y-208053635D01*
X301945445Y-208259479D01*
X301945447Y-208259485D01*
X302025765Y-208453391D01*
X302142373Y-208627908D01*
X302290781Y-208776316D01*
X302465298Y-208892924D01*
X302540125Y-208923918D01*
X302659205Y-208973243D01*
X302659209Y-208973243D01*
X302659210Y-208973244D01*
X302865054Y-209014190D01*
X302865057Y-209014190D01*
X303074945Y-209014190D01*
X303240486Y-208981261D01*
X303280795Y-208973243D01*
X303474703Y-208892923D01*
X303649216Y-208776318D01*
X303797628Y-208627906D01*
X303914233Y-208453393D01*
X303917918Y-208444498D01*
X303953473Y-208358659D01*
X303994553Y-208259485D01*
X304025184Y-208105495D01*
X304035500Y-208053635D01*
X304035500Y-207843744D01*
X303994553Y-207637895D01*
X303949173Y-207528339D01*
X303914234Y-207443988D01*
X303797626Y-207269471D01*
X303649218Y-207121063D01*
X303474701Y-207004455D01*
X303280795Y-206924137D01*
X303280789Y-206924135D01*
X303074945Y-206883190D01*
X303074943Y-206883190D01*
X302865057Y-206883190D01*
X302865055Y-206883190D01*
X302659210Y-206924135D01*
X302659204Y-206924137D01*
X302465298Y-207004455D01*
X302290781Y-207121063D01*
X302142373Y-207269471D01*
X302025765Y-207443988D01*
X301945447Y-207637894D01*
X301945447Y-207637895D01*
X301904500Y-207843744D01*
X301904500Y-207843747D01*
X301904500Y-208053633D01*
X301904500Y-208053635D01*
X301904499Y-208053635D01*
X296095500Y-208053635D01*
X296095500Y-207843744D01*
X296054553Y-207637895D01*
X296009173Y-207528339D01*
X295974234Y-207443988D01*
X295857626Y-207269471D01*
X295709218Y-207121063D01*
X295534701Y-207004455D01*
X295340795Y-206924137D01*
X295340789Y-206924135D01*
X295134945Y-206883190D01*
X295134943Y-206883190D01*
X294925057Y-206883190D01*
X294925055Y-206883190D01*
X294719210Y-206924135D01*
X294719204Y-206924137D01*
X294525298Y-207004455D01*
X294350781Y-207121063D01*
X294202373Y-207269471D01*
X294085765Y-207443988D01*
X294005447Y-207637895D01*
X293997427Y-207678210D01*
X293965041Y-207740120D01*
X293963491Y-207741698D01*
X291400538Y-210304651D01*
X291400532Y-210304659D01*
X291384149Y-210329178D01*
X291384143Y-210329187D01*
X291381629Y-210332951D01*
X291301987Y-210452143D01*
X291271361Y-210526082D01*
X291268433Y-210533149D01*
X291268431Y-210533154D01*
X291239061Y-210604059D01*
X291195219Y-210658463D01*
X291128925Y-210680527D01*
X291061226Y-210663247D01*
X291013616Y-210612110D01*
X291000500Y-210556606D01*
X291000500Y-205513635D01*
X293964499Y-205513635D01*
X294005445Y-205719479D01*
X294005447Y-205719485D01*
X294085765Y-205913391D01*
X294202373Y-206087908D01*
X294350781Y-206236316D01*
X294525298Y-206352924D01*
X294622251Y-206393083D01*
X294719205Y-206433243D01*
X294719209Y-206433243D01*
X294719210Y-206433244D01*
X294925054Y-206474190D01*
X294925057Y-206474190D01*
X295134945Y-206474190D01*
X295273433Y-206446642D01*
X295340795Y-206433243D01*
X295534703Y-206352923D01*
X295709216Y-206236318D01*
X295857628Y-206087906D01*
X295974233Y-205913393D01*
X296054553Y-205719485D01*
X296095500Y-205513635D01*
X301904499Y-205513635D01*
X301945445Y-205719479D01*
X301945447Y-205719485D01*
X302025765Y-205913391D01*
X302142373Y-206087908D01*
X302290781Y-206236316D01*
X302465298Y-206352924D01*
X302562251Y-206393083D01*
X302659205Y-206433243D01*
X302659209Y-206433243D01*
X302659210Y-206433244D01*
X302865054Y-206474190D01*
X302865057Y-206474190D01*
X303074945Y-206474190D01*
X303213433Y-206446642D01*
X303280795Y-206433243D01*
X303474703Y-206352923D01*
X303649216Y-206236318D01*
X303797628Y-206087906D01*
X303914233Y-205913393D01*
X303994553Y-205719485D01*
X304035500Y-205513633D01*
X304035500Y-205303747D01*
X304035500Y-205303744D01*
X303994554Y-205097900D01*
X303994553Y-205097899D01*
X303994553Y-205097895D01*
X303954393Y-205000941D01*
X303914234Y-204903988D01*
X303797626Y-204729471D01*
X303649218Y-204581063D01*
X303474701Y-204464455D01*
X303280795Y-204384137D01*
X303280789Y-204384135D01*
X303074945Y-204343190D01*
X303074943Y-204343190D01*
X302865057Y-204343190D01*
X302865055Y-204343190D01*
X302659210Y-204384135D01*
X302659204Y-204384137D01*
X302465298Y-204464455D01*
X302290781Y-204581063D01*
X302142373Y-204729471D01*
X302025765Y-204903988D01*
X301945447Y-205097894D01*
X301945445Y-205097900D01*
X301904500Y-205303744D01*
X301904500Y-205303747D01*
X301904500Y-205513633D01*
X301904500Y-205513635D01*
X301904499Y-205513635D01*
X296095500Y-205513635D01*
X296095500Y-205513633D01*
X296095500Y-205303747D01*
X296095500Y-205303744D01*
X296054554Y-205097900D01*
X296054553Y-205097899D01*
X296054553Y-205097895D01*
X296014393Y-205000941D01*
X295974234Y-204903988D01*
X295857626Y-204729471D01*
X295709218Y-204581063D01*
X295534701Y-204464455D01*
X295340795Y-204384137D01*
X295340789Y-204384135D01*
X295134945Y-204343190D01*
X295134943Y-204343190D01*
X294925057Y-204343190D01*
X294925055Y-204343190D01*
X294719210Y-204384135D01*
X294719204Y-204384137D01*
X294525298Y-204464455D01*
X294350781Y-204581063D01*
X294202373Y-204729471D01*
X294085765Y-204903988D01*
X294005447Y-205097894D01*
X294005445Y-205097900D01*
X293964500Y-205303744D01*
X293964500Y-205303747D01*
X293964500Y-205513633D01*
X293964500Y-205513635D01*
X293964499Y-205513635D01*
X291000500Y-205513635D01*
X291000500Y-202255825D01*
X293964500Y-202255825D01*
X293964500Y-203481560D01*
X293964501Y-203481566D01*
X293970908Y-203541173D01*
X294021202Y-203676018D01*
X294021206Y-203676025D01*
X294107452Y-203791234D01*
X294107455Y-203791237D01*
X294222664Y-203877483D01*
X294222671Y-203877487D01*
X294357517Y-203927781D01*
X294357516Y-203927781D01*
X294364444Y-203928525D01*
X294417127Y-203934190D01*
X295642872Y-203934189D01*
X295702483Y-203927781D01*
X295837331Y-203877486D01*
X295952546Y-203791236D01*
X296038796Y-203676021D01*
X296089091Y-203541173D01*
X296095500Y-203481563D01*
X296095499Y-202255818D01*
X296089091Y-202196207D01*
X296038796Y-202061359D01*
X296038795Y-202061358D01*
X296038793Y-202061354D01*
X295952547Y-201946145D01*
X295952544Y-201946142D01*
X295837335Y-201859896D01*
X295837328Y-201859892D01*
X295702482Y-201809598D01*
X295702483Y-201809598D01*
X295642883Y-201803191D01*
X295642881Y-201803190D01*
X295642873Y-201803190D01*
X295642864Y-201803190D01*
X294417129Y-201803190D01*
X294417123Y-201803191D01*
X294357516Y-201809598D01*
X294222671Y-201859892D01*
X294222664Y-201859896D01*
X294107455Y-201946142D01*
X294107452Y-201946145D01*
X294021206Y-202061354D01*
X294021202Y-202061361D01*
X293970908Y-202196207D01*
X293964501Y-202255806D01*
X293964501Y-202255813D01*
X293964500Y-202255825D01*
X291000500Y-202255825D01*
X291000500Y-163105675D01*
X296954500Y-163105675D01*
X296954500Y-163314324D01*
X296987137Y-163520389D01*
X297051612Y-163718820D01*
X297146330Y-163904714D01*
X297268965Y-164073505D01*
X297416495Y-164221035D01*
X297585286Y-164343670D01*
X297673116Y-164388421D01*
X297771179Y-164438387D01*
X297771181Y-164438387D01*
X297771184Y-164438389D01*
X297877545Y-164472948D01*
X297969610Y-164502862D01*
X298175676Y-164535500D01*
X298175681Y-164535500D01*
X298384324Y-164535500D01*
X298590389Y-164502862D01*
X298788816Y-164438389D01*
X298974714Y-164343670D01*
X299143505Y-164221035D01*
X299291035Y-164073505D01*
X299413670Y-163904714D01*
X299508389Y-163718816D01*
X299572862Y-163520389D01*
X299605500Y-163314324D01*
X299605500Y-163105675D01*
X312194500Y-163105675D01*
X312194500Y-163314324D01*
X312227137Y-163520389D01*
X312291612Y-163718820D01*
X312386330Y-163904714D01*
X312508965Y-164073505D01*
X312656495Y-164221035D01*
X312825286Y-164343670D01*
X312913116Y-164388421D01*
X313011179Y-164438387D01*
X313011181Y-164438387D01*
X313011184Y-164438389D01*
X313117545Y-164472948D01*
X313209610Y-164502862D01*
X313415676Y-164535500D01*
X313415681Y-164535500D01*
X313624324Y-164535500D01*
X313830389Y-164502862D01*
X314028816Y-164438389D01*
X314214714Y-164343670D01*
X314383505Y-164221035D01*
X314531035Y-164073505D01*
X314653670Y-163904714D01*
X314748389Y-163718816D01*
X314812862Y-163520389D01*
X314845500Y-163314324D01*
X314845500Y-163105675D01*
X314812862Y-162899610D01*
X314748387Y-162701179D01*
X314653669Y-162515285D01*
X314531035Y-162346495D01*
X314383505Y-162198965D01*
X314214714Y-162076330D01*
X314187039Y-162062229D01*
X314028820Y-161981612D01*
X313830389Y-161917137D01*
X313624324Y-161884500D01*
X313624319Y-161884500D01*
X313415681Y-161884500D01*
X313415676Y-161884500D01*
X313209610Y-161917137D01*
X313011179Y-161981612D01*
X312825285Y-162076330D01*
X312656493Y-162198966D01*
X312508966Y-162346493D01*
X312386330Y-162515285D01*
X312291612Y-162701179D01*
X312227137Y-162899610D01*
X312194500Y-163105675D01*
X299605500Y-163105675D01*
X299572862Y-162899610D01*
X299508387Y-162701179D01*
X299413669Y-162515285D01*
X299291035Y-162346495D01*
X299143505Y-162198965D01*
X298974714Y-162076330D01*
X298947039Y-162062229D01*
X298788820Y-161981612D01*
X298590389Y-161917137D01*
X298384324Y-161884500D01*
X298384319Y-161884500D01*
X298175681Y-161884500D01*
X298175676Y-161884500D01*
X297969610Y-161917137D01*
X297771179Y-161981612D01*
X297585285Y-162076330D01*
X297416493Y-162198966D01*
X297268966Y-162346493D01*
X297146330Y-162515285D01*
X297051612Y-162701179D01*
X296987137Y-162899610D01*
X296954500Y-163105675D01*
X291000500Y-163105675D01*
X291000500Y-158574361D01*
X291020185Y-158507322D01*
X291036819Y-158486680D01*
X303669461Y-145854038D01*
X303669464Y-145854035D01*
X303768013Y-145706547D01*
X303787895Y-145658547D01*
X303835895Y-145542666D01*
X303870500Y-145368691D01*
X303870500Y-145191308D01*
X303870500Y-144467769D01*
X303890185Y-144400730D01*
X303891399Y-144398877D01*
X303914228Y-144364711D01*
X303914229Y-144364708D01*
X303914233Y-144364703D01*
X303994553Y-144170795D01*
X304030395Y-143990609D01*
X304035500Y-143964945D01*
X304035500Y-143755054D01*
X303994554Y-143549210D01*
X303994553Y-143549209D01*
X303994553Y-143549205D01*
X303954393Y-143452251D01*
X303914234Y-143355298D01*
X303797626Y-143180781D01*
X303649218Y-143032373D01*
X303474701Y-142915765D01*
X303280795Y-142835447D01*
X303280789Y-142835445D01*
X303074945Y-142794500D01*
X303074943Y-142794500D01*
X302865057Y-142794500D01*
X302865055Y-142794500D01*
X302659210Y-142835445D01*
X302659204Y-142835447D01*
X302465298Y-142915765D01*
X302290781Y-143032373D01*
X302142373Y-143180781D01*
X302025765Y-143355298D01*
X301945447Y-143549204D01*
X301945445Y-143549210D01*
X301904500Y-143755054D01*
X301904500Y-143755057D01*
X301904500Y-143964943D01*
X301904500Y-143964945D01*
X301904499Y-143964945D01*
X301945445Y-144170789D01*
X301945447Y-144170795D01*
X302025765Y-144364699D01*
X302025771Y-144364711D01*
X302048601Y-144398877D01*
X302069480Y-144465554D01*
X302069500Y-144467769D01*
X302069500Y-144855637D01*
X302049815Y-144922676D01*
X302033181Y-144943318D01*
X289400540Y-157575958D01*
X289400537Y-157575961D01*
X289388521Y-157593946D01*
X289301988Y-157723449D01*
X289301987Y-157723452D01*
X289279222Y-157778411D01*
X289279221Y-157778415D01*
X289279221Y-157778416D01*
X289266939Y-157808067D01*
X289239061Y-157875370D01*
X289195219Y-157929773D01*
X289128925Y-157951837D01*
X289061226Y-157934557D01*
X289013616Y-157883420D01*
X289000500Y-157827916D01*
X289000500Y-148674361D01*
X289020185Y-148607322D01*
X289036814Y-148586685D01*
X295236992Y-142386506D01*
X295298313Y-142353023D01*
X295300393Y-142352589D01*
X295340795Y-142344553D01*
X295534703Y-142264233D01*
X295709216Y-142147628D01*
X295857628Y-141999216D01*
X295974233Y-141824703D01*
X296054553Y-141630795D01*
X296095500Y-141424945D01*
X301904499Y-141424945D01*
X301945445Y-141630789D01*
X301945447Y-141630795D01*
X302025765Y-141824701D01*
X302142373Y-141999218D01*
X302290781Y-142147626D01*
X302465298Y-142264234D01*
X302562251Y-142304393D01*
X302659205Y-142344553D01*
X302659209Y-142344553D01*
X302659210Y-142344554D01*
X302865054Y-142385500D01*
X302865057Y-142385500D01*
X303074945Y-142385500D01*
X303240486Y-142352571D01*
X303280795Y-142344553D01*
X303474703Y-142264233D01*
X303649216Y-142147628D01*
X303797628Y-141999216D01*
X303914233Y-141824703D01*
X303994553Y-141630795D01*
X304035500Y-141424943D01*
X304035500Y-141215057D01*
X304035500Y-141215054D01*
X303994554Y-141009210D01*
X303994553Y-141009209D01*
X303994553Y-141009205D01*
X303935372Y-140866330D01*
X303914234Y-140815298D01*
X303797626Y-140640781D01*
X303649218Y-140492373D01*
X303474701Y-140375765D01*
X303280795Y-140295447D01*
X303280789Y-140295445D01*
X303074945Y-140254500D01*
X303074943Y-140254500D01*
X302865057Y-140254500D01*
X302865055Y-140254500D01*
X302659210Y-140295445D01*
X302659204Y-140295447D01*
X302465298Y-140375765D01*
X302290781Y-140492373D01*
X302142373Y-140640781D01*
X302025765Y-140815298D01*
X301945447Y-141009204D01*
X301945445Y-141009210D01*
X301904500Y-141215054D01*
X301904500Y-141215057D01*
X301904500Y-141424943D01*
X301904500Y-141424945D01*
X301904499Y-141424945D01*
X296095500Y-141424945D01*
X296095500Y-141424943D01*
X296095500Y-141215057D01*
X296095500Y-141215054D01*
X296054554Y-141009210D01*
X296054553Y-141009209D01*
X296054553Y-141009205D01*
X295995372Y-140866330D01*
X295974234Y-140815298D01*
X295857626Y-140640781D01*
X295709218Y-140492373D01*
X295534701Y-140375765D01*
X295340795Y-140295447D01*
X295340789Y-140295445D01*
X295134945Y-140254500D01*
X295134943Y-140254500D01*
X294925057Y-140254500D01*
X294925055Y-140254500D01*
X294719210Y-140295445D01*
X294719204Y-140295447D01*
X294525298Y-140375765D01*
X294350781Y-140492373D01*
X294202373Y-140640781D01*
X294085765Y-140815298D01*
X294005446Y-141009206D01*
X294005445Y-141009208D01*
X293997427Y-141049519D01*
X293965041Y-141111430D01*
X293963491Y-141113007D01*
X287400535Y-147675964D01*
X287400533Y-147675966D01*
X287383687Y-147701181D01*
X287383685Y-147701184D01*
X287301988Y-147823449D01*
X287270442Y-147899610D01*
X287234105Y-147987333D01*
X287234103Y-147987341D01*
X287210564Y-148105679D01*
X287210565Y-148105680D01*
X287199500Y-148161310D01*
X287199500Y-220913770D01*
X287179815Y-220980809D01*
X287127011Y-221026564D01*
X287057853Y-221036508D01*
X286994297Y-221007483D01*
X286987819Y-221001451D01*
X286918657Y-220932289D01*
X286918656Y-220932288D01*
X286769334Y-220840186D01*
X286602797Y-220785001D01*
X286602795Y-220785000D01*
X286500010Y-220774500D01*
X285699998Y-220774500D01*
X285699980Y-220774501D01*
X285597203Y-220785000D01*
X285597200Y-220785001D01*
X285430668Y-220840185D01*
X285430663Y-220840187D01*
X285281342Y-220932289D01*
X285157289Y-221056342D01*
X285065187Y-221205663D01*
X285065185Y-221205668D01*
X285051403Y-221247259D01*
X285010001Y-221372203D01*
X285010001Y-221372204D01*
X285010000Y-221372204D01*
X284999500Y-221474983D01*
X268573622Y-221474983D01*
X268559983Y-221448213D01*
X268527359Y-221403311D01*
X268458164Y-221308072D01*
X268405569Y-221255477D01*
X268372084Y-221194154D01*
X268369250Y-221167796D01*
X268369250Y-218293479D01*
X268388935Y-218226440D01*
X268405569Y-218205798D01*
X268974548Y-217636819D01*
X269035871Y-217603334D01*
X269062229Y-217600500D01*
X275773920Y-217600500D01*
X275898316Y-217575755D01*
X275918913Y-217571658D01*
X276055495Y-217515084D01*
X276104729Y-217482186D01*
X276178416Y-217432952D01*
X285382951Y-208228416D01*
X285465084Y-208105495D01*
X285521658Y-207968913D01*
X285546556Y-207843747D01*
X285550500Y-207823920D01*
X285550500Y-138884945D01*
X293964499Y-138884945D01*
X294005445Y-139090789D01*
X294005447Y-139090795D01*
X294085765Y-139284701D01*
X294202373Y-139459218D01*
X294350781Y-139607626D01*
X294525298Y-139724234D01*
X294622251Y-139764393D01*
X294719205Y-139804553D01*
X294719209Y-139804553D01*
X294719210Y-139804554D01*
X294925054Y-139845500D01*
X294925057Y-139845500D01*
X295134945Y-139845500D01*
X295273433Y-139817952D01*
X295340795Y-139804553D01*
X295534703Y-139724233D01*
X295709216Y-139607628D01*
X295857628Y-139459216D01*
X295974233Y-139284703D01*
X296054553Y-139090795D01*
X296095500Y-138884945D01*
X301904499Y-138884945D01*
X301945445Y-139090789D01*
X301945447Y-139090795D01*
X302025765Y-139284701D01*
X302142373Y-139459218D01*
X302290781Y-139607626D01*
X302465298Y-139724234D01*
X302562251Y-139764393D01*
X302659205Y-139804553D01*
X302659209Y-139804553D01*
X302659210Y-139804554D01*
X302865054Y-139845500D01*
X302865057Y-139845500D01*
X303074945Y-139845500D01*
X303213433Y-139817952D01*
X303280795Y-139804553D01*
X303474703Y-139724233D01*
X303649216Y-139607628D01*
X303797628Y-139459216D01*
X303914233Y-139284703D01*
X303994553Y-139090795D01*
X304035500Y-138884943D01*
X304035500Y-138675057D01*
X304035500Y-138675054D01*
X303994554Y-138469210D01*
X303994553Y-138469209D01*
X303994553Y-138469205D01*
X303954393Y-138372251D01*
X303914234Y-138275298D01*
X303797626Y-138100781D01*
X303649218Y-137952373D01*
X303474701Y-137835765D01*
X303280795Y-137755447D01*
X303280789Y-137755445D01*
X303074945Y-137714500D01*
X303074943Y-137714500D01*
X302865057Y-137714500D01*
X302865055Y-137714500D01*
X302659210Y-137755445D01*
X302659204Y-137755447D01*
X302465298Y-137835765D01*
X302290781Y-137952373D01*
X302142373Y-138100781D01*
X302025765Y-138275298D01*
X301945447Y-138469204D01*
X301945445Y-138469210D01*
X301904500Y-138675054D01*
X301904500Y-138675057D01*
X301904500Y-138884943D01*
X301904500Y-138884945D01*
X301904499Y-138884945D01*
X296095500Y-138884945D01*
X296095500Y-138884943D01*
X296095500Y-138675057D01*
X296095500Y-138675054D01*
X296054554Y-138469210D01*
X296054553Y-138469209D01*
X296054553Y-138469205D01*
X296014393Y-138372251D01*
X295974234Y-138275298D01*
X295857626Y-138100781D01*
X295709218Y-137952373D01*
X295534701Y-137835765D01*
X295340795Y-137755447D01*
X295340789Y-137755445D01*
X295134945Y-137714500D01*
X295134943Y-137714500D01*
X294925057Y-137714500D01*
X294925055Y-137714500D01*
X294719210Y-137755445D01*
X294719204Y-137755447D01*
X294525298Y-137835765D01*
X294350781Y-137952373D01*
X294202373Y-138100781D01*
X294085765Y-138275298D01*
X294005447Y-138469204D01*
X294005445Y-138469210D01*
X293964500Y-138675054D01*
X293964500Y-138675057D01*
X293964500Y-138884943D01*
X293964500Y-138884945D01*
X293964499Y-138884945D01*
X285550500Y-138884945D01*
X285550500Y-135627135D01*
X293964500Y-135627135D01*
X293964500Y-136852870D01*
X293964501Y-136852876D01*
X293970908Y-136912483D01*
X294021202Y-137047328D01*
X294021206Y-137047335D01*
X294107452Y-137162544D01*
X294107455Y-137162547D01*
X294222664Y-137248793D01*
X294222671Y-137248797D01*
X294357517Y-137299091D01*
X294357516Y-137299091D01*
X294364444Y-137299835D01*
X294417127Y-137305500D01*
X295642872Y-137305499D01*
X295702483Y-137299091D01*
X295837331Y-137248796D01*
X295952546Y-137162546D01*
X296038796Y-137047331D01*
X296089091Y-136912483D01*
X296095500Y-136852873D01*
X296095499Y-135627128D01*
X296089091Y-135567517D01*
X296074431Y-135528212D01*
X296038797Y-135432671D01*
X296038793Y-135432664D01*
X295952547Y-135317455D01*
X295952544Y-135317452D01*
X295837335Y-135231206D01*
X295837328Y-135231202D01*
X295702482Y-135180908D01*
X295702483Y-135180908D01*
X295642883Y-135174501D01*
X295642881Y-135174500D01*
X295642873Y-135174500D01*
X295642864Y-135174500D01*
X294417129Y-135174500D01*
X294417123Y-135174501D01*
X294357516Y-135180908D01*
X294222671Y-135231202D01*
X294222664Y-135231206D01*
X294107455Y-135317452D01*
X294107452Y-135317455D01*
X294021206Y-135432664D01*
X294021202Y-135432671D01*
X293970908Y-135567517D01*
X293965423Y-135618542D01*
X293964501Y-135627123D01*
X293964500Y-135627135D01*
X285550500Y-135627135D01*
X285550500Y-120345675D01*
X323554500Y-120345675D01*
X323554500Y-120554324D01*
X323587137Y-120760389D01*
X323651612Y-120958820D01*
X323746330Y-121144714D01*
X323868965Y-121313505D01*
X324016495Y-121461035D01*
X324185286Y-121583670D01*
X324273116Y-121628421D01*
X324371179Y-121678387D01*
X324371181Y-121678387D01*
X324371184Y-121678389D01*
X324477545Y-121712948D01*
X324569610Y-121742862D01*
X324775676Y-121775500D01*
X324775681Y-121775500D01*
X324984324Y-121775500D01*
X325190389Y-121742862D01*
X325388816Y-121678389D01*
X325574714Y-121583670D01*
X325743505Y-121461035D01*
X325891035Y-121313505D01*
X326013670Y-121144714D01*
X326108389Y-120958816D01*
X326172862Y-120760389D01*
X326205500Y-120554324D01*
X326205500Y-120345675D01*
X338774500Y-120345675D01*
X338774500Y-120554324D01*
X338807137Y-120760389D01*
X338871612Y-120958820D01*
X338966330Y-121144714D01*
X339088965Y-121313505D01*
X339236495Y-121461035D01*
X339405286Y-121583670D01*
X339493116Y-121628421D01*
X339591179Y-121678387D01*
X339591181Y-121678387D01*
X339591184Y-121678389D01*
X339697545Y-121712948D01*
X339789610Y-121742862D01*
X339995676Y-121775500D01*
X339995681Y-121775500D01*
X340204324Y-121775500D01*
X340410389Y-121742862D01*
X340608816Y-121678389D01*
X340794714Y-121583670D01*
X340963505Y-121461035D01*
X341111035Y-121313505D01*
X341233670Y-121144714D01*
X341328389Y-120958816D01*
X341392862Y-120760389D01*
X341425500Y-120554324D01*
X341425500Y-120345675D01*
X341392862Y-120139610D01*
X341328387Y-119941179D01*
X341233669Y-119755285D01*
X341111035Y-119586495D01*
X340963505Y-119438965D01*
X340794714Y-119316330D01*
X340608820Y-119221612D01*
X340410389Y-119157137D01*
X340204324Y-119124500D01*
X340204319Y-119124500D01*
X339995681Y-119124500D01*
X339995676Y-119124500D01*
X339789610Y-119157137D01*
X339591179Y-119221612D01*
X339405285Y-119316330D01*
X339236493Y-119438966D01*
X339088966Y-119586493D01*
X338966330Y-119755285D01*
X338871612Y-119941179D01*
X338807137Y-120139610D01*
X338774500Y-120345675D01*
X326205500Y-120345675D01*
X326172862Y-120139610D01*
X326108387Y-119941179D01*
X326013669Y-119755285D01*
X325891035Y-119586495D01*
X325743505Y-119438965D01*
X325574714Y-119316330D01*
X325388820Y-119221612D01*
X325190389Y-119157137D01*
X324984324Y-119124500D01*
X324984319Y-119124500D01*
X324775681Y-119124500D01*
X324775676Y-119124500D01*
X324569610Y-119157137D01*
X324371179Y-119221612D01*
X324185285Y-119316330D01*
X324016493Y-119438966D01*
X323868966Y-119586493D01*
X323746330Y-119755285D01*
X323651612Y-119941179D01*
X323587137Y-120139610D01*
X323554500Y-120345675D01*
X285550500Y-120345675D01*
X285550500Y-113876079D01*
X285521659Y-113731092D01*
X285521658Y-113731091D01*
X285521658Y-113731087D01*
X285465084Y-113594505D01*
X285432186Y-113545270D01*
X285432185Y-113545268D01*
X285382956Y-113471589D01*
X285382952Y-113471584D01*
X273628421Y-101717052D01*
X273628414Y-101717046D01*
X273535966Y-101655275D01*
X273535966Y-101655276D01*
X273505495Y-101634916D01*
X273505492Y-101634914D01*
X273505491Y-101634914D01*
X273368917Y-101578343D01*
X273368907Y-101578340D01*
X273223920Y-101549500D01*
X273223918Y-101549500D01*
X268543250Y-101549500D01*
X268476211Y-101529815D01*
X268430456Y-101477011D01*
X268419250Y-101425500D01*
X268419250Y-96882204D01*
X268438935Y-96815165D01*
X268455569Y-96794523D01*
X268508164Y-96741928D01*
X268567198Y-96660675D01*
X297274500Y-96660675D01*
X297274500Y-96869324D01*
X297307137Y-97075389D01*
X297371612Y-97273820D01*
X297466330Y-97459714D01*
X297588965Y-97628505D01*
X297736495Y-97776035D01*
X297905286Y-97898670D01*
X297993116Y-97943421D01*
X298091179Y-97993387D01*
X298091181Y-97993387D01*
X298091184Y-97993389D01*
X298197545Y-98027948D01*
X298289610Y-98057862D01*
X298495676Y-98090500D01*
X298495681Y-98090500D01*
X298704324Y-98090500D01*
X298910389Y-98057862D01*
X299108816Y-97993389D01*
X299294714Y-97898670D01*
X299463505Y-97776035D01*
X299611035Y-97628505D01*
X299733670Y-97459714D01*
X299828389Y-97273816D01*
X299892862Y-97075389D01*
X299925500Y-96869324D01*
X299925500Y-96660675D01*
X312494500Y-96660675D01*
X312494500Y-96869324D01*
X312527137Y-97075389D01*
X312591612Y-97273820D01*
X312686330Y-97459714D01*
X312808965Y-97628505D01*
X312956495Y-97776035D01*
X313125286Y-97898670D01*
X313213116Y-97943421D01*
X313311179Y-97993387D01*
X313311181Y-97993387D01*
X313311184Y-97993389D01*
X313417545Y-98027948D01*
X313509610Y-98057862D01*
X313715676Y-98090500D01*
X313715681Y-98090500D01*
X313924324Y-98090500D01*
X314130389Y-98057862D01*
X314328816Y-97993389D01*
X314514714Y-97898670D01*
X314683505Y-97776035D01*
X314831035Y-97628505D01*
X314953670Y-97459714D01*
X315048389Y-97273816D01*
X315112862Y-97075389D01*
X315145500Y-96869324D01*
X315145500Y-96660675D01*
X315112862Y-96454610D01*
X315057005Y-96282701D01*
X315048389Y-96256184D01*
X315048387Y-96256181D01*
X315048387Y-96256179D01*
X314953669Y-96070285D01*
X314831035Y-95901495D01*
X314683505Y-95753965D01*
X314514714Y-95631330D01*
X314328820Y-95536612D01*
X314130389Y-95472137D01*
X313924324Y-95439500D01*
X313924319Y-95439500D01*
X313715681Y-95439500D01*
X313715676Y-95439500D01*
X313509610Y-95472137D01*
X313311179Y-95536612D01*
X313125285Y-95631330D01*
X312956493Y-95753966D01*
X312808966Y-95901493D01*
X312686330Y-96070285D01*
X312591612Y-96256179D01*
X312527137Y-96454610D01*
X312494500Y-96660675D01*
X299925500Y-96660675D01*
X299892862Y-96454610D01*
X299837005Y-96282701D01*
X299828389Y-96256184D01*
X299828387Y-96256181D01*
X299828387Y-96256179D01*
X299733669Y-96070285D01*
X299611035Y-95901495D01*
X299463505Y-95753965D01*
X299294714Y-95631330D01*
X299108820Y-95536612D01*
X298910389Y-95472137D01*
X298704324Y-95439500D01*
X298704319Y-95439500D01*
X298495681Y-95439500D01*
X298495676Y-95439500D01*
X298289610Y-95472137D01*
X298091179Y-95536612D01*
X297905285Y-95631330D01*
X297736493Y-95753966D01*
X297588966Y-95901493D01*
X297466330Y-96070285D01*
X297371612Y-96256179D01*
X297307137Y-96454610D01*
X297274500Y-96660675D01*
X268567198Y-96660675D01*
X268609982Y-96601788D01*
X268688623Y-96447445D01*
X268742152Y-96282701D01*
X268769250Y-96111611D01*
X268769250Y-95388389D01*
X268742152Y-95217299D01*
X268688623Y-95052555D01*
X268609982Y-94898212D01*
X268508164Y-94758072D01*
X268385678Y-94635586D01*
X268245538Y-94533768D01*
X268091195Y-94455127D01*
X267926451Y-94401598D01*
X267926449Y-94401597D01*
X267926448Y-94401597D01*
X267795021Y-94380781D01*
X267755361Y-94374500D01*
X267582139Y-94374500D01*
X267542478Y-94380781D01*
X267411052Y-94401597D01*
X267246302Y-94455128D01*
X267091961Y-94533768D01*
X267012006Y-94591859D01*
X266951822Y-94635586D01*
X266951820Y-94635588D01*
X266951819Y-94635588D01*
X266829338Y-94758069D01*
X266829331Y-94758078D01*
X266769067Y-94841023D01*
X266713737Y-94883689D01*
X266644124Y-94889667D01*
X266582329Y-94857061D01*
X266568433Y-94841023D01*
X266508168Y-94758078D01*
X266508164Y-94758072D01*
X266385678Y-94635586D01*
X266245538Y-94533768D01*
X266091195Y-94455127D01*
X265926451Y-94401598D01*
X265926449Y-94401597D01*
X265926448Y-94401597D01*
X265795021Y-94380781D01*
X265755361Y-94374500D01*
X265582139Y-94374500D01*
X265542478Y-94380781D01*
X265411052Y-94401597D01*
X265246302Y-94455128D01*
X265091961Y-94533768D01*
X265012006Y-94591859D01*
X264951822Y-94635586D01*
X264951820Y-94635588D01*
X264951819Y-94635588D01*
X264829338Y-94758069D01*
X264829331Y-94758078D01*
X264769067Y-94841023D01*
X264713737Y-94883689D01*
X264644124Y-94889667D01*
X264582329Y-94857061D01*
X264568433Y-94841023D01*
X264508168Y-94758078D01*
X264508164Y-94758072D01*
X264385678Y-94635586D01*
X264245538Y-94533768D01*
X264091195Y-94455127D01*
X263926451Y-94401598D01*
X263926449Y-94401597D01*
X263926448Y-94401597D01*
X263795021Y-94380781D01*
X263755361Y-94374500D01*
X263582139Y-94374500D01*
X263542478Y-94380781D01*
X263411052Y-94401597D01*
X263246302Y-94455128D01*
X263091961Y-94533768D01*
X263012006Y-94591859D01*
X262951822Y-94635586D01*
X262951820Y-94635588D01*
X262951819Y-94635588D01*
X262829338Y-94758069D01*
X262829331Y-94758078D01*
X262769067Y-94841023D01*
X262713737Y-94883689D01*
X262644124Y-94889667D01*
X262582329Y-94857061D01*
X262568433Y-94841023D01*
X262508168Y-94758078D01*
X262508164Y-94758072D01*
X262385678Y-94635586D01*
X262245538Y-94533768D01*
X262091195Y-94455127D01*
X261926451Y-94401598D01*
X261926449Y-94401597D01*
X261926448Y-94401597D01*
X261795021Y-94380781D01*
X261755361Y-94374500D01*
X261582139Y-94374500D01*
X261542478Y-94380781D01*
X261411052Y-94401597D01*
X261246302Y-94455128D01*
X261091961Y-94533768D01*
X261012006Y-94591859D01*
X260951822Y-94635586D01*
X260951820Y-94635588D01*
X260951819Y-94635588D01*
X260829338Y-94758069D01*
X260829331Y-94758078D01*
X260769067Y-94841023D01*
X260713737Y-94883689D01*
X260644124Y-94889667D01*
X260582329Y-94857061D01*
X260568433Y-94841023D01*
X260508168Y-94758078D01*
X260508164Y-94758072D01*
X260385678Y-94635586D01*
X260245538Y-94533768D01*
X260091195Y-94455127D01*
X259926451Y-94401598D01*
X259926449Y-94401597D01*
X259926448Y-94401597D01*
X259795021Y-94380781D01*
X259755361Y-94374500D01*
X259582139Y-94374500D01*
X259542478Y-94380781D01*
X259411052Y-94401597D01*
X259246302Y-94455128D01*
X259091961Y-94533768D01*
X259012006Y-94591859D01*
X258951822Y-94635586D01*
X258951820Y-94635588D01*
X258951819Y-94635588D01*
X258829338Y-94758069D01*
X258829331Y-94758078D01*
X258769067Y-94841023D01*
X258713737Y-94883689D01*
X258644124Y-94889667D01*
X258582329Y-94857061D01*
X258568433Y-94841023D01*
X258508168Y-94758078D01*
X258508164Y-94758072D01*
X258385678Y-94635586D01*
X258245538Y-94533768D01*
X258091195Y-94455127D01*
X257926451Y-94401598D01*
X257926449Y-94401597D01*
X257926448Y-94401597D01*
X257795021Y-94380781D01*
X257755361Y-94374500D01*
X257582139Y-94374500D01*
X257542478Y-94380781D01*
X257411052Y-94401597D01*
X257246302Y-94455128D01*
X257091961Y-94533768D01*
X257012006Y-94591859D01*
X256951822Y-94635586D01*
X256951820Y-94635588D01*
X256951819Y-94635588D01*
X256829338Y-94758069D01*
X256829338Y-94758070D01*
X256829336Y-94758072D01*
X256829332Y-94758078D01*
X256727518Y-94898211D01*
X256648878Y-95052552D01*
X256595347Y-95217302D01*
X256568250Y-95388389D01*
X256568250Y-96111611D01*
X256595348Y-96282701D01*
X256648877Y-96447445D01*
X256727518Y-96601788D01*
X256829336Y-96741928D01*
X256829338Y-96741930D01*
X256881931Y-96794523D01*
X256915416Y-96855846D01*
X256918250Y-96882204D01*
X256918250Y-100964684D01*
X256915867Y-100988876D01*
X256899500Y-101071155D01*
X256899500Y-101228846D01*
X256930261Y-101383489D01*
X256932031Y-101389324D01*
X256929279Y-101390158D01*
X256935503Y-101447359D01*
X256904309Y-101509878D01*
X256844266Y-101545608D01*
X256813445Y-101549500D01*
X228004604Y-101549500D01*
X227957155Y-101540062D01*
X227933497Y-101530263D01*
X227933493Y-101530262D01*
X227933488Y-101530260D01*
X227778845Y-101499500D01*
X227778842Y-101499500D01*
X227621158Y-101499500D01*
X227621155Y-101499500D01*
X227466510Y-101530261D01*
X227466498Y-101530264D01*
X227320827Y-101590602D01*
X227320814Y-101590609D01*
X227189711Y-101678210D01*
X227189707Y-101678213D01*
X227078213Y-101789707D01*
X227078210Y-101789711D01*
X226990609Y-101920814D01*
X226990602Y-101920827D01*
X226930264Y-102066498D01*
X226930261Y-102066510D01*
X226899500Y-102221153D01*
X226899500Y-102378846D01*
X226930261Y-102533489D01*
X226930264Y-102533501D01*
X226990602Y-102679172D01*
X226990609Y-102679185D01*
X227078210Y-102810288D01*
X227078213Y-102810292D01*
X227189707Y-102921786D01*
X227189711Y-102921789D01*
X227320814Y-103009390D01*
X227320827Y-103009397D01*
X227420060Y-103050500D01*
X227466503Y-103069737D01*
X227616131Y-103099500D01*
X227621153Y-103100499D01*
X227621156Y-103100500D01*
X227621158Y-103100500D01*
X227778844Y-103100500D01*
X227778845Y-103100499D01*
X227880580Y-103080263D01*
X227933488Y-103069739D01*
X227933489Y-103069738D01*
X227933497Y-103069737D01*
X227957155Y-103059937D01*
X228004604Y-103050500D01*
X230768059Y-103050500D01*
X230835098Y-103070185D01*
X230880853Y-103122989D01*
X230890797Y-103192147D01*
X230861772Y-103255703D01*
X230855740Y-103262181D01*
X230778213Y-103339707D01*
X230778210Y-103339711D01*
X230690609Y-103470814D01*
X230690602Y-103470827D01*
X230630264Y-103616498D01*
X230630261Y-103616510D01*
X230599500Y-103771153D01*
X230599500Y-103928846D01*
X230630261Y-104083489D01*
X230630264Y-104083501D01*
X230690602Y-104229172D01*
X230690609Y-104229185D01*
X230778210Y-104360288D01*
X230778213Y-104360292D01*
X230889707Y-104471786D01*
X230889711Y-104471789D01*
X231020814Y-104559390D01*
X231020827Y-104559397D01*
X231120060Y-104600500D01*
X231166503Y-104619737D01*
X231316131Y-104649500D01*
X231321153Y-104650499D01*
X231321156Y-104650500D01*
X231321158Y-104650500D01*
X231478844Y-104650500D01*
X231478845Y-104650499D01*
X231555152Y-104635320D01*
X231633488Y-104619739D01*
X231633489Y-104619738D01*
X231633497Y-104619737D01*
X231657155Y-104609937D01*
X231704604Y-104600500D01*
X232100481Y-104600500D01*
X232167520Y-104620185D01*
X232213275Y-104672989D01*
X232223219Y-104742147D01*
X232194194Y-104805703D01*
X232173123Y-104824292D01*
X232173169Y-104824347D01*
X232171630Y-104825609D01*
X232169371Y-104827603D01*
X232168458Y-104828212D01*
X232056963Y-104939707D01*
X232056960Y-104939711D01*
X231969359Y-105070814D01*
X231969352Y-105070827D01*
X231909014Y-105216498D01*
X231909011Y-105216510D01*
X231878250Y-105371153D01*
X231878250Y-105528846D01*
X231909011Y-105683489D01*
X231909014Y-105683501D01*
X231969352Y-105829172D01*
X231969359Y-105829185D01*
X232056960Y-105960288D01*
X232056963Y-105960292D01*
X232168457Y-106071786D01*
X232168461Y-106071789D01*
X232299564Y-106159390D01*
X232299577Y-106159397D01*
X232398810Y-106200500D01*
X232445253Y-106219737D01*
X232550168Y-106240606D01*
X232599903Y-106250499D01*
X232599906Y-106250500D01*
X232599908Y-106250500D01*
X232757594Y-106250500D01*
X232757595Y-106250499D01*
X232833902Y-106235320D01*
X232912238Y-106219739D01*
X232912239Y-106219738D01*
X232912247Y-106219737D01*
X232935905Y-106209937D01*
X232983354Y-106200500D01*
X234596809Y-106200500D01*
X234663848Y-106220185D01*
X234709603Y-106272989D01*
X234719547Y-106342147D01*
X234690522Y-106405703D01*
X234684490Y-106412181D01*
X234656963Y-106439707D01*
X234656960Y-106439711D01*
X234569359Y-106570814D01*
X234569352Y-106570827D01*
X234509014Y-106716498D01*
X234509011Y-106716510D01*
X234478250Y-106871153D01*
X234478250Y-107028846D01*
X234509011Y-107183489D01*
X234509014Y-107183501D01*
X234569352Y-107329172D01*
X234569359Y-107329185D01*
X234656960Y-107460288D01*
X234656963Y-107460292D01*
X234768457Y-107571786D01*
X234768461Y-107571789D01*
X234899564Y-107659390D01*
X234899577Y-107659397D01*
X234998810Y-107700500D01*
X235045253Y-107719737D01*
X235150168Y-107740606D01*
X235199903Y-107750499D01*
X235199906Y-107750500D01*
X235199908Y-107750500D01*
X235357594Y-107750500D01*
X235357595Y-107750499D01*
X235433902Y-107735320D01*
X235512238Y-107719739D01*
X235512239Y-107719738D01*
X235512247Y-107719737D01*
X235535905Y-107709937D01*
X235544079Y-107708311D01*
X235548419Y-107705523D01*
X235583354Y-107700500D01*
X235718059Y-107700500D01*
X235785098Y-107720185D01*
X235830853Y-107772989D01*
X235840797Y-107842147D01*
X235811772Y-107905703D01*
X235805740Y-107912181D01*
X235778213Y-107939707D01*
X235778210Y-107939711D01*
X235690609Y-108070814D01*
X235690602Y-108070827D01*
X235630264Y-108216498D01*
X235630261Y-108216510D01*
X235599500Y-108371153D01*
X235599500Y-108528846D01*
X235630261Y-108683489D01*
X235630264Y-108683501D01*
X235690602Y-108829172D01*
X235690609Y-108829185D01*
X235778210Y-108960288D01*
X235778213Y-108960292D01*
X235889707Y-109071786D01*
X235889711Y-109071789D01*
X236020814Y-109159390D01*
X236020827Y-109159397D01*
X236166498Y-109219735D01*
X236166503Y-109219737D01*
X236316131Y-109249500D01*
X236321153Y-109250499D01*
X236321156Y-109250500D01*
X236321158Y-109250500D01*
X236478844Y-109250500D01*
X236478845Y-109250499D01*
X236555152Y-109235320D01*
X236633488Y-109219739D01*
X236633489Y-109219738D01*
X236633497Y-109219737D01*
X236657155Y-109209937D01*
X236704604Y-109200500D01*
X237221731Y-109200500D01*
X237288770Y-109220185D01*
X237334525Y-109272989D01*
X237344469Y-109342147D01*
X237315444Y-109405703D01*
X237294373Y-109424292D01*
X237294419Y-109424347D01*
X237292880Y-109425609D01*
X237290621Y-109427603D01*
X237289708Y-109428212D01*
X237178213Y-109539707D01*
X237178210Y-109539711D01*
X237090609Y-109670814D01*
X237090602Y-109670827D01*
X237030264Y-109816498D01*
X237030261Y-109816510D01*
X236999500Y-109971153D01*
X236999500Y-110128846D01*
X237030261Y-110283489D01*
X237030264Y-110283501D01*
X237090602Y-110429172D01*
X237090609Y-110429185D01*
X237178210Y-110560288D01*
X237178213Y-110560292D01*
X237289707Y-110671786D01*
X237289711Y-110671789D01*
X237420814Y-110759390D01*
X237420827Y-110759397D01*
X237520060Y-110800500D01*
X237566503Y-110819737D01*
X237721153Y-110850499D01*
X237721156Y-110850500D01*
X237721158Y-110850500D01*
X237878844Y-110850500D01*
X237878845Y-110850499D01*
X237955152Y-110835320D01*
X238033488Y-110819739D01*
X238033489Y-110819738D01*
X238033497Y-110819737D01*
X238057155Y-110809937D01*
X238104604Y-110800500D01*
X265395396Y-110800500D01*
X265442844Y-110809937D01*
X265466503Y-110819737D01*
X265466508Y-110819738D01*
X265466511Y-110819739D01*
X265621153Y-110850499D01*
X265621156Y-110850500D01*
X265621158Y-110850500D01*
X265778844Y-110850500D01*
X265778845Y-110850499D01*
X265855152Y-110835320D01*
X265933488Y-110819739D01*
X265933489Y-110819738D01*
X265933497Y-110819737D01*
X265957155Y-110809937D01*
X266004604Y-110800500D01*
X268837770Y-110800500D01*
X268904809Y-110820185D01*
X268925451Y-110836819D01*
X275763181Y-117674548D01*
X275796666Y-117735871D01*
X275799500Y-117762229D01*
X275799500Y-126795396D01*
X275790062Y-126842844D01*
X275780263Y-126866503D01*
X275780262Y-126866506D01*
X275780260Y-126866511D01*
X275749500Y-127021153D01*
X275749500Y-127178846D01*
X275780261Y-127333489D01*
X275780263Y-127333497D01*
X275819427Y-127428047D01*
X275826896Y-127497517D01*
X275795621Y-127559996D01*
X275735532Y-127595648D01*
X275704866Y-127599500D01*
X227904604Y-127599500D01*
X227857155Y-127590062D01*
X227833497Y-127580263D01*
X227833493Y-127580262D01*
X227833488Y-127580260D01*
X227678845Y-127549500D01*
X227678842Y-127549500D01*
X227521158Y-127549500D01*
X227521155Y-127549500D01*
X227366510Y-127580261D01*
X227366498Y-127580264D01*
X227220827Y-127640602D01*
X227220814Y-127640609D01*
X227089711Y-127728210D01*
X227089707Y-127728213D01*
X226978213Y-127839707D01*
X226978210Y-127839711D01*
X226890609Y-127970814D01*
X226890602Y-127970827D01*
X226830264Y-128116498D01*
X226830261Y-128116510D01*
X226799500Y-128271153D01*
X226799500Y-128428846D01*
X226830261Y-128583489D01*
X226830264Y-128583501D01*
X226890602Y-128729172D01*
X226890609Y-128729185D01*
X226978210Y-128860288D01*
X226978213Y-128860292D01*
X227089707Y-128971786D01*
X227089711Y-128971789D01*
X227220814Y-129059390D01*
X227220827Y-129059397D01*
X227320060Y-129100500D01*
X227366503Y-129119737D01*
X227503638Y-129147015D01*
X227521153Y-129150499D01*
X227521156Y-129150500D01*
X227521158Y-129150500D01*
X227678844Y-129150500D01*
X227678845Y-129150499D01*
X227755152Y-129135320D01*
X227833488Y-129119739D01*
X227833489Y-129119738D01*
X227833497Y-129119737D01*
X227857155Y-129109937D01*
X227904604Y-129100500D01*
X230994277Y-129100500D01*
X231061316Y-129120185D01*
X231107071Y-129172989D01*
X231117015Y-129242147D01*
X231087990Y-129305703D01*
X231070259Y-129321344D01*
X231070684Y-129321862D01*
X231065972Y-129325728D01*
X230954478Y-129437222D01*
X230954475Y-129437226D01*
X230866874Y-129568329D01*
X230866867Y-129568342D01*
X230806529Y-129714013D01*
X230806526Y-129714025D01*
X230775765Y-129868668D01*
X230775765Y-130026361D01*
X230806526Y-130181004D01*
X230806529Y-130181016D01*
X230866867Y-130326687D01*
X230866874Y-130326700D01*
X230954475Y-130457803D01*
X230954478Y-130457807D01*
X231065972Y-130569301D01*
X231065976Y-130569304D01*
X231197079Y-130656905D01*
X231197092Y-130656912D01*
X231296325Y-130698015D01*
X231342768Y-130717252D01*
X231497418Y-130748014D01*
X231497421Y-130748015D01*
X231497423Y-130748015D01*
X231655109Y-130748015D01*
X231655110Y-130748014D01*
X231731417Y-130732835D01*
X231809753Y-130717254D01*
X231809754Y-130717253D01*
X231809762Y-130717252D01*
X231833420Y-130707452D01*
X231841594Y-130705826D01*
X231845934Y-130703038D01*
X231880869Y-130698015D01*
X232104200Y-130698015D01*
X232171239Y-130717700D01*
X232216994Y-130770504D01*
X232226938Y-130839662D01*
X232197913Y-130903218D01*
X232173091Y-130925117D01*
X232168461Y-130928210D01*
X232168457Y-130928213D01*
X232056963Y-131039707D01*
X232056960Y-131039711D01*
X231969359Y-131170814D01*
X231969352Y-131170827D01*
X231909014Y-131316498D01*
X231909011Y-131316510D01*
X231878250Y-131471153D01*
X231878250Y-131628846D01*
X231909011Y-131783489D01*
X231909014Y-131783501D01*
X231969352Y-131929172D01*
X231969359Y-131929185D01*
X232056960Y-132060288D01*
X232056963Y-132060292D01*
X232168457Y-132171786D01*
X232168461Y-132171789D01*
X232299564Y-132259390D01*
X232299577Y-132259397D01*
X232398810Y-132300500D01*
X232445253Y-132319737D01*
X232550168Y-132340606D01*
X232599903Y-132350499D01*
X232599906Y-132350500D01*
X232599908Y-132350500D01*
X232757594Y-132350500D01*
X232757595Y-132350499D01*
X232833902Y-132335320D01*
X232912238Y-132319739D01*
X232912239Y-132319738D01*
X232912247Y-132319737D01*
X232935905Y-132309937D01*
X232983354Y-132300500D01*
X234596809Y-132300500D01*
X234663848Y-132320185D01*
X234709603Y-132372989D01*
X234719547Y-132442147D01*
X234690522Y-132505703D01*
X234684490Y-132512181D01*
X234656963Y-132539707D01*
X234656960Y-132539711D01*
X234569359Y-132670814D01*
X234569352Y-132670827D01*
X234509014Y-132816498D01*
X234509011Y-132816510D01*
X234478250Y-132971153D01*
X234478250Y-133128846D01*
X234509011Y-133283489D01*
X234509014Y-133283501D01*
X234569352Y-133429172D01*
X234569359Y-133429185D01*
X234656960Y-133560288D01*
X234656963Y-133560292D01*
X234768457Y-133671786D01*
X234768461Y-133671789D01*
X234899564Y-133759390D01*
X234899577Y-133759397D01*
X234998810Y-133800500D01*
X235045253Y-133819737D01*
X235150168Y-133840606D01*
X235199903Y-133850499D01*
X235199906Y-133850500D01*
X235199908Y-133850500D01*
X235357594Y-133850500D01*
X235357595Y-133850499D01*
X235433902Y-133835320D01*
X235512238Y-133819739D01*
X235512239Y-133819738D01*
X235512247Y-133819737D01*
X235535905Y-133809937D01*
X235544079Y-133808311D01*
X235548419Y-133805523D01*
X235583354Y-133800500D01*
X235696809Y-133800500D01*
X235763848Y-133820185D01*
X235809603Y-133872989D01*
X235819547Y-133942147D01*
X235790522Y-134005703D01*
X235784490Y-134012181D01*
X235756963Y-134039707D01*
X235756960Y-134039711D01*
X235669359Y-134170814D01*
X235669352Y-134170827D01*
X235609014Y-134316498D01*
X235609011Y-134316510D01*
X235578250Y-134471153D01*
X235578250Y-134628846D01*
X235609011Y-134783489D01*
X235609014Y-134783501D01*
X235669352Y-134929172D01*
X235669359Y-134929185D01*
X235756960Y-135060288D01*
X235756963Y-135060292D01*
X235868457Y-135171786D01*
X235868461Y-135171789D01*
X235999564Y-135259390D01*
X235999577Y-135259397D01*
X236098810Y-135300500D01*
X236145253Y-135319737D01*
X236276486Y-135345841D01*
X236299903Y-135350499D01*
X236299906Y-135350500D01*
X236299908Y-135350500D01*
X236457594Y-135350500D01*
X236457595Y-135350499D01*
X236533902Y-135335320D01*
X236612238Y-135319739D01*
X236612239Y-135319738D01*
X236612247Y-135319737D01*
X236635905Y-135309937D01*
X236683354Y-135300500D01*
X237200481Y-135300500D01*
X237267520Y-135320185D01*
X237313275Y-135372989D01*
X237323219Y-135442147D01*
X237294194Y-135505703D01*
X237273123Y-135524292D01*
X237273169Y-135524347D01*
X237271630Y-135525609D01*
X237269371Y-135527603D01*
X237268458Y-135528212D01*
X237156963Y-135639707D01*
X237156960Y-135639711D01*
X237069359Y-135770814D01*
X237069352Y-135770827D01*
X237009014Y-135916498D01*
X237009011Y-135916510D01*
X236978250Y-136071153D01*
X236978250Y-136228846D01*
X237009011Y-136383489D01*
X237009014Y-136383501D01*
X237069352Y-136529172D01*
X237069359Y-136529185D01*
X237156960Y-136660288D01*
X237156963Y-136660292D01*
X237268457Y-136771786D01*
X237268461Y-136771789D01*
X237399564Y-136859390D01*
X237399577Y-136859397D01*
X237527740Y-136912483D01*
X237545253Y-136919737D01*
X237699903Y-136950499D01*
X237699906Y-136950500D01*
X237699908Y-136950500D01*
X237857594Y-136950500D01*
X237857595Y-136950499D01*
X237933902Y-136935320D01*
X238012238Y-136919739D01*
X238012239Y-136919738D01*
X238012247Y-136919737D01*
X238035905Y-136909937D01*
X238083354Y-136900500D01*
X275437770Y-136900500D01*
X275504809Y-136920185D01*
X275525451Y-136936819D01*
X275763181Y-137174548D01*
X275796666Y-137235871D01*
X275799500Y-137262229D01*
X275799500Y-151845396D01*
X275790062Y-151892844D01*
X275780263Y-151916503D01*
X275780262Y-151916506D01*
X275780260Y-151916511D01*
X275749500Y-152071153D01*
X275749500Y-152228846D01*
X275780261Y-152383489D01*
X275780264Y-152383501D01*
X275840137Y-152528048D01*
X275847606Y-152597517D01*
X275816331Y-152659996D01*
X275756241Y-152695648D01*
X275725576Y-152699500D01*
X227804604Y-152699500D01*
X227757155Y-152690062D01*
X227733497Y-152680263D01*
X227733493Y-152680262D01*
X227733488Y-152680260D01*
X227578845Y-152649500D01*
X227578842Y-152649500D01*
X227421158Y-152649500D01*
X227421155Y-152649500D01*
X227266510Y-152680261D01*
X227266498Y-152680264D01*
X227120827Y-152740602D01*
X227120814Y-152740609D01*
X226989711Y-152828210D01*
X226989707Y-152828213D01*
X226878213Y-152939707D01*
X226878211Y-152939710D01*
X226790609Y-153070814D01*
X226790602Y-153070827D01*
X226730264Y-153216498D01*
X226730261Y-153216510D01*
X226699500Y-153371153D01*
X226108965Y-153371153D01*
X226202733Y-153277385D01*
X226461699Y-153018418D01*
X226461700Y-153018417D01*
X226461699Y-153018417D01*
X226461702Y-153018415D01*
X226514290Y-152939711D01*
X226543834Y-152895495D01*
X226571704Y-152828211D01*
X226572427Y-152826466D01*
X226580622Y-152806679D01*
X226600409Y-152758912D01*
X226629250Y-152613917D01*
X226629250Y-152466082D01*
X226629250Y-145004604D01*
X226638689Y-144957151D01*
X226648487Y-144933497D01*
X226679250Y-144778842D01*
X226679250Y-144621158D01*
X226679250Y-144621155D01*
X226679249Y-144621153D01*
X226648487Y-144466503D01*
X226606324Y-144364711D01*
X226588147Y-144320827D01*
X226588140Y-144320814D01*
X226500539Y-144189711D01*
X226500536Y-144189707D01*
X226389042Y-144078213D01*
X226389038Y-144078210D01*
X226257935Y-143990609D01*
X226257922Y-143990602D01*
X226112251Y-143930264D01*
X226112239Y-143930261D01*
X225957595Y-143899500D01*
X225957592Y-143899500D01*
X225799908Y-143899500D01*
X225799905Y-143899500D01*
X225645260Y-143930261D01*
X225645248Y-143930264D01*
X225499577Y-143990602D01*
X225499564Y-143990609D01*
X225368461Y-144078210D01*
X225368457Y-144078213D01*
X225256963Y-144189707D01*
X225256960Y-144189711D01*
X225169359Y-144320814D01*
X225169352Y-144320827D01*
X225109014Y-144466498D01*
X225109011Y-144466510D01*
X225078250Y-144621153D01*
X225078250Y-144778846D01*
X225109011Y-144933489D01*
X225109013Y-144933497D01*
X225118811Y-144957151D01*
X225128250Y-145004604D01*
X225128250Y-152177770D01*
X225108565Y-152244809D01*
X225091931Y-152265451D01*
X220844201Y-156513181D01*
X220782878Y-156546666D01*
X220756520Y-156549500D01*
X195644830Y-156549500D01*
X195499842Y-156578340D01*
X195499832Y-156578343D01*
X195363261Y-156634912D01*
X195363248Y-156634919D01*
X195240334Y-156717048D01*
X195240330Y-156717051D01*
X191435797Y-160521584D01*
X191435793Y-160521589D01*
X191397540Y-160578842D01*
X191387075Y-160594505D01*
X191370370Y-160619505D01*
X191353666Y-160644504D01*
X191353662Y-160644511D01*
X191297093Y-160781082D01*
X191297090Y-160781092D01*
X191268250Y-160926079D01*
X191268250Y-221167796D01*
X191261115Y-221192091D01*
X191257974Y-221217222D01*
X191250522Y-221228166D01*
X191248565Y-221234835D01*
X191239442Y-221247259D01*
X191235870Y-221251537D01*
X191179336Y-221308072D01*
X191116625Y-221394385D01*
X191113942Y-221397600D01*
X191088232Y-221414799D01*
X191063737Y-221433689D01*
X191059447Y-221434057D01*
X191055870Y-221436451D01*
X191024944Y-221437020D01*
X190994124Y-221439667D01*
X190990316Y-221437657D01*
X190986012Y-221437737D01*
X190959692Y-221421499D01*
X190932329Y-221407061D01*
X190927780Y-221401811D01*
X190926548Y-221401051D01*
X190925838Y-221399569D01*
X190918433Y-221391023D01*
X190858168Y-221308078D01*
X190858164Y-221308072D01*
X190805569Y-221255477D01*
X190772084Y-221194154D01*
X190769250Y-221167796D01*
X190769250Y-141895675D01*
X202093250Y-141895675D01*
X202093250Y-142104324D01*
X202125887Y-142310389D01*
X202190362Y-142508820D01*
X202285080Y-142694714D01*
X202407715Y-142863505D01*
X202555245Y-143011035D01*
X202724036Y-143133670D01*
X202811866Y-143178421D01*
X202909929Y-143228387D01*
X202909931Y-143228387D01*
X202909934Y-143228389D01*
X203016295Y-143262948D01*
X203108360Y-143292862D01*
X203314426Y-143325500D01*
X203314431Y-143325500D01*
X203523074Y-143325500D01*
X203729139Y-143292862D01*
X203927566Y-143228389D01*
X204113464Y-143133670D01*
X204282255Y-143011035D01*
X204429785Y-142863505D01*
X204552420Y-142694714D01*
X204647139Y-142508816D01*
X204711612Y-142310389D01*
X204718922Y-142264234D01*
X204744250Y-142104324D01*
X204744250Y-141895675D01*
X262090750Y-141895675D01*
X262090750Y-142104324D01*
X262123387Y-142310389D01*
X262187862Y-142508820D01*
X262282580Y-142694714D01*
X262405215Y-142863505D01*
X262552745Y-143011035D01*
X262721536Y-143133670D01*
X262809366Y-143178421D01*
X262907429Y-143228387D01*
X262907431Y-143228387D01*
X262907434Y-143228389D01*
X263013795Y-143262948D01*
X263105860Y-143292862D01*
X263311926Y-143325500D01*
X263311931Y-143325500D01*
X263520574Y-143325500D01*
X263726639Y-143292862D01*
X263925066Y-143228389D01*
X264110964Y-143133670D01*
X264279755Y-143011035D01*
X264427285Y-142863505D01*
X264549920Y-142694714D01*
X264644639Y-142508816D01*
X264709112Y-142310389D01*
X264716422Y-142264234D01*
X264741750Y-142104324D01*
X264741750Y-141895675D01*
X264709112Y-141689610D01*
X264644637Y-141491179D01*
X264549919Y-141305285D01*
X264484362Y-141215054D01*
X264427285Y-141136495D01*
X264279755Y-140988965D01*
X264110964Y-140866330D01*
X263925070Y-140771612D01*
X263726639Y-140707137D01*
X263520574Y-140674500D01*
X263520569Y-140674500D01*
X263311931Y-140674500D01*
X263311926Y-140674500D01*
X263105860Y-140707137D01*
X262907429Y-140771612D01*
X262721535Y-140866330D01*
X262552743Y-140988966D01*
X262405216Y-141136493D01*
X262282580Y-141305285D01*
X262187862Y-141491179D01*
X262123387Y-141689610D01*
X262090750Y-141895675D01*
X204744250Y-141895675D01*
X204711612Y-141689610D01*
X204647137Y-141491179D01*
X204552419Y-141305285D01*
X204486862Y-141215054D01*
X204429785Y-141136495D01*
X204282255Y-140988965D01*
X204113464Y-140866330D01*
X203927570Y-140771612D01*
X203729139Y-140707137D01*
X203523074Y-140674500D01*
X203523069Y-140674500D01*
X203314431Y-140674500D01*
X203314426Y-140674500D01*
X203108360Y-140707137D01*
X202909929Y-140771612D01*
X202724035Y-140866330D01*
X202555243Y-140988966D01*
X202407716Y-141136493D01*
X202285080Y-141305285D01*
X202190362Y-141491179D01*
X202125887Y-141689610D01*
X202093250Y-141895675D01*
X190769250Y-141895675D01*
X190769250Y-136662229D01*
X190788935Y-136595190D01*
X190805569Y-136574548D01*
X194593298Y-132786819D01*
X194654621Y-132753334D01*
X194680979Y-132750500D01*
X220392670Y-132750500D01*
X220490212Y-132731096D01*
X220537663Y-132721658D01*
X220674245Y-132665084D01*
X220723479Y-132632186D01*
X220797166Y-132582952D01*
X226261702Y-127118416D01*
X226310936Y-127044729D01*
X226343834Y-126995495D01*
X226386756Y-126891873D01*
X226400409Y-126858912D01*
X226429250Y-126713917D01*
X226429250Y-126566082D01*
X226429250Y-119104604D01*
X226438689Y-119057151D01*
X226448487Y-119033497D01*
X226479250Y-118878842D01*
X226479250Y-118721158D01*
X226479250Y-118721155D01*
X226479249Y-118721153D01*
X226448488Y-118566510D01*
X226448487Y-118566503D01*
X226448485Y-118566498D01*
X226388147Y-118420827D01*
X226388140Y-118420814D01*
X226300539Y-118289711D01*
X226300536Y-118289707D01*
X226189042Y-118178213D01*
X226189038Y-118178210D01*
X226057935Y-118090609D01*
X226057922Y-118090602D01*
X225912251Y-118030264D01*
X225912239Y-118030261D01*
X225757595Y-117999500D01*
X225757592Y-117999500D01*
X225599908Y-117999500D01*
X225599905Y-117999500D01*
X225445260Y-118030261D01*
X225445248Y-118030264D01*
X225299577Y-118090602D01*
X225299564Y-118090609D01*
X225168461Y-118178210D01*
X225168457Y-118178213D01*
X225056963Y-118289707D01*
X225056960Y-118289711D01*
X224969359Y-118420814D01*
X224969352Y-118420827D01*
X224909014Y-118566498D01*
X224909011Y-118566510D01*
X224878250Y-118721153D01*
X224878250Y-118878846D01*
X224909011Y-119033489D01*
X224909013Y-119033497D01*
X224918811Y-119057151D01*
X224928250Y-119104604D01*
X224928250Y-126277770D01*
X224908565Y-126344809D01*
X224891931Y-126365451D01*
X220044201Y-131213181D01*
X219982878Y-131246666D01*
X219956520Y-131249500D01*
X194244830Y-131249500D01*
X194099842Y-131278340D01*
X194099832Y-131278343D01*
X193963261Y-131334912D01*
X193963248Y-131334919D01*
X193840334Y-131417048D01*
X193840330Y-131417051D01*
X189435802Y-135821578D01*
X189435799Y-135821581D01*
X189400441Y-135874498D01*
X189400442Y-135874499D01*
X189353664Y-135944508D01*
X189297093Y-136081082D01*
X189297090Y-136081092D01*
X189268250Y-136226079D01*
X189268250Y-221167796D01*
X189259605Y-221197236D01*
X189253082Y-221227223D01*
X189249327Y-221232238D01*
X189248565Y-221234835D01*
X189231931Y-221255477D01*
X189230931Y-221256477D01*
X189169608Y-221289962D01*
X189099916Y-221284978D01*
X189043983Y-221243106D01*
X189019566Y-221177642D01*
X189019250Y-221168796D01*
X189019250Y-215801456D01*
X188980802Y-215608170D01*
X188980801Y-215608169D01*
X188980801Y-215608165D01*
X188980799Y-215608160D01*
X188905385Y-215426092D01*
X188905378Y-215426079D01*
X188795889Y-215262218D01*
X188795886Y-215262214D01*
X188656535Y-215122863D01*
X188656531Y-215122860D01*
X188492670Y-215013371D01*
X188492657Y-215013364D01*
X188310589Y-214937950D01*
X188310579Y-214937947D01*
X188117293Y-214899500D01*
X188117291Y-214899500D01*
X187920209Y-214899500D01*
X187920207Y-214899500D01*
X187726920Y-214937947D01*
X187726910Y-214937950D01*
X187544842Y-215013364D01*
X187544829Y-215013371D01*
X187380968Y-215122860D01*
X187380964Y-215122863D01*
X187241613Y-215262214D01*
X187241610Y-215262218D01*
X187132121Y-215426079D01*
X187132114Y-215426092D01*
X187056700Y-215608160D01*
X187056697Y-215608170D01*
X187018250Y-215801456D01*
X187018250Y-221264867D01*
X186999790Y-221329961D01*
X186983937Y-221355663D01*
X186983936Y-221355665D01*
X186983936Y-221355666D01*
X186928751Y-221522203D01*
X186928751Y-221522204D01*
X186928750Y-221522204D01*
X186918250Y-221624983D01*
X131700500Y-221624983D01*
X131700500Y-178105675D01*
X179134500Y-178105675D01*
X179134500Y-178314324D01*
X179167137Y-178520389D01*
X179231612Y-178718820D01*
X179319850Y-178891997D01*
X179326330Y-178904714D01*
X179448965Y-179073505D01*
X179596495Y-179221035D01*
X179765286Y-179343670D01*
X179853116Y-179388421D01*
X179951179Y-179438387D01*
X179951181Y-179438387D01*
X179951184Y-179438389D01*
X180050978Y-179470814D01*
X180149610Y-179502862D01*
X180355676Y-179535500D01*
X180355681Y-179535500D01*
X180564324Y-179535500D01*
X180770389Y-179502862D01*
X180968816Y-179438389D01*
X181154714Y-179343670D01*
X181323505Y-179221035D01*
X181471035Y-179073505D01*
X181593670Y-178904714D01*
X181688389Y-178718816D01*
X181752862Y-178520389D01*
X181764274Y-178448336D01*
X181785500Y-178314324D01*
X181785500Y-178105675D01*
X181752862Y-177899610D01*
X181722948Y-177807545D01*
X181688389Y-177701184D01*
X181688387Y-177701181D01*
X181688387Y-177701179D01*
X181593669Y-177515285D01*
X181521899Y-177416503D01*
X181471035Y-177346495D01*
X181323505Y-177198965D01*
X181154714Y-177076330D01*
X181145796Y-177071786D01*
X180968820Y-176981612D01*
X180770389Y-176917137D01*
X180564324Y-176884500D01*
X180564319Y-176884500D01*
X180355681Y-176884500D01*
X180355676Y-176884500D01*
X180149610Y-176917137D01*
X179951179Y-176981612D01*
X179765285Y-177076330D01*
X179596493Y-177198966D01*
X179448966Y-177346493D01*
X179326330Y-177515285D01*
X179231612Y-177701179D01*
X179167137Y-177899610D01*
X179134500Y-178105675D01*
X131700500Y-178105675D01*
X131700500Y-163105675D01*
X179134500Y-163105675D01*
X179134500Y-163314324D01*
X179167137Y-163520389D01*
X179231612Y-163718820D01*
X179326330Y-163904714D01*
X179448965Y-164073505D01*
X179596495Y-164221035D01*
X179765286Y-164343670D01*
X179853116Y-164388421D01*
X179951179Y-164438387D01*
X179951181Y-164438387D01*
X179951184Y-164438389D01*
X180057545Y-164472948D01*
X180149610Y-164502862D01*
X180355676Y-164535500D01*
X180355681Y-164535500D01*
X180564324Y-164535500D01*
X180770389Y-164502862D01*
X180968816Y-164438389D01*
X181154714Y-164343670D01*
X181323505Y-164221035D01*
X181471035Y-164073505D01*
X181593670Y-163904714D01*
X181688389Y-163718816D01*
X181752862Y-163520389D01*
X181785500Y-163314324D01*
X181785500Y-163105675D01*
X181752862Y-162899610D01*
X181688387Y-162701179D01*
X181593669Y-162515285D01*
X181471035Y-162346495D01*
X181323505Y-162198965D01*
X181154714Y-162076330D01*
X181127039Y-162062229D01*
X180968820Y-161981612D01*
X180770389Y-161917137D01*
X180564324Y-161884500D01*
X180564319Y-161884500D01*
X180355681Y-161884500D01*
X180355676Y-161884500D01*
X180149610Y-161917137D01*
X179951179Y-161981612D01*
X179765285Y-162076330D01*
X179596493Y-162198966D01*
X179448966Y-162346493D01*
X179326330Y-162515285D01*
X179231612Y-162701179D01*
X179167137Y-162899610D01*
X179134500Y-163105675D01*
X131700500Y-163105675D01*
X131700500Y-159228711D01*
X134349500Y-159228711D01*
X134349500Y-159471288D01*
X134381161Y-159711785D01*
X134443947Y-159946104D01*
X134532293Y-160159390D01*
X134536776Y-160170212D01*
X134658064Y-160380289D01*
X134658066Y-160380292D01*
X134658067Y-160380293D01*
X134805733Y-160572736D01*
X134805739Y-160572743D01*
X134977256Y-160744260D01*
X134977263Y-160744266D01*
X135023753Y-160779939D01*
X135169711Y-160891936D01*
X135379788Y-161013224D01*
X135603900Y-161106054D01*
X135838211Y-161168838D01*
X135996730Y-161189707D01*
X136078711Y-161200500D01*
X136078712Y-161200500D01*
X136321289Y-161200500D01*
X136369388Y-161194167D01*
X136561789Y-161168838D01*
X136796100Y-161106054D01*
X137020212Y-161013224D01*
X137230289Y-160891936D01*
X137422738Y-160744265D01*
X137594265Y-160572738D01*
X137741936Y-160380289D01*
X137863224Y-160170212D01*
X137956054Y-159946100D01*
X138018838Y-159711789D01*
X138050500Y-159471288D01*
X138050500Y-159228712D01*
X138018838Y-158988211D01*
X137956054Y-158753900D01*
X137863224Y-158529788D01*
X137741936Y-158319711D01*
X137672473Y-158229185D01*
X137594266Y-158127263D01*
X137594260Y-158127256D01*
X137422743Y-157955739D01*
X137422736Y-157955733D01*
X137230293Y-157808067D01*
X137230292Y-157808066D01*
X137230289Y-157808064D01*
X137020212Y-157686776D01*
X137020205Y-157686773D01*
X136796104Y-157593947D01*
X136561785Y-157531161D01*
X136321289Y-157499500D01*
X136321288Y-157499500D01*
X136078712Y-157499500D01*
X136078711Y-157499500D01*
X135838214Y-157531161D01*
X135603895Y-157593947D01*
X135379794Y-157686773D01*
X135379785Y-157686777D01*
X135169706Y-157808067D01*
X134977263Y-157955733D01*
X134977256Y-157955739D01*
X134805739Y-158127256D01*
X134805733Y-158127263D01*
X134658067Y-158319706D01*
X134536777Y-158529785D01*
X134536773Y-158529794D01*
X134443947Y-158753895D01*
X134381161Y-158988214D01*
X134349500Y-159228711D01*
X131700500Y-159228711D01*
X131700500Y-155605675D01*
X145669500Y-155605675D01*
X145669500Y-155814324D01*
X145702137Y-156020389D01*
X145766612Y-156218820D01*
X145793280Y-156271158D01*
X145861330Y-156404714D01*
X145983965Y-156573505D01*
X146131495Y-156721035D01*
X146300286Y-156843670D01*
X146332903Y-156860289D01*
X146486179Y-156938387D01*
X146486181Y-156938387D01*
X146486184Y-156938389D01*
X146588969Y-156971786D01*
X146684610Y-157002862D01*
X146890676Y-157035500D01*
X146890681Y-157035500D01*
X147099324Y-157035500D01*
X147305389Y-157002862D01*
X147503816Y-156938389D01*
X147689714Y-156843670D01*
X147858505Y-156721035D01*
X148006035Y-156573505D01*
X148128670Y-156404714D01*
X148223389Y-156218816D01*
X148287862Y-156020389D01*
X148295714Y-155970814D01*
X148320500Y-155814324D01*
X148320500Y-155605675D01*
X148287862Y-155399610D01*
X148223387Y-155201179D01*
X148128669Y-155015285D01*
X148006035Y-154846495D01*
X147858505Y-154698965D01*
X147689714Y-154576330D01*
X147503820Y-154481612D01*
X147305389Y-154417137D01*
X147099324Y-154384500D01*
X147099319Y-154384500D01*
X146890681Y-154384500D01*
X146890676Y-154384500D01*
X146684610Y-154417137D01*
X146486179Y-154481612D01*
X146300285Y-154576330D01*
X146131493Y-154698966D01*
X145983966Y-154846493D01*
X145861330Y-155015285D01*
X145766612Y-155201179D01*
X145702137Y-155399610D01*
X145669500Y-155605675D01*
X131700500Y-155605675D01*
X131700500Y-148105675D01*
X179134500Y-148105675D01*
X179134500Y-148314324D01*
X179167137Y-148520389D01*
X179231612Y-148718820D01*
X179326330Y-148904714D01*
X179448965Y-149073505D01*
X179596495Y-149221035D01*
X179765286Y-149343670D01*
X179853116Y-149388421D01*
X179951179Y-149438387D01*
X179951181Y-149438387D01*
X179951184Y-149438389D01*
X180057545Y-149472948D01*
X180149610Y-149502862D01*
X180355676Y-149535500D01*
X180355681Y-149535500D01*
X180564324Y-149535500D01*
X180770389Y-149502862D01*
X180968816Y-149438389D01*
X181154714Y-149343670D01*
X181323505Y-149221035D01*
X181471035Y-149073505D01*
X181593670Y-148904714D01*
X181688389Y-148718816D01*
X181752862Y-148520389D01*
X181785500Y-148314324D01*
X181785500Y-148105675D01*
X181752862Y-147899610D01*
X181688387Y-147701179D01*
X181593669Y-147515285D01*
X181471035Y-147346495D01*
X181323505Y-147198965D01*
X181154714Y-147076330D01*
X180968820Y-146981612D01*
X180770389Y-146917137D01*
X180564324Y-146884500D01*
X180564319Y-146884500D01*
X180355681Y-146884500D01*
X180355676Y-146884500D01*
X180149610Y-146917137D01*
X179951179Y-146981612D01*
X179765285Y-147076330D01*
X179596493Y-147198966D01*
X179448966Y-147346493D01*
X179326330Y-147515285D01*
X179231612Y-147701179D01*
X179167137Y-147899610D01*
X179134500Y-148105675D01*
X131700500Y-148105675D01*
X131700500Y-133105675D01*
X179134500Y-133105675D01*
X179134500Y-133314324D01*
X179167137Y-133520389D01*
X179231612Y-133718820D01*
X179298706Y-133850499D01*
X179326330Y-133904714D01*
X179448965Y-134073505D01*
X179596495Y-134221035D01*
X179765286Y-134343670D01*
X179853116Y-134388421D01*
X179951179Y-134438387D01*
X179951181Y-134438387D01*
X179951184Y-134438389D01*
X180052021Y-134471153D01*
X180149610Y-134502862D01*
X180355676Y-134535500D01*
X180355681Y-134535500D01*
X180564324Y-134535500D01*
X180770389Y-134502862D01*
X180968816Y-134438389D01*
X181154714Y-134343670D01*
X181323505Y-134221035D01*
X181471035Y-134073505D01*
X181593670Y-133904714D01*
X181688389Y-133718816D01*
X181752862Y-133520389D01*
X181785500Y-133314324D01*
X181785500Y-133105675D01*
X181752862Y-132899610D01*
X181722948Y-132807545D01*
X181688389Y-132701184D01*
X181688387Y-132701181D01*
X181688387Y-132701179D01*
X181593669Y-132515285D01*
X181540531Y-132442147D01*
X181471035Y-132346495D01*
X181323505Y-132198965D01*
X181154714Y-132076330D01*
X180968820Y-131981612D01*
X180770389Y-131917137D01*
X180564324Y-131884500D01*
X180564319Y-131884500D01*
X180355681Y-131884500D01*
X180355676Y-131884500D01*
X180149610Y-131917137D01*
X179951179Y-131981612D01*
X179765285Y-132076330D01*
X179596493Y-132198966D01*
X179448966Y-132346493D01*
X179326330Y-132515285D01*
X179231612Y-132701179D01*
X179167137Y-132899610D01*
X179134500Y-133105675D01*
X131700500Y-133105675D01*
X131700500Y-116295675D01*
X202093250Y-116295675D01*
X202093250Y-116504324D01*
X202125887Y-116710389D01*
X202190362Y-116908820D01*
X202274805Y-117074548D01*
X202285080Y-117094714D01*
X202407715Y-117263505D01*
X202555245Y-117411035D01*
X202724036Y-117533670D01*
X202811866Y-117578421D01*
X202909929Y-117628387D01*
X202909931Y-117628387D01*
X202909934Y-117628389D01*
X203016295Y-117662948D01*
X203108360Y-117692862D01*
X203314426Y-117725500D01*
X203314431Y-117725500D01*
X203523074Y-117725500D01*
X203729139Y-117692862D01*
X203927566Y-117628389D01*
X204113464Y-117533670D01*
X204282255Y-117411035D01*
X204429785Y-117263505D01*
X204552420Y-117094714D01*
X204647139Y-116908816D01*
X204711612Y-116710389D01*
X204744250Y-116504324D01*
X204744250Y-116295675D01*
X262090750Y-116295675D01*
X262090750Y-116504324D01*
X262123387Y-116710389D01*
X262187862Y-116908820D01*
X262272305Y-117074548D01*
X262282580Y-117094714D01*
X262405215Y-117263505D01*
X262552745Y-117411035D01*
X262721536Y-117533670D01*
X262809366Y-117578421D01*
X262907429Y-117628387D01*
X262907431Y-117628387D01*
X262907434Y-117628389D01*
X263013795Y-117662948D01*
X263105860Y-117692862D01*
X263311926Y-117725500D01*
X263311931Y-117725500D01*
X263520574Y-117725500D01*
X263726639Y-117692862D01*
X263925066Y-117628389D01*
X264110964Y-117533670D01*
X264279755Y-117411035D01*
X264427285Y-117263505D01*
X264549920Y-117094714D01*
X264644639Y-116908816D01*
X264709112Y-116710389D01*
X264741750Y-116504324D01*
X264741750Y-116295675D01*
X264709112Y-116089610D01*
X264644637Y-115891179D01*
X264549919Y-115705285D01*
X264444993Y-115560868D01*
X264427285Y-115536495D01*
X264279755Y-115388965D01*
X264110964Y-115266330D01*
X263925070Y-115171612D01*
X263726639Y-115107137D01*
X263520574Y-115074500D01*
X263520569Y-115074500D01*
X263311931Y-115074500D01*
X263311926Y-115074500D01*
X263105860Y-115107137D01*
X262907429Y-115171612D01*
X262721535Y-115266330D01*
X262552743Y-115388966D01*
X262405216Y-115536493D01*
X262282580Y-115705285D01*
X262187862Y-115891179D01*
X262123387Y-116089610D01*
X262090750Y-116295675D01*
X204744250Y-116295675D01*
X204711612Y-116089610D01*
X204647137Y-115891179D01*
X204552419Y-115705285D01*
X204447493Y-115560868D01*
X204429785Y-115536495D01*
X204282255Y-115388965D01*
X204113464Y-115266330D01*
X203927570Y-115171612D01*
X203729139Y-115107137D01*
X203523074Y-115074500D01*
X203523069Y-115074500D01*
X203314431Y-115074500D01*
X203314426Y-115074500D01*
X203108360Y-115107137D01*
X202909929Y-115171612D01*
X202724035Y-115266330D01*
X202555243Y-115388966D01*
X202407716Y-115536493D01*
X202285080Y-115705285D01*
X202190362Y-115891179D01*
X202125887Y-116089610D01*
X202093250Y-116295675D01*
X131700500Y-116295675D01*
X131700500Y-92378711D01*
X134349500Y-92378711D01*
X134349500Y-92621288D01*
X134381161Y-92861785D01*
X134443947Y-93096104D01*
X134536773Y-93320205D01*
X134536776Y-93320212D01*
X134658064Y-93530289D01*
X134658066Y-93530292D01*
X134658067Y-93530293D01*
X134805733Y-93722736D01*
X134805739Y-93722743D01*
X134977256Y-93894260D01*
X134977262Y-93894265D01*
X135169711Y-94041936D01*
X135379788Y-94163224D01*
X135603900Y-94256054D01*
X135838211Y-94318838D01*
X136018586Y-94342584D01*
X136078711Y-94350500D01*
X136078712Y-94350500D01*
X136321289Y-94350500D01*
X136369388Y-94344167D01*
X136561789Y-94318838D01*
X136796100Y-94256054D01*
X137020212Y-94163224D01*
X137230289Y-94041936D01*
X137422738Y-93894265D01*
X137594265Y-93722738D01*
X137741936Y-93530289D01*
X137863224Y-93320212D01*
X137956054Y-93096100D01*
X138018838Y-92861789D01*
X138050500Y-92621288D01*
X138050500Y-92378712D01*
X138050500Y-92378711D01*
X237349500Y-92378711D01*
X237349500Y-92621288D01*
X237381161Y-92861785D01*
X237443947Y-93096104D01*
X237536773Y-93320205D01*
X237536776Y-93320212D01*
X237658064Y-93530289D01*
X237658066Y-93530292D01*
X237658067Y-93530293D01*
X237805733Y-93722736D01*
X237805739Y-93722743D01*
X237977256Y-93894260D01*
X237977262Y-93894265D01*
X238169711Y-94041936D01*
X238379788Y-94163224D01*
X238603900Y-94256054D01*
X238838211Y-94318838D01*
X239018586Y-94342584D01*
X239078711Y-94350500D01*
X239078712Y-94350500D01*
X239321289Y-94350500D01*
X239369388Y-94344167D01*
X239561789Y-94318838D01*
X239796100Y-94256054D01*
X240020212Y-94163224D01*
X240230289Y-94041936D01*
X240422738Y-93894265D01*
X240594265Y-93722738D01*
X240741936Y-93530289D01*
X240863224Y-93320212D01*
X240956054Y-93096100D01*
X241018838Y-92861789D01*
X241050500Y-92621288D01*
X241050500Y-92378712D01*
X241050500Y-92378711D01*
X340349500Y-92378711D01*
X340349500Y-92621288D01*
X340381161Y-92861785D01*
X340443947Y-93096104D01*
X340536773Y-93320205D01*
X340536776Y-93320212D01*
X340658064Y-93530289D01*
X340658066Y-93530292D01*
X340658067Y-93530293D01*
X340805733Y-93722736D01*
X340805739Y-93722743D01*
X340977256Y-93894260D01*
X340977262Y-93894265D01*
X341169711Y-94041936D01*
X341379788Y-94163224D01*
X341603900Y-94256054D01*
X341838211Y-94318838D01*
X342018586Y-94342584D01*
X342078711Y-94350500D01*
X342078712Y-94350500D01*
X342321289Y-94350500D01*
X342369388Y-94344167D01*
X342561789Y-94318838D01*
X342796100Y-94256054D01*
X343020212Y-94163224D01*
X343230289Y-94041936D01*
X343422738Y-93894265D01*
X343594265Y-93722738D01*
X343741936Y-93530289D01*
X343863224Y-93320212D01*
X343956054Y-93096100D01*
X344018838Y-92861789D01*
X344050500Y-92621288D01*
X344050500Y-92378712D01*
X344018838Y-92138211D01*
X343956054Y-91903900D01*
X343863224Y-91679788D01*
X343741936Y-91469711D01*
X343594265Y-91277262D01*
X343594260Y-91277256D01*
X343422743Y-91105739D01*
X343422736Y-91105733D01*
X343230293Y-90958067D01*
X343230292Y-90958066D01*
X343230289Y-90958064D01*
X343020212Y-90836776D01*
X343020205Y-90836773D01*
X342796104Y-90743947D01*
X342561785Y-90681161D01*
X342321289Y-90649500D01*
X342321288Y-90649500D01*
X342078712Y-90649500D01*
X342078711Y-90649500D01*
X341838214Y-90681161D01*
X341603895Y-90743947D01*
X341379794Y-90836773D01*
X341379785Y-90836777D01*
X341169706Y-90958067D01*
X340977263Y-91105733D01*
X340977256Y-91105739D01*
X340805739Y-91277256D01*
X340805733Y-91277263D01*
X340658067Y-91469706D01*
X340536777Y-91679785D01*
X340536773Y-91679794D01*
X340443947Y-91903895D01*
X340381161Y-92138214D01*
X340349500Y-92378711D01*
X241050500Y-92378711D01*
X241018838Y-92138211D01*
X240956054Y-91903900D01*
X240863224Y-91679788D01*
X240741936Y-91469711D01*
X240594265Y-91277262D01*
X240594260Y-91277256D01*
X240422743Y-91105739D01*
X240422736Y-91105733D01*
X240230293Y-90958067D01*
X240230292Y-90958066D01*
X240230289Y-90958064D01*
X240020212Y-90836776D01*
X240020205Y-90836773D01*
X239796104Y-90743947D01*
X239561785Y-90681161D01*
X239321289Y-90649500D01*
X239321288Y-90649500D01*
X239078712Y-90649500D01*
X239078711Y-90649500D01*
X238838214Y-90681161D01*
X238603895Y-90743947D01*
X238379794Y-90836773D01*
X238379785Y-90836777D01*
X238169706Y-90958067D01*
X237977263Y-91105733D01*
X237977256Y-91105739D01*
X237805739Y-91277256D01*
X237805733Y-91277263D01*
X237658067Y-91469706D01*
X237536777Y-91679785D01*
X237536773Y-91679794D01*
X237443947Y-91903895D01*
X237381161Y-92138214D01*
X237349500Y-92378711D01*
X138050500Y-92378711D01*
X138018838Y-92138211D01*
X137956054Y-91903900D01*
X137863224Y-91679788D01*
X137741936Y-91469711D01*
X137594265Y-91277262D01*
X137594260Y-91277256D01*
X137422743Y-91105739D01*
X137422736Y-91105733D01*
X137230293Y-90958067D01*
X137230292Y-90958066D01*
X137230289Y-90958064D01*
X137020212Y-90836776D01*
X137020205Y-90836773D01*
X136796104Y-90743947D01*
X136561785Y-90681161D01*
X136321289Y-90649500D01*
X136321288Y-90649500D01*
X136078712Y-90649500D01*
X136078711Y-90649500D01*
X135838214Y-90681161D01*
X135603895Y-90743947D01*
X135379794Y-90836773D01*
X135379785Y-90836777D01*
X135169706Y-90958067D01*
X134977263Y-91105733D01*
X134977256Y-91105739D01*
X134805739Y-91277256D01*
X134805733Y-91277263D01*
X134658067Y-91469706D01*
X134536777Y-91679785D01*
X134536773Y-91679794D01*
X134443947Y-91903895D01*
X134381161Y-92138214D01*
X134349500Y-92378711D01*
X131700500Y-92378711D01*
X131700500Y-88124500D01*
X131720185Y-88057461D01*
X131772989Y-88011706D01*
X131824500Y-88000500D01*
X346575500Y-88000500D01*
X346642539Y-88020185D01*
G37*
G04 #@! TD.AperFunction*
M02*
