M48
; DRILL file {KiCad 9.0.0} date 2026-03-11T14:35:35-0400
; FORMAT={-:-/ absolute / metric / decimal}
; #@! TF.CreationDate,2026-03-11T14:35:35-04:00
; #@! TF.GenerationSoftware,Kicad,Pcbnew,9.0.0
; #@! TF.FileFunction,Plated,1,2,PTH
FMAT,2
METRIC
; #@! TA.AperFunction,Plated,PTH,ViaDrill
T1C0.300
; #@! TA.AperFunction,Plated,PTH,ComponentDrill
T2C0.730
; #@! TA.AperFunction,Plated,PTH,ComponentDrill
T3C0.750
; #@! TA.AperFunction,Plated,PTH,ComponentDrill
T4C1.100
; #@! TA.AperFunction,Plated,PTH,ComponentDrill
T5C1.400
%
G90
G05
T1
X159.475Y-145.72
X159.675Y-160.72
X159.775Y-165.52
X163.075Y-163.32
X163.175Y-147.92
X163.175Y-158.12
X188.019Y-215.9
X212.519Y-176.7
X212.519Y-199.7
X212.919Y-152.1
X213.369Y-126.45
X225.679Y-118.8
X225.819Y-170.5
X225.879Y-144.7
X226.181Y-192.4
X227.5Y-153.45
X227.6Y-128.35
X227.7Y-102.3
X228.6Y-176.45
X231.4Y-103.85
X231.576Y-129.948
X231.576Y-154.75
X231.598Y-178.059
X232.587Y-156.35
X232.679Y-105.45
X232.679Y-131.55
X232.7Y-179.85
X233.887Y-162.85
X233.979Y-112.6
X233.979Y-138.2
X233.987Y-186.0
X235.188Y-157.85
X235.279Y-106.95
X235.279Y-133.05
X235.3Y-181.45
X236.379Y-134.55
X236.387Y-182.95
X236.4Y-108.45
X236.4Y-159.45
X237.779Y-136.15
X237.779Y-160.95
X237.787Y-184.3
X237.8Y-110.05
X239.644Y-167.85
X239.741Y-143.2
X239.744Y-170.95
X239.744Y-191.0
X239.779Y-117.6
X239.841Y-146.3
X239.844Y-194.1
X239.879Y-120.7
X257.7Y-101.15
X257.7Y-103.85
X259.619Y-214.3
X259.619Y-216.45
X259.7Y-101.15
X259.7Y-105.45
X261.6Y-212.5
X261.6Y-216.45
X261.7Y-101.15
X261.7Y-106.95
X263.619Y-210.6
X263.619Y-216.45
X263.7Y-101.15
X263.7Y-108.45
X265.619Y-208.85
X265.619Y-216.45
X265.7Y-101.15
X265.7Y-110.05
X276.55Y-127.1
X276.55Y-136.9
X276.55Y-152.15
X276.55Y-161.7
X276.55Y-175.35
X276.55Y-184.3
X278.45Y-127.2
X278.45Y-136.5
X278.45Y-152.25
X278.45Y-160.5
X278.45Y-175.25
X278.45Y-184.05
X280.1Y-128.7
X280.1Y-135.75
X280.1Y-152.3
X280.1Y-159.85
X280.1Y-175.25
X280.1Y-182.35
X281.6Y-130.3
X281.6Y-135.65
X281.6Y-153.45
X281.6Y-159.35
X281.6Y-176.15
X281.6Y-181.95
X282.9Y-131.2
X282.9Y-135.35
X282.9Y-154.7
X282.9Y-157.95
X283.1Y-177.65
X283.1Y-180.85
X306.1Y-173.45
X306.2Y-191.05
X306.4Y-124.45
X306.6Y-106.95
X332.533Y-130.65
X332.533Y-148.25
X332.57Y-196.95
X332.57Y-212.65
T2
X295.03Y-136.24
X295.03Y-138.78
X295.03Y-141.32
X295.03Y-143.86
X295.03Y-202.869
X295.03Y-205.409
X295.03Y-207.949
X295.03Y-210.489
X302.97Y-136.24
X302.97Y-138.78
X302.97Y-141.32
X302.97Y-143.86
X302.97Y-202.869
X302.97Y-205.409
X302.97Y-207.949
X302.97Y-210.489
T3
X188.019Y-222.3
X190.019Y-222.3
X192.019Y-222.3
X194.019Y-222.3
X196.019Y-222.3
X198.019Y-222.3
X255.619Y-222.3
X255.669Y-95.75
X257.619Y-222.3
X257.669Y-95.75
X259.619Y-222.3
X259.669Y-95.75
X261.619Y-222.3
X261.669Y-95.75
X263.619Y-222.3
X263.669Y-95.75
X265.619Y-222.3
X265.669Y-95.75
X267.619Y-222.3
X267.669Y-95.75
X269.619Y-222.3
X269.669Y-95.75
X286.1Y-222.15
X288.1Y-222.15
X290.1Y-222.15
X292.1Y-222.15
X294.1Y-222.15
X296.1Y-222.15
T4
X146.995Y-155.71
X180.46Y-133.21
X180.46Y-148.21
X180.46Y-163.21
X180.46Y-178.21
X203.419Y-116.4
X203.419Y-142.0
X203.419Y-166.65
X203.419Y-189.8
X263.416Y-116.4
X263.416Y-142.0
X263.416Y-166.65
X263.416Y-189.8
X298.28Y-163.21
X298.6Y-96.765
X313.52Y-163.21
X313.82Y-96.765
X324.875Y-184.95
X324.88Y-120.45
X340.1Y-120.45
X340.125Y-184.95
T5
X144.455Y-153.17
X144.455Y-158.25
X149.535Y-153.17
X149.535Y-158.25
X177.92Y-130.67
X177.92Y-135.75
X177.92Y-145.67
X177.92Y-150.75
X177.92Y-160.67
X177.92Y-165.75
X177.92Y-175.67
X177.92Y-180.75
X183.0Y-130.67
X183.0Y-135.75
X183.0Y-145.67
X183.0Y-150.75
X183.0Y-160.67
X183.0Y-165.75
X183.0Y-175.67
X183.0Y-180.75
X200.879Y-113.86
X200.879Y-118.94
X200.879Y-139.46
X200.879Y-144.54
X200.879Y-164.11
X200.879Y-169.19
X200.879Y-187.26
X200.879Y-192.34
X205.959Y-113.86
X205.959Y-118.94
X205.959Y-139.46
X205.959Y-144.54
X205.959Y-164.11
X205.959Y-169.19
X205.959Y-187.26
X205.959Y-192.34
X260.876Y-113.86
X260.876Y-118.94
X260.876Y-139.46
X260.876Y-144.54
X260.876Y-164.11
X260.876Y-169.19
X260.876Y-187.26
X260.876Y-192.34
X265.956Y-113.86
X265.956Y-118.94
X265.956Y-139.46
X265.956Y-144.54
X265.956Y-164.11
X265.956Y-169.19
X265.956Y-187.26
X265.956Y-192.34
X295.74Y-160.67
X295.74Y-165.75
X296.06Y-94.225
X296.06Y-99.305
X300.82Y-160.67
X300.82Y-165.75
X301.14Y-94.225
X301.14Y-99.305
X310.98Y-160.67
X310.98Y-165.75
X311.28Y-94.225
X311.28Y-99.305
X316.06Y-160.67
X316.06Y-165.75
X316.36Y-94.225
X316.36Y-99.305
X322.335Y-182.41
X322.335Y-187.49
X322.34Y-117.91
X322.34Y-122.99
X327.415Y-182.41
X327.415Y-187.49
X327.42Y-117.91
X327.42Y-122.99
X337.56Y-117.91
X337.56Y-122.99
X337.585Y-182.41
X337.585Y-187.49
X342.64Y-117.91
X342.64Y-122.99
X342.665Y-182.41
X342.665Y-187.49
M30
