G04 #@! TF.GenerationSoftware,KiCad,Pcbnew,9.0.0*
G04 #@! TF.CreationDate,2026-03-11T14:35:33-04:00*
G04 #@! TF.ProjectId,4x4_compression_matrix_modular_split,3478345f-636f-46d7-9072-657373696f6e,rev?*
G04 #@! TF.SameCoordinates,Original*
G04 #@! TF.FileFunction,Soldermask,Top*
G04 #@! TF.FilePolarity,Negative*
%FSLAX46Y46*%
G04 Gerber Fmt 4.6, Leading zero omitted, Abs format (unit mm)*
G04 Created by KiCad (PCBNEW 9.0.0) date 2026-03-11 14:35:33*
%MOMM*%
%LPD*%
G01*
G04 APERTURE LIST*
G04 Aperture macros list*
%AMRoundRect*
0 Rectangle with rounded corners*
0 $1 Rounding radius*
0 $2 $3 $4 $5 $6 $7 $8 $9 X,Y pos of 4 corners*
0 Add a 4 corners polygon primitive as box body*
4,1,4,$2,$3,$4,$5,$6,$7,$8,$9,$2,$3,0*
0 Add four circle primitives for the rounded corners*
1,1,$1+$1,$2,$3*
1,1,$1+$1,$4,$5*
1,1,$1+$1,$6,$7*
1,1,$1+$1,$8,$9*
0 Add four rect primitives between the rounded corners*
20,1,$1+$1,$2,$3,$4,$5,0*
20,1,$1+$1,$4,$5,$6,$7,0*
20,1,$1+$1,$6,$7,$8,$9,0*
20,1,$1+$1,$8,$9,$2,$3,0*%
G04 Aperture macros list end*
%ADD10C,0.600000*%
%ADD11C,0.550000*%
%ADD12C,0.100000*%
%ADD13C,2.100000*%
%ADD14C,1.650000*%
%ADD15R,1.000000X0.300000*%
%ADD16R,0.300000X1.000000*%
%ADD17R,2.226000X2.226000*%
%ADD18RoundRect,0.250000X-0.537500X-1.450000X0.537500X-1.450000X0.537500X1.450000X-0.537500X1.450000X0*%
%ADD19RoundRect,0.249999X0.450001X1.075001X-0.450001X1.075001X-0.450001X-1.075001X0.450001X-1.075001X0*%
%ADD20RoundRect,0.250000X0.400000X0.450000X-0.400000X0.450000X-0.400000X-0.450000X0.400000X-0.450000X0*%
%ADD21C,3.200000*%
%ADD22R,1.650000X2.540000*%
%ADD23RoundRect,0.249999X-0.450001X-1.075001X0.450001X-1.075001X0.450001X1.075001X-0.450001X1.075001X0*%
%ADD24R,3.810000X2.540000*%
%ADD25RoundRect,0.249999X1.075001X-0.450001X1.075001X0.450001X-1.075001X0.450001X-1.075001X-0.450001X0*%
%ADD26RoundRect,0.250000X-0.350000X-0.625000X0.350000X-0.625000X0.350000X0.625000X-0.350000X0.625000X0*%
%ADD27O,1.200000X1.750000*%
%ADD28R,1.130000X1.130000*%
%ADD29C,1.130000*%
%ADD30RoundRect,0.249999X-1.075001X0.450001X-1.075001X-0.450001X1.075001X-0.450001X1.075001X0.450001X0*%
G04 APERTURE END LIST*
D10*
X226500000Y-192400000D02*
G75*
G02*
X225900000Y-192400000I-300000J0D01*
G01*
X225900000Y-192400000D02*
G75*
G02*
X226500000Y-192400000I300000J0D01*
G01*
X226100000Y-170500000D02*
G75*
G02*
X225500000Y-170500000I-300000J0D01*
G01*
X225500000Y-170500000D02*
G75*
G02*
X226100000Y-170500000I300000J0D01*
G01*
X226200000Y-144700000D02*
G75*
G02*
X225600000Y-144700000I-300000J0D01*
G01*
X225600000Y-144700000D02*
G75*
G02*
X226200000Y-144700000I300000J0D01*
G01*
D11*
X225975000Y-118800000D02*
G75*
G02*
X225425000Y-118800000I-275000J0D01*
G01*
X225425000Y-118800000D02*
G75*
G02*
X225975000Y-118800000I275000J0D01*
G01*
X238075000Y-184300000D02*
G75*
G02*
X237525000Y-184300000I-275000J0D01*
G01*
X237525000Y-184300000D02*
G75*
G02*
X238075000Y-184300000I275000J0D01*
G01*
X236675000Y-183000000D02*
G75*
G02*
X236125000Y-183000000I-275000J0D01*
G01*
X236125000Y-183000000D02*
G75*
G02*
X236675000Y-183000000I275000J0D01*
G01*
X235575000Y-181500000D02*
G75*
G02*
X235025000Y-181500000I-275000J0D01*
G01*
X235025000Y-181500000D02*
G75*
G02*
X235575000Y-181500000I275000J0D01*
G01*
X232975000Y-179900000D02*
G75*
G02*
X232425000Y-179900000I-275000J0D01*
G01*
X232425000Y-179900000D02*
G75*
G02*
X232975000Y-179900000I275000J0D01*
G01*
X231875000Y-178100000D02*
G75*
G02*
X231325000Y-178100000I-275000J0D01*
G01*
X231325000Y-178100000D02*
G75*
G02*
X231875000Y-178100000I275000J0D01*
G01*
X238075000Y-161000000D02*
G75*
G02*
X237525000Y-161000000I-275000J0D01*
G01*
X237525000Y-161000000D02*
G75*
G02*
X238075000Y-161000000I275000J0D01*
G01*
X236675000Y-159450000D02*
G75*
G02*
X236125000Y-159450000I-275000J0D01*
G01*
X236125000Y-159450000D02*
G75*
G02*
X236675000Y-159450000I275000J0D01*
G01*
X235475000Y-157900000D02*
G75*
G02*
X234925000Y-157900000I-275000J0D01*
G01*
X234925000Y-157900000D02*
G75*
G02*
X235475000Y-157900000I275000J0D01*
G01*
X232875000Y-156400000D02*
G75*
G02*
X232325000Y-156400000I-275000J0D01*
G01*
X232325000Y-156400000D02*
G75*
G02*
X232875000Y-156400000I275000J0D01*
G01*
X231875000Y-154700000D02*
G75*
G02*
X231325000Y-154700000I-275000J0D01*
G01*
X231325000Y-154700000D02*
G75*
G02*
X231875000Y-154700000I275000J0D01*
G01*
X238075000Y-184300000D02*
G75*
G02*
X237525000Y-184300000I-275000J0D01*
G01*
X237525000Y-184300000D02*
G75*
G02*
X238075000Y-184300000I275000J0D01*
G01*
X236675000Y-183000000D02*
G75*
G02*
X236125000Y-183000000I-275000J0D01*
G01*
X236125000Y-183000000D02*
G75*
G02*
X236675000Y-183000000I275000J0D01*
G01*
X235575000Y-181500000D02*
G75*
G02*
X235025000Y-181500000I-275000J0D01*
G01*
X235025000Y-181500000D02*
G75*
G02*
X235575000Y-181500000I275000J0D01*
G01*
X232975000Y-179900000D02*
G75*
G02*
X232425000Y-179900000I-275000J0D01*
G01*
X232425000Y-179900000D02*
G75*
G02*
X232975000Y-179900000I275000J0D01*
G01*
X231875000Y-178100000D02*
G75*
G02*
X231325000Y-178100000I-275000J0D01*
G01*
X231325000Y-178100000D02*
G75*
G02*
X231875000Y-178100000I275000J0D01*
G01*
X228875000Y-176500000D02*
G75*
G02*
X228325000Y-176500000I-275000J0D01*
G01*
X228325000Y-176500000D02*
G75*
G02*
X228875000Y-176500000I275000J0D01*
G01*
X238075000Y-161000000D02*
G75*
G02*
X237525000Y-161000000I-275000J0D01*
G01*
X237525000Y-161000000D02*
G75*
G02*
X238075000Y-161000000I275000J0D01*
G01*
X235475000Y-157900000D02*
G75*
G02*
X234925000Y-157900000I-275000J0D01*
G01*
X234925000Y-157900000D02*
G75*
G02*
X235475000Y-157900000I275000J0D01*
G01*
X232875000Y-156400000D02*
G75*
G02*
X232325000Y-156400000I-275000J0D01*
G01*
X232325000Y-156400000D02*
G75*
G02*
X232875000Y-156400000I275000J0D01*
G01*
X231875000Y-154700000D02*
G75*
G02*
X231325000Y-154700000I-275000J0D01*
G01*
X231325000Y-154700000D02*
G75*
G02*
X231875000Y-154700000I275000J0D01*
G01*
X227775000Y-153500000D02*
G75*
G02*
X227225000Y-153500000I-275000J0D01*
G01*
X227225000Y-153500000D02*
G75*
G02*
X227775000Y-153500000I275000J0D01*
G01*
X238075000Y-136100000D02*
G75*
G02*
X237525000Y-136100000I-275000J0D01*
G01*
X237525000Y-136100000D02*
G75*
G02*
X238075000Y-136100000I275000J0D01*
G01*
X236675000Y-134500000D02*
G75*
G02*
X236125000Y-134500000I-275000J0D01*
G01*
X236125000Y-134500000D02*
G75*
G02*
X236675000Y-134500000I275000J0D01*
G01*
X235575000Y-133000000D02*
G75*
G02*
X235025000Y-133000000I-275000J0D01*
G01*
X235025000Y-133000000D02*
G75*
G02*
X235575000Y-133000000I275000J0D01*
G01*
X232975000Y-131500000D02*
G75*
G02*
X232425000Y-131500000I-275000J0D01*
G01*
X232425000Y-131500000D02*
G75*
G02*
X232975000Y-131500000I275000J0D01*
G01*
X231875000Y-130000000D02*
G75*
G02*
X231325000Y-130000000I-275000J0D01*
G01*
X231325000Y-130000000D02*
G75*
G02*
X231875000Y-130000000I275000J0D01*
G01*
X238075000Y-110100000D02*
G75*
G02*
X237525000Y-110100000I-275000J0D01*
G01*
X237525000Y-110100000D02*
G75*
G02*
X238075000Y-110100000I275000J0D01*
G01*
X236675000Y-108500000D02*
G75*
G02*
X236125000Y-108500000I-275000J0D01*
G01*
X236125000Y-108500000D02*
G75*
G02*
X236675000Y-108500000I275000J0D01*
G01*
X235575000Y-106900000D02*
G75*
G02*
X235025000Y-106900000I-275000J0D01*
G01*
X235025000Y-106900000D02*
G75*
G02*
X235575000Y-106900000I275000J0D01*
G01*
X232975000Y-105400000D02*
G75*
G02*
X232425000Y-105400000I-275000J0D01*
G01*
X232425000Y-105400000D02*
G75*
G02*
X232975000Y-105400000I275000J0D01*
G01*
X238075000Y-136100000D02*
G75*
G02*
X237525000Y-136100000I-275000J0D01*
G01*
X237525000Y-136100000D02*
G75*
G02*
X238075000Y-136100000I275000J0D01*
G01*
X236675000Y-134500000D02*
G75*
G02*
X236125000Y-134500000I-275000J0D01*
G01*
X236125000Y-134500000D02*
G75*
G02*
X236675000Y-134500000I275000J0D01*
G01*
X235575000Y-133000000D02*
G75*
G02*
X235025000Y-133000000I-275000J0D01*
G01*
X235025000Y-133000000D02*
G75*
G02*
X235575000Y-133000000I275000J0D01*
G01*
X232975000Y-131500000D02*
G75*
G02*
X232425000Y-131500000I-275000J0D01*
G01*
X232425000Y-131500000D02*
G75*
G02*
X232975000Y-131500000I275000J0D01*
G01*
X231875000Y-130000000D02*
G75*
G02*
X231325000Y-130000000I-275000J0D01*
G01*
X231325000Y-130000000D02*
G75*
G02*
X231875000Y-130000000I275000J0D01*
G01*
X227875000Y-128300000D02*
G75*
G02*
X227325000Y-128300000I-275000J0D01*
G01*
X227325000Y-128300000D02*
G75*
G02*
X227875000Y-128300000I275000J0D01*
G01*
X238075000Y-110100000D02*
G75*
G02*
X237525000Y-110100000I-275000J0D01*
G01*
X237525000Y-110100000D02*
G75*
G02*
X238075000Y-110100000I275000J0D01*
G01*
X236675000Y-108500000D02*
G75*
G02*
X236125000Y-108500000I-275000J0D01*
G01*
X236125000Y-108500000D02*
G75*
G02*
X236675000Y-108500000I275000J0D01*
G01*
X235575000Y-106900000D02*
G75*
G02*
X235025000Y-106900000I-275000J0D01*
G01*
X235025000Y-106900000D02*
G75*
G02*
X235575000Y-106900000I275000J0D01*
G01*
X232975000Y-105400000D02*
G75*
G02*
X232425000Y-105400000I-275000J0D01*
G01*
X232425000Y-105400000D02*
G75*
G02*
X232975000Y-105400000I275000J0D01*
G01*
X231675000Y-103900000D02*
G75*
G02*
X231125000Y-103900000I-275000J0D01*
G01*
X231125000Y-103900000D02*
G75*
G02*
X231675000Y-103900000I275000J0D01*
G01*
X227975000Y-102300000D02*
G75*
G02*
X227425000Y-102300000I-275000J0D01*
G01*
X227425000Y-102300000D02*
G75*
G02*
X227975000Y-102300000I275000J0D01*
G01*
D12*
X339333333Y-131435000D02*
X340933333Y-131435000D01*
X340933333Y-133435000D01*
X339333333Y-133435000D01*
X339333333Y-131435000D01*
G36*
X339333333Y-131435000D02*
G01*
X340933333Y-131435000D01*
X340933333Y-133435000D01*
X339333333Y-133435000D01*
X339333333Y-131435000D01*
G37*
X326533333Y-145335000D02*
X338433333Y-145335000D01*
X338433333Y-147335000D01*
X326533333Y-147335000D01*
X326533333Y-145335000D01*
G36*
X326533333Y-145335000D02*
G01*
X338433333Y-145335000D01*
X338433333Y-147335000D01*
X326533333Y-147335000D01*
X326533333Y-145335000D01*
G37*
X326505000Y-209835000D02*
X338405000Y-209835000D01*
X338405000Y-211835000D01*
X326505000Y-211835000D01*
X326505000Y-209835000D01*
G36*
X326505000Y-209835000D02*
G01*
X338405000Y-209835000D01*
X338405000Y-211835000D01*
X326505000Y-211835000D01*
X326505000Y-209835000D01*
G37*
X300200000Y-107750000D02*
X312100000Y-107750000D01*
X312100000Y-109750000D01*
X300200000Y-109750000D01*
X300200000Y-107750000D01*
G36*
X300200000Y-107750000D02*
G01*
X312100000Y-107750000D01*
X312100000Y-109750000D01*
X300200000Y-109750000D01*
X300200000Y-107750000D01*
G37*
X324100000Y-145350000D02*
X325700000Y-145350000D01*
X325700000Y-147350000D01*
X324100000Y-147350000D01*
X324100000Y-145350000D01*
G36*
X324100000Y-145350000D02*
G01*
X325700000Y-145350000D01*
X325700000Y-147350000D01*
X324100000Y-147350000D01*
X324100000Y-145350000D01*
G37*
X297466667Y-174195000D02*
X299066667Y-174195000D01*
X299066667Y-176195000D01*
X297466667Y-176195000D01*
X297466667Y-174195000D01*
G36*
X297466667Y-174195000D02*
G01*
X299066667Y-174195000D01*
X299066667Y-176195000D01*
X297466667Y-176195000D01*
X297466667Y-174195000D01*
G37*
X297800000Y-107750000D02*
X299400000Y-107750000D01*
X299400000Y-109750000D01*
X297800000Y-109750000D01*
X297800000Y-107750000D01*
G36*
X297800000Y-107750000D02*
G01*
X299400000Y-107750000D01*
X299400000Y-109750000D01*
X297800000Y-109750000D01*
X297800000Y-107750000D01*
G37*
X313000000Y-121750000D02*
X314600000Y-121750000D01*
X314600000Y-123750000D01*
X313000000Y-123750000D01*
X313000000Y-121750000D01*
G36*
X313000000Y-121750000D02*
G01*
X314600000Y-121750000D01*
X314600000Y-123750000D01*
X313000000Y-123750000D01*
X313000000Y-121750000D01*
G37*
X312666667Y-174195000D02*
X314266667Y-174195000D01*
X314266667Y-176195000D01*
X312666667Y-176195000D01*
X312666667Y-174195000D01*
G36*
X312666667Y-174195000D02*
G01*
X314266667Y-174195000D01*
X314266667Y-176195000D01*
X312666667Y-176195000D01*
X312666667Y-174195000D01*
G37*
X324105000Y-195935000D02*
X325705000Y-195935000D01*
X325705000Y-197935000D01*
X324105000Y-197935000D01*
X324105000Y-195935000D01*
G36*
X324105000Y-195935000D02*
G01*
X325705000Y-195935000D01*
X325705000Y-197935000D01*
X324105000Y-197935000D01*
X324105000Y-195935000D01*
G37*
X297466667Y-188195000D02*
X299066667Y-188195000D01*
X299066667Y-190195000D01*
X297466667Y-190195000D01*
X297466667Y-188195000D01*
G36*
X297466667Y-188195000D02*
G01*
X299066667Y-188195000D01*
X299066667Y-190195000D01*
X297466667Y-190195000D01*
X297466667Y-188195000D01*
G37*
X324105000Y-209935000D02*
X325705000Y-209935000D01*
X325705000Y-211935000D01*
X324105000Y-211935000D01*
X324105000Y-209935000D01*
G36*
X324105000Y-209935000D02*
G01*
X325705000Y-209935000D01*
X325705000Y-211935000D01*
X324105000Y-211935000D01*
X324105000Y-209935000D01*
G37*
X297800000Y-121650000D02*
X299400000Y-121650000D01*
X299400000Y-123650000D01*
X297800000Y-123650000D01*
X297800000Y-121650000D01*
G36*
X297800000Y-121650000D02*
G01*
X299400000Y-121650000D01*
X299400000Y-123650000D01*
X297800000Y-123650000D01*
X297800000Y-121650000D01*
G37*
X313000000Y-107750000D02*
X314600000Y-107750000D01*
X314600000Y-109750000D01*
X313000000Y-109750000D01*
X313000000Y-107750000D01*
G36*
X313000000Y-107750000D02*
G01*
X314600000Y-107750000D01*
X314600000Y-109750000D01*
X313000000Y-109750000D01*
X313000000Y-107750000D01*
G37*
X339305000Y-195935000D02*
X340905000Y-195935000D01*
X340905000Y-197935000D01*
X339305000Y-197935000D01*
X339305000Y-195935000D01*
G36*
X339305000Y-195935000D02*
G01*
X340905000Y-195935000D01*
X340905000Y-197935000D01*
X339305000Y-197935000D01*
X339305000Y-195935000D01*
G37*
X339333333Y-145435000D02*
X340933333Y-145435000D01*
X340933333Y-147435000D01*
X339333333Y-147435000D01*
X339333333Y-145435000D01*
G36*
X339333333Y-145435000D02*
G01*
X340933333Y-145435000D01*
X340933333Y-147435000D01*
X339333333Y-147435000D01*
X339333333Y-145435000D01*
G37*
X326533333Y-131435000D02*
X338433333Y-131435000D01*
X338433333Y-133435000D01*
X326533333Y-133435000D01*
X326533333Y-131435000D01*
G36*
X326533333Y-131435000D02*
G01*
X338433333Y-131435000D01*
X338433333Y-133435000D01*
X326533333Y-133435000D01*
X326533333Y-131435000D01*
G37*
X299866667Y-188095000D02*
X311766667Y-188095000D01*
X311766667Y-190095000D01*
X299866667Y-190095000D01*
X299866667Y-188095000D01*
G36*
X299866667Y-188095000D02*
G01*
X311766667Y-188095000D01*
X311766667Y-190095000D01*
X299866667Y-190095000D01*
X299866667Y-188095000D01*
G37*
X326505000Y-195935000D02*
X338405000Y-195935000D01*
X338405000Y-197935000D01*
X326505000Y-197935000D01*
X326505000Y-195935000D01*
G36*
X326505000Y-195935000D02*
G01*
X338405000Y-195935000D01*
X338405000Y-197935000D01*
X326505000Y-197935000D01*
X326505000Y-195935000D01*
G37*
X312666667Y-188195000D02*
X314266667Y-188195000D01*
X314266667Y-190195000D01*
X312666667Y-190195000D01*
X312666667Y-188195000D01*
G36*
X312666667Y-188195000D02*
G01*
X314266667Y-188195000D01*
X314266667Y-190195000D01*
X312666667Y-190195000D01*
X312666667Y-188195000D01*
G37*
X339305000Y-209935000D02*
X340905000Y-209935000D01*
X340905000Y-211935000D01*
X339305000Y-211935000D01*
X339305000Y-209935000D01*
G36*
X339305000Y-209935000D02*
G01*
X340905000Y-209935000D01*
X340905000Y-211935000D01*
X339305000Y-211935000D01*
X339305000Y-209935000D01*
G37*
X299866667Y-174195000D02*
X311766667Y-174195000D01*
X311766667Y-176195000D01*
X299866667Y-176195000D01*
X299866667Y-174195000D01*
G36*
X299866667Y-174195000D02*
G01*
X311766667Y-174195000D01*
X311766667Y-176195000D01*
X299866667Y-176195000D01*
X299866667Y-174195000D01*
G37*
X300200000Y-121650000D02*
X312100000Y-121650000D01*
X312100000Y-123650000D01*
X300200000Y-123650000D01*
X300200000Y-121650000D01*
G36*
X300200000Y-121650000D02*
G01*
X312100000Y-121650000D01*
X312100000Y-123650000D01*
X300200000Y-123650000D01*
X300200000Y-121650000D01*
G37*
X324133333Y-131435000D02*
X325733333Y-131435000D01*
X325733333Y-133435000D01*
X324133333Y-133435000D01*
X324133333Y-131435000D01*
G36*
X324133333Y-131435000D02*
G01*
X325733333Y-131435000D01*
X325733333Y-133435000D01*
X324133333Y-133435000D01*
X324133333Y-131435000D01*
G37*
D11*
X236675000Y-159450000D02*
G75*
G02*
X236125000Y-159450000I-275000J0D01*
G01*
X236125000Y-159450000D02*
G75*
G02*
X236675000Y-159450000I275000J0D01*
G01*
D13*
X327415000Y-182410000D03*
X327415000Y-187490000D03*
X322335000Y-187490000D03*
X322335000Y-182410000D03*
D14*
X324875000Y-184950000D03*
D15*
X232118750Y-115900000D03*
X232118750Y-116400000D03*
X232118750Y-116900000D03*
X232118750Y-117400000D03*
X232118750Y-117900000D03*
D16*
X233018750Y-118800000D03*
X233518750Y-118800000D03*
X234018750Y-118800000D03*
X234518750Y-118800000D03*
X235018750Y-118800000D03*
D15*
X235918750Y-117900000D03*
X235918750Y-117400000D03*
X235918750Y-116900000D03*
X235918750Y-116400000D03*
X235918750Y-115900000D03*
D16*
X235018750Y-115000000D03*
X234518750Y-115000000D03*
X234018750Y-115000000D03*
X233518750Y-115000000D03*
X233018750Y-115000000D03*
D17*
X234018750Y-116900000D03*
D18*
X247178750Y-116400000D03*
X251453750Y-116400000D03*
D14*
X203418750Y-189800000D03*
D13*
X200878750Y-187260000D03*
X200878750Y-192340000D03*
X205958750Y-192340000D03*
X205958750Y-187260000D03*
D19*
X219918750Y-199800000D03*
X215118750Y-199800000D03*
D18*
X215381250Y-116400000D03*
X219656250Y-116400000D03*
D14*
X263416250Y-142000000D03*
D13*
X260876250Y-139460000D03*
X260876250Y-144540000D03*
X265956250Y-144540000D03*
X265956250Y-139460000D03*
D14*
X298600000Y-96765000D03*
D13*
X296060000Y-94225000D03*
X296060000Y-99305000D03*
X301140000Y-99305000D03*
X301140000Y-94225000D03*
D14*
X263416250Y-189800000D03*
D13*
X260876250Y-187260000D03*
X260876250Y-192340000D03*
X265956250Y-192340000D03*
X265956250Y-187260000D03*
D18*
X215381250Y-166650000D03*
X219656250Y-166650000D03*
D14*
X263416250Y-166650000D03*
D13*
X260876250Y-164110000D03*
X260876250Y-169190000D03*
X265956250Y-169190000D03*
X265956250Y-164110000D03*
D19*
X219918750Y-126400000D03*
X215118750Y-126400000D03*
D14*
X180460000Y-148210000D03*
D13*
X177920000Y-145670000D03*
X177920000Y-150750000D03*
X183000000Y-150750000D03*
X183000000Y-145670000D03*
D18*
X215381250Y-142000000D03*
X219656250Y-142000000D03*
X215381250Y-189800000D03*
X219656250Y-189800000D03*
D20*
X238750000Y-149450000D03*
X235850000Y-149450000D03*
D14*
X313820000Y-96765000D03*
D13*
X311280000Y-94225000D03*
X311280000Y-99305000D03*
X316360000Y-99305000D03*
X316360000Y-94225000D03*
D15*
X232021250Y-166150000D03*
X232021250Y-166650000D03*
X232021250Y-167150000D03*
X232021250Y-167650000D03*
X232021250Y-168150000D03*
D16*
X232921250Y-169050000D03*
X233421250Y-169050000D03*
X233921250Y-169050000D03*
X234421250Y-169050000D03*
X234921250Y-169050000D03*
D15*
X235821250Y-168150000D03*
X235821250Y-167650000D03*
X235821250Y-167150000D03*
X235821250Y-166650000D03*
X235821250Y-166150000D03*
D16*
X234921250Y-165250000D03*
X234421250Y-165250000D03*
X233921250Y-165250000D03*
X233421250Y-165250000D03*
X232921250Y-165250000D03*
D17*
X233921250Y-167150000D03*
D15*
X232121250Y-189300000D03*
X232121250Y-189800000D03*
X232121250Y-190300000D03*
X232121250Y-190800000D03*
X232121250Y-191300000D03*
D16*
X233021250Y-192200000D03*
X233521250Y-192200000D03*
X234021250Y-192200000D03*
X234521250Y-192200000D03*
X235021250Y-192200000D03*
D15*
X235921250Y-191300000D03*
X235921250Y-190800000D03*
X235921250Y-190300000D03*
X235921250Y-189800000D03*
X235921250Y-189300000D03*
D16*
X235021250Y-188400000D03*
X234521250Y-188400000D03*
X234021250Y-188400000D03*
X233521250Y-188400000D03*
X233021250Y-188400000D03*
D17*
X234021250Y-190300000D03*
D21*
X342200000Y-159350000D03*
D22*
X324885000Y-208650000D03*
X327425000Y-208650000D03*
X329965000Y-208650000D03*
X332505000Y-208650000D03*
X335045000Y-208650000D03*
X337585000Y-208650000D03*
X340125000Y-208650000D03*
X340125000Y-199250000D03*
X337585000Y-199250000D03*
X335045000Y-199250000D03*
X332505000Y-199250000D03*
X329965000Y-199250000D03*
X327425000Y-199250000D03*
X324885000Y-199250000D03*
X324880000Y-144150000D03*
X327420000Y-144150000D03*
X329960000Y-144150000D03*
X332500000Y-144150000D03*
X335040000Y-144150000D03*
X337580000Y-144150000D03*
X340120000Y-144150000D03*
X340120000Y-134750000D03*
X337580000Y-134750000D03*
X335040000Y-134750000D03*
X332500000Y-134750000D03*
X329960000Y-134750000D03*
X327420000Y-134750000D03*
X324880000Y-134750000D03*
D14*
X324880000Y-120450000D03*
D13*
X322340000Y-117910000D03*
X322340000Y-122990000D03*
X327420000Y-122990000D03*
X327420000Y-117910000D03*
D14*
X263416250Y-116400000D03*
D13*
X260876250Y-113860000D03*
X260876250Y-118940000D03*
X265956250Y-118940000D03*
X265956250Y-113860000D03*
D21*
X136200000Y-226200000D03*
D14*
X180460000Y-178210000D03*
D13*
X177920000Y-175670000D03*
X177920000Y-180750000D03*
X183000000Y-180750000D03*
X183000000Y-175670000D03*
D14*
X203418750Y-166650000D03*
D13*
X200878750Y-164110000D03*
X200878750Y-169190000D03*
X205958750Y-169190000D03*
X205958750Y-164110000D03*
D14*
X340100000Y-120450000D03*
D13*
X337560000Y-117910000D03*
X337560000Y-122990000D03*
X342640000Y-122990000D03*
X342640000Y-117910000D03*
D14*
X146995000Y-155710000D03*
D13*
X144455000Y-153170000D03*
X144455000Y-158250000D03*
X149535000Y-158250000D03*
X149535000Y-153170000D03*
D19*
X219918750Y-176650000D03*
X215118750Y-176650000D03*
D23*
X237900000Y-153750000D03*
X242700000Y-153750000D03*
D19*
X219918750Y-152000000D03*
X215118750Y-152000000D03*
D20*
X238550000Y-123350000D03*
X235650000Y-123350000D03*
D14*
X298280000Y-163210000D03*
D13*
X295740000Y-160670000D03*
X295740000Y-165750000D03*
X300820000Y-165750000D03*
X300820000Y-160670000D03*
D24*
X159530000Y-148090000D03*
X167660000Y-148090000D03*
X159530000Y-153170000D03*
X167660000Y-153170000D03*
X159530000Y-158250000D03*
X167660000Y-158250000D03*
X159530000Y-163330000D03*
X167660000Y-163330000D03*
D14*
X313520000Y-163210000D03*
D13*
X310980000Y-160670000D03*
X310980000Y-165750000D03*
X316060000Y-165750000D03*
X316060000Y-160670000D03*
D21*
X239200000Y-92500000D03*
D23*
X239100000Y-201550000D03*
X243900000Y-201550000D03*
D25*
X227500000Y-160250000D03*
X227500000Y-155450000D03*
D14*
X180460000Y-133210000D03*
D13*
X177920000Y-130670000D03*
X177920000Y-135750000D03*
X183000000Y-135750000D03*
X183000000Y-130670000D03*
D14*
X180460000Y-163210000D03*
D13*
X177920000Y-160670000D03*
X177920000Y-165750000D03*
X183000000Y-165750000D03*
X183000000Y-160670000D03*
D18*
X247281250Y-142000000D03*
X251556250Y-142000000D03*
D20*
X238750000Y-197850000D03*
X235850000Y-197850000D03*
D21*
X239200000Y-226200000D03*
D23*
X237100000Y-128450000D03*
X241900000Y-128450000D03*
D14*
X203418750Y-142000000D03*
D13*
X200878750Y-139460000D03*
X200878750Y-144540000D03*
X205958750Y-144540000D03*
X205958750Y-139460000D03*
D22*
X298280000Y-186910000D03*
X300820000Y-186910000D03*
X303360000Y-186910000D03*
X305900000Y-186910000D03*
X308440000Y-186910000D03*
X310980000Y-186910000D03*
X313520000Y-186910000D03*
X313520000Y-177510000D03*
X310980000Y-177510000D03*
X308440000Y-177510000D03*
X305900000Y-177510000D03*
X303360000Y-177510000D03*
X300820000Y-177510000D03*
X298280000Y-177510000D03*
D25*
X227700000Y-135250000D03*
X227700000Y-130450000D03*
X227700000Y-108700000D03*
X227700000Y-103900000D03*
D26*
X188018750Y-222300000D03*
D27*
X190018750Y-222300000D03*
X192018750Y-222300000D03*
X194018750Y-222300000D03*
X196018750Y-222300000D03*
X198018750Y-222300000D03*
D18*
X247081250Y-166650000D03*
X251356250Y-166650000D03*
D21*
X342200000Y-226200000D03*
D26*
X286100000Y-222150000D03*
D27*
X288100000Y-222150000D03*
X290100000Y-222150000D03*
X292100000Y-222150000D03*
X294100000Y-222150000D03*
X296100000Y-222150000D03*
D22*
X298580000Y-120465000D03*
X301120000Y-120465000D03*
X303660000Y-120465000D03*
X306200000Y-120465000D03*
X308740000Y-120465000D03*
X311280000Y-120465000D03*
X313820000Y-120465000D03*
X313820000Y-111065000D03*
X311280000Y-111065000D03*
X308740000Y-111065000D03*
X306200000Y-111065000D03*
X303660000Y-111065000D03*
X301120000Y-111065000D03*
X298580000Y-111065000D03*
D21*
X342200000Y-92500000D03*
D18*
X247181250Y-189800000D03*
X251456250Y-189800000D03*
D25*
X228600000Y-183050000D03*
X228600000Y-178250000D03*
D23*
X238500000Y-178450000D03*
X243300000Y-178450000D03*
D21*
X136200000Y-92500000D03*
D20*
X238950000Y-174050000D03*
X236050000Y-174050000D03*
D21*
X136200000Y-159350000D03*
D14*
X340125000Y-184950000D03*
D13*
X337585000Y-182410000D03*
X337585000Y-187490000D03*
X342665000Y-187490000D03*
X342665000Y-182410000D03*
D15*
X232118750Y-141500000D03*
X232118750Y-142000000D03*
X232118750Y-142500000D03*
X232118750Y-143000000D03*
X232118750Y-143500000D03*
D16*
X233018750Y-144400000D03*
X233518750Y-144400000D03*
X234018750Y-144400000D03*
X234518750Y-144400000D03*
X235018750Y-144400000D03*
D15*
X235918750Y-143500000D03*
X235918750Y-143000000D03*
X235918750Y-142500000D03*
X235918750Y-142000000D03*
X235918750Y-141500000D03*
D16*
X235018750Y-140600000D03*
X234518750Y-140600000D03*
X234018750Y-140600000D03*
X233518750Y-140600000D03*
X233018750Y-140600000D03*
D17*
X234018750Y-142500000D03*
D14*
X203418750Y-116400000D03*
D13*
X200878750Y-113860000D03*
X200878750Y-118940000D03*
X205958750Y-118940000D03*
X205958750Y-113860000D03*
D28*
X295030000Y-202868690D03*
D29*
X295030000Y-205408690D03*
X295030000Y-207948690D03*
X295030000Y-210488690D03*
X302970000Y-210488690D03*
X302970000Y-207948690D03*
X302970000Y-205408690D03*
X302970000Y-202868690D03*
D30*
X307995000Y-209201786D03*
X307995000Y-214001786D03*
X307995000Y-199037500D03*
X307995000Y-203837500D03*
X290170000Y-199091071D03*
X290170000Y-203891071D03*
X290170000Y-209237500D03*
X290170000Y-214037500D03*
D26*
X255668750Y-95750000D03*
D27*
X257668750Y-95750000D03*
X259668750Y-95750000D03*
X261668750Y-95750000D03*
X263668750Y-95750000D03*
X265668750Y-95750000D03*
X267668750Y-95750000D03*
X269668750Y-95750000D03*
D30*
X307995000Y-132425714D03*
X307995000Y-137225714D03*
X307995000Y-142590000D03*
X307995000Y-147390000D03*
X290170000Y-142590000D03*
X290170000Y-147390000D03*
D28*
X295030000Y-136240000D03*
D29*
X295030000Y-138780000D03*
X295030000Y-141320000D03*
X295030000Y-143860000D03*
X302970000Y-143860000D03*
X302970000Y-141320000D03*
X302970000Y-138780000D03*
X302970000Y-136240000D03*
D30*
X290170000Y-132443571D03*
X290170000Y-137243571D03*
D26*
X255618750Y-222300000D03*
D27*
X257618750Y-222300000D03*
X259618750Y-222300000D03*
X261618750Y-222300000D03*
X263618750Y-222300000D03*
X265618750Y-222300000D03*
X267618750Y-222300000D03*
X269618750Y-222300000D03*
M02*
