G04 #@! TF.GenerationSoftware,KiCad,Pcbnew,9.0.0*
G04 #@! TF.CreationDate,2026-03-11T14:35:33-04:00*
G04 #@! TF.ProjectId,4x4_compression_matrix_modular_split,3478345f-636f-46d7-9072-657373696f6e,rev?*
G04 #@! TF.SameCoordinates,Original*
G04 #@! TF.FileFunction,Legend,Bot*
G04 #@! TF.FilePolarity,Positive*
%FSLAX46Y46*%
G04 Gerber Fmt 4.6, Leading zero omitted, Abs format (unit mm)*
G04 Created by KiCad (PCBNEW 9.0.0) date 2026-03-11 14:35:33*
%MOMM*%
%LPD*%
G01*
G04 APERTURE LIST*
G04 Aperture macros list*
%AMRoundRect*
0 Rectangle with rounded corners*
0 $1 Rounding radius*
0 $2 $3 $4 $5 $6 $7 $8 $9 X,Y pos of 4 corners*
0 Add a 4 corners polygon primitive as box body*
4,1,4,$2,$3,$4,$5,$6,$7,$8,$9,$2,$3,0*
0 Add four circle primitives for the rounded corners*
1,1,$1+$1,$2,$3*
1,1,$1+$1,$4,$5*
1,1,$1+$1,$6,$7*
1,1,$1+$1,$8,$9*
0 Add four rect primitives between the rounded corners*
20,1,$1+$1,$2,$3,$4,$5,0*
20,1,$1+$1,$4,$5,$6,$7,0*
20,1,$1+$1,$6,$7,$8,$9,0*
20,1,$1+$1,$8,$9,$2,$3,0*%
G04 Aperture macros list end*
%ADD10C,2.100000*%
%ADD11C,1.650000*%
%ADD12C,3.200000*%
%ADD13RoundRect,0.250000X-0.350000X-0.625000X0.350000X-0.625000X0.350000X0.625000X-0.350000X0.625000X0*%
%ADD14O,1.200000X1.750000*%
%ADD15R,1.130000X1.130000*%
%ADD16C,1.130000*%
G04 APERTURE END LIST*
%LPC*%
D10*
X327415000Y-182410000D03*
X327415000Y-187490000D03*
X322335000Y-187490000D03*
X322335000Y-182410000D03*
D11*
X324875000Y-184950000D03*
X203418750Y-189800000D03*
D10*
X200878750Y-187260000D03*
X200878750Y-192340000D03*
X205958750Y-192340000D03*
X205958750Y-187260000D03*
D11*
X263416250Y-142000000D03*
D10*
X260876250Y-139460000D03*
X260876250Y-144540000D03*
X265956250Y-144540000D03*
X265956250Y-139460000D03*
D11*
X298600000Y-96765000D03*
D10*
X296060000Y-94225000D03*
X296060000Y-99305000D03*
X301140000Y-99305000D03*
X301140000Y-94225000D03*
D11*
X263416250Y-189800000D03*
D10*
X260876250Y-187260000D03*
X260876250Y-192340000D03*
X265956250Y-192340000D03*
X265956250Y-187260000D03*
D11*
X263416250Y-166650000D03*
D10*
X260876250Y-164110000D03*
X260876250Y-169190000D03*
X265956250Y-169190000D03*
X265956250Y-164110000D03*
D11*
X180460000Y-148210000D03*
D10*
X177920000Y-145670000D03*
X177920000Y-150750000D03*
X183000000Y-150750000D03*
X183000000Y-145670000D03*
D11*
X313820000Y-96765000D03*
D10*
X311280000Y-94225000D03*
X311280000Y-99305000D03*
X316360000Y-99305000D03*
X316360000Y-94225000D03*
D12*
X342200000Y-159350000D03*
D11*
X324880000Y-120450000D03*
D10*
X322340000Y-117910000D03*
X322340000Y-122990000D03*
X327420000Y-122990000D03*
X327420000Y-117910000D03*
D11*
X263416250Y-116400000D03*
D10*
X260876250Y-113860000D03*
X260876250Y-118940000D03*
X265956250Y-118940000D03*
X265956250Y-113860000D03*
D12*
X136200000Y-226200000D03*
D11*
X180460000Y-178210000D03*
D10*
X177920000Y-175670000D03*
X177920000Y-180750000D03*
X183000000Y-180750000D03*
X183000000Y-175670000D03*
D11*
X203418750Y-166650000D03*
D10*
X200878750Y-164110000D03*
X200878750Y-169190000D03*
X205958750Y-169190000D03*
X205958750Y-164110000D03*
D11*
X340100000Y-120450000D03*
D10*
X337560000Y-117910000D03*
X337560000Y-122990000D03*
X342640000Y-122990000D03*
X342640000Y-117910000D03*
D11*
X146995000Y-155710000D03*
D10*
X144455000Y-153170000D03*
X144455000Y-158250000D03*
X149535000Y-158250000D03*
X149535000Y-153170000D03*
D11*
X298280000Y-163210000D03*
D10*
X295740000Y-160670000D03*
X295740000Y-165750000D03*
X300820000Y-165750000D03*
X300820000Y-160670000D03*
D11*
X313520000Y-163210000D03*
D10*
X310980000Y-160670000D03*
X310980000Y-165750000D03*
X316060000Y-165750000D03*
X316060000Y-160670000D03*
D12*
X239200000Y-92500000D03*
D11*
X180460000Y-133210000D03*
D10*
X177920000Y-130670000D03*
X177920000Y-135750000D03*
X183000000Y-135750000D03*
X183000000Y-130670000D03*
D11*
X180460000Y-163210000D03*
D10*
X177920000Y-160670000D03*
X177920000Y-165750000D03*
X183000000Y-165750000D03*
X183000000Y-160670000D03*
D12*
X239200000Y-226200000D03*
D11*
X203418750Y-142000000D03*
D10*
X200878750Y-139460000D03*
X200878750Y-144540000D03*
X205958750Y-144540000D03*
X205958750Y-139460000D03*
D13*
X188018750Y-222300000D03*
D14*
X190018750Y-222300000D03*
X192018750Y-222300000D03*
X194018750Y-222300000D03*
X196018750Y-222300000D03*
X198018750Y-222300000D03*
D12*
X342200000Y-226200000D03*
D13*
X286100000Y-222150000D03*
D14*
X288100000Y-222150000D03*
X290100000Y-222150000D03*
X292100000Y-222150000D03*
X294100000Y-222150000D03*
X296100000Y-222150000D03*
D12*
X342200000Y-92500000D03*
X136200000Y-92500000D03*
X136200000Y-159350000D03*
D11*
X340125000Y-184950000D03*
D10*
X337585000Y-182410000D03*
X337585000Y-187490000D03*
X342665000Y-187490000D03*
X342665000Y-182410000D03*
D11*
X203418750Y-116400000D03*
D10*
X200878750Y-113860000D03*
X200878750Y-118940000D03*
X205958750Y-118940000D03*
X205958750Y-113860000D03*
D15*
X295030000Y-202868690D03*
D16*
X295030000Y-205408690D03*
X295030000Y-207948690D03*
X295030000Y-210488690D03*
X302970000Y-210488690D03*
X302970000Y-207948690D03*
X302970000Y-205408690D03*
X302970000Y-202868690D03*
D13*
X255668750Y-95750000D03*
D14*
X257668750Y-95750000D03*
X259668750Y-95750000D03*
X261668750Y-95750000D03*
X263668750Y-95750000D03*
X265668750Y-95750000D03*
X267668750Y-95750000D03*
X269668750Y-95750000D03*
D15*
X295030000Y-136240000D03*
D16*
X295030000Y-138780000D03*
X295030000Y-141320000D03*
X295030000Y-143860000D03*
X302970000Y-143860000D03*
X302970000Y-141320000D03*
X302970000Y-138780000D03*
X302970000Y-136240000D03*
D13*
X255618750Y-222300000D03*
D14*
X257618750Y-222300000D03*
X259618750Y-222300000D03*
X261618750Y-222300000D03*
X263618750Y-222300000D03*
X265618750Y-222300000D03*
X267618750Y-222300000D03*
X269618750Y-222300000D03*
%LPD*%
M02*
