G04 #@! TF.GenerationSoftware,KiCad,Pcbnew,9.0.0*
G04 #@! TF.CreationDate,2026-03-11T14:47:02-04:00*
G04 #@! TF.ProjectId,4x4_compression_matrix_modular_control,3478345f-636f-46d7-9072-657373696f6e,rev?*
G04 #@! TF.SameCoordinates,Original*
G04 #@! TF.FileFunction,Paste,Top*
G04 #@! TF.FilePolarity,Positive*
%FSLAX46Y46*%
G04 Gerber Fmt 4.6, Leading zero omitted, Abs format (unit mm)*
G04 Created by KiCad (PCBNEW 9.0.0) date 2026-03-11 14:47:02*
%MOMM*%
%LPD*%
G01*
G04 APERTURE LIST*
G04 Aperture macros list*
%AMRoundRect*
0 Rectangle with rounded corners*
0 $1 Rounding radius*
0 $2 $3 $4 $5 $6 $7 $8 $9 X,Y pos of 4 corners*
0 Add a 4 corners polygon primitive as box body*
4,1,4,$2,$3,$4,$5,$6,$7,$8,$9,$2,$3,0*
0 Add four circle primitives for the rounded corners*
1,1,$1+$1,$2,$3*
1,1,$1+$1,$4,$5*
1,1,$1+$1,$6,$7*
1,1,$1+$1,$8,$9*
0 Add four rect primitives between the rounded corners*
20,1,$1+$1,$2,$3,$4,$5,0*
20,1,$1+$1,$4,$5,$6,$7,0*
20,1,$1+$1,$6,$7,$8,$9,0*
20,1,$1+$1,$8,$9,$2,$3,0*%
G04 Aperture macros list end*
%ADD10C,0.100000*%
%ADD11RoundRect,0.249999X-1.075001X0.450001X-1.075001X-0.450001X1.075001X-0.450001X1.075001X0.450001X0*%
%ADD12RoundRect,0.250000X-2.050000X-0.300000X2.050000X-0.300000X2.050000X0.300000X-2.050000X0.300000X0*%
%ADD13RoundRect,0.250000X-2.025000X-2.375000X2.025000X-2.375000X2.025000X2.375000X-2.025000X2.375000X0*%
%ADD14RoundRect,0.250000X0.537500X1.450000X-0.537500X1.450000X-0.537500X-1.450000X0.537500X-1.450000X0*%
%ADD15RoundRect,0.250000X1.450000X-0.537500X1.450000X0.537500X-1.450000X0.537500X-1.450000X-0.537500X0*%
%ADD16RoundRect,0.249999X0.450001X1.075001X-0.450001X1.075001X-0.450001X-1.075001X0.450001X-1.075001X0*%
%ADD17RoundRect,0.250000X-1.450000X0.537500X-1.450000X-0.537500X1.450000X-0.537500X1.450000X0.537500X0*%
%ADD18RoundRect,0.250000X-0.300000X2.050000X-0.300000X-2.050000X0.300000X-2.050000X0.300000X2.050000X0*%
%ADD19RoundRect,0.250000X-2.375000X2.025000X-2.375000X-2.025000X2.375000X-2.025000X2.375000X2.025000X0*%
G04 APERTURE END LIST*
D10*
X326865000Y-356275000D02*
X330265000Y-356275000D01*
X330265000Y-357175000D01*
X326865000Y-357175000D01*
X326865000Y-356275000D01*
G36*
X326865000Y-356275000D02*
G01*
X330265000Y-356275000D01*
X330265000Y-357175000D01*
X326865000Y-357175000D01*
X326865000Y-356275000D01*
G37*
X327115000Y-325850000D02*
X330515000Y-325850000D01*
X330515000Y-326750000D01*
X327115000Y-326750000D01*
X327115000Y-325850000D01*
G36*
X327115000Y-325850000D02*
G01*
X330515000Y-325850000D01*
X330515000Y-326750000D01*
X327115000Y-326750000D01*
X327115000Y-325850000D01*
G37*
X326865000Y-354600000D02*
X330265000Y-354600000D01*
X330265000Y-355500000D01*
X326865000Y-355500000D01*
X326865000Y-354600000D01*
G36*
X326865000Y-354600000D02*
G01*
X330265000Y-354600000D01*
X330265000Y-355500000D01*
X326865000Y-355500000D01*
X326865000Y-354600000D01*
G37*
X346015000Y-320500000D02*
X348115000Y-320500000D01*
X348115000Y-332100000D01*
X346015000Y-332100000D01*
X346015000Y-320500000D01*
G36*
X346015000Y-320500000D02*
G01*
X348115000Y-320500000D01*
X348115000Y-332100000D01*
X346015000Y-332100000D01*
X346015000Y-320500000D01*
G37*
X364575000Y-327500000D02*
X365475000Y-327500000D01*
X365475000Y-330900000D01*
X364575000Y-330900000D01*
X364575000Y-327500000D01*
G36*
X364575000Y-327500000D02*
G01*
X365475000Y-327500000D01*
X365475000Y-330900000D01*
X364575000Y-330900000D01*
X364575000Y-327500000D01*
G37*
X345765000Y-349225000D02*
X347865000Y-349225000D01*
X347865000Y-360825000D01*
X345765000Y-360825000D01*
X345765000Y-349225000D01*
G36*
X345765000Y-349225000D02*
G01*
X347865000Y-349225000D01*
X347865000Y-360825000D01*
X345765000Y-360825000D01*
X345765000Y-349225000D01*
G37*
X327115000Y-327550000D02*
X330515000Y-327550000D01*
X330515000Y-328450000D01*
X327115000Y-328450000D01*
X327115000Y-327550000D01*
G36*
X327115000Y-327550000D02*
G01*
X330515000Y-327550000D01*
X330515000Y-328450000D01*
X327115000Y-328450000D01*
X327115000Y-327550000D01*
G37*
X361175000Y-327500000D02*
X362075000Y-327500000D01*
X362075000Y-330900000D01*
X361175000Y-330900000D01*
X361175000Y-327500000D01*
G36*
X361175000Y-327500000D02*
G01*
X362075000Y-327500000D01*
X362075000Y-330900000D01*
X361175000Y-330900000D01*
X361175000Y-327500000D01*
G37*
X327115000Y-329250000D02*
X330515000Y-329250000D01*
X330515000Y-330150000D01*
X327115000Y-330150000D01*
X327115000Y-329250000D01*
G36*
X327115000Y-329250000D02*
G01*
X330515000Y-329250000D01*
X330515000Y-330150000D01*
X327115000Y-330150000D01*
X327115000Y-329250000D01*
G37*
X362875000Y-327500000D02*
X363775000Y-327500000D01*
X363775000Y-330900000D01*
X362875000Y-330900000D01*
X362875000Y-327500000D01*
G36*
X362875000Y-327500000D02*
G01*
X363775000Y-327500000D01*
X363775000Y-330900000D01*
X362875000Y-330900000D01*
X362875000Y-327500000D01*
G37*
X326865000Y-357975000D02*
X330265000Y-357975000D01*
X330265000Y-358875000D01*
X326865000Y-358875000D01*
X326865000Y-357975000D01*
G36*
X326865000Y-357975000D02*
G01*
X330265000Y-357975000D01*
X330265000Y-358875000D01*
X326865000Y-358875000D01*
X326865000Y-357975000D01*
G37*
X359275000Y-346500000D02*
X370875000Y-346500000D01*
X370875000Y-348600000D01*
X359275000Y-348600000D01*
X359275000Y-346500000D01*
G36*
X359275000Y-346500000D02*
G01*
X370875000Y-346500000D01*
X370875000Y-348600000D01*
X359275000Y-348600000D01*
X359275000Y-346500000D01*
G37*
D11*
X316600000Y-319100000D03*
X316600000Y-323900000D03*
D12*
X332275000Y-351625000D03*
X332275000Y-353325000D03*
X332275000Y-355025000D03*
D13*
X339000000Y-352250000D03*
X339000000Y-357800000D03*
X343850000Y-352250000D03*
X343850000Y-357800000D03*
D12*
X332275000Y-356725000D03*
X332275000Y-358425000D03*
D11*
X316600000Y-329100000D03*
X316600000Y-333900000D03*
D14*
X332275000Y-345800000D03*
X328000000Y-345800000D03*
X366937500Y-310900000D03*
X362662500Y-310900000D03*
D15*
X374200000Y-333035000D03*
X374200000Y-328760000D03*
D16*
X362500000Y-317500000D03*
X357700000Y-317500000D03*
D12*
X332425000Y-322900000D03*
X332425000Y-324600000D03*
X332425000Y-326300000D03*
D13*
X339150000Y-323525000D03*
X339150000Y-329075000D03*
X344000000Y-323525000D03*
X344000000Y-329075000D03*
D12*
X332425000Y-328000000D03*
X332425000Y-329700000D03*
D17*
X309865000Y-353062500D03*
X309865000Y-357337500D03*
D18*
X368425000Y-333060000D03*
X366725000Y-333060000D03*
X365025000Y-333060000D03*
D19*
X367800000Y-339785000D03*
X362250000Y-339785000D03*
X367800000Y-344635000D03*
X362250000Y-344635000D03*
D18*
X363325000Y-333060000D03*
X361625000Y-333060000D03*
D11*
X316450000Y-348000000D03*
X316450000Y-352800000D03*
D16*
X374200000Y-317435000D03*
X369400000Y-317435000D03*
D14*
X332425000Y-315775000D03*
X328150000Y-315775000D03*
D11*
X316450000Y-357500000D03*
X316450000Y-362300000D03*
D17*
X310115000Y-324137500D03*
X310115000Y-328412500D03*
M02*
