G04 #@! TF.GenerationSoftware,KiCad,Pcbnew,9.0.0*
G04 #@! TF.CreationDate,2026-03-11T14:47:02-04:00*
G04 #@! TF.ProjectId,4x4_compression_matrix_modular_control,3478345f-636f-46d7-9072-657373696f6e,rev?*
G04 #@! TF.SameCoordinates,Original*
G04 #@! TF.FileFunction,Soldermask,Bot*
G04 #@! TF.FilePolarity,Negative*
%FSLAX46Y46*%
G04 Gerber Fmt 4.6, Leading zero omitted, Abs format (unit mm)*
G04 Created by KiCad (PCBNEW 9.0.0) date 2026-03-11 14:47:02*
%MOMM*%
%LPD*%
G01*
G04 APERTURE LIST*
G04 Aperture macros list*
%AMRoundRect*
0 Rectangle with rounded corners*
0 $1 Rounding radius*
0 $2 $3 $4 $5 $6 $7 $8 $9 X,Y pos of 4 corners*
0 Add a 4 corners polygon primitive as box body*
4,1,4,$2,$3,$4,$5,$6,$7,$8,$9,$2,$3,0*
0 Add four circle primitives for the rounded corners*
1,1,$1+$1,$2,$3*
1,1,$1+$1,$4,$5*
1,1,$1+$1,$6,$7*
1,1,$1+$1,$8,$9*
0 Add four rect primitives between the rounded corners*
20,1,$1+$1,$2,$3,$4,$5,0*
20,1,$1+$1,$4,$5,$6,$7,0*
20,1,$1+$1,$6,$7,$8,$9,0*
20,1,$1+$1,$8,$9,$2,$3,0*%
G04 Aperture macros list end*
%ADD10RoundRect,0.250000X-0.350000X-0.625000X0.350000X-0.625000X0.350000X0.625000X-0.350000X0.625000X0*%
%ADD11O,1.200000X1.750000*%
%ADD12C,3.200000*%
%ADD13O,1.700000X1.700000*%
%ADD14R,1.700000X1.700000*%
%ADD15C,3.300000*%
%ADD16R,1.600000X1.600000*%
%ADD17O,1.600000X1.600000*%
%ADD18C,1.650000*%
%ADD19C,2.100000*%
G04 APERTURE END LIST*
D10*
X269720937Y-285625000D03*
D11*
X271720937Y-285625000D03*
X273720937Y-285625000D03*
X275720937Y-285625000D03*
X277720937Y-285625000D03*
X279720937Y-285625000D03*
D10*
X326564999Y-285625000D03*
D11*
X328564999Y-285625000D03*
X330564999Y-285625000D03*
X332564999Y-285625000D03*
X334564999Y-285625000D03*
X336564999Y-285625000D03*
D12*
X116220937Y-369425000D03*
X376220937Y-369425000D03*
D10*
X307787604Y-285625000D03*
D11*
X309787604Y-285625000D03*
X311787604Y-285625000D03*
X313787604Y-285625000D03*
X315787604Y-285625000D03*
X317787604Y-285625000D03*
D10*
X228854271Y-285625000D03*
D11*
X230854271Y-285625000D03*
X232854271Y-285625000D03*
X234854271Y-285625000D03*
X236854271Y-285625000D03*
X238854271Y-285625000D03*
D12*
X246220937Y-369425000D03*
D10*
X288754270Y-285625000D03*
D11*
X290754270Y-285625000D03*
X292754270Y-285625000D03*
X294754270Y-285625000D03*
X296754270Y-285625000D03*
X298754270Y-285625000D03*
D10*
X209820937Y-285625000D03*
D11*
X211820937Y-285625000D03*
X213820937Y-285625000D03*
X215820937Y-285625000D03*
X217820937Y-285625000D03*
X219820937Y-285625000D03*
D10*
X190787604Y-285625000D03*
D11*
X192787604Y-285625000D03*
X194787604Y-285625000D03*
X196787604Y-285625000D03*
X198787604Y-285625000D03*
X200787604Y-285625000D03*
D13*
X195560000Y-325340000D03*
X198100000Y-325340000D03*
X200640000Y-325340000D03*
X203180000Y-325340000D03*
X205720000Y-325340000D03*
X208260000Y-325340000D03*
X210800000Y-325340000D03*
X213340000Y-325340000D03*
D14*
X226040000Y-312640000D03*
D13*
X223500000Y-312640000D03*
X220960000Y-312640000D03*
X218420000Y-312640000D03*
X220960000Y-325340000D03*
X218420000Y-325340000D03*
X215880000Y-325340000D03*
X215880000Y-312640000D03*
X223500000Y-325340000D03*
D14*
X226040000Y-325340000D03*
D13*
X213340000Y-312640000D03*
X210800000Y-312640000D03*
X208260000Y-312640000D03*
X205720000Y-312640000D03*
X203180000Y-312640000D03*
X200640000Y-312640000D03*
X198100000Y-312640000D03*
X195560000Y-312640000D03*
D15*
X280937500Y-341672500D03*
X257827500Y-341672500D03*
D13*
X265197500Y-341672500D03*
X272817500Y-341672500D03*
X275357500Y-341672500D03*
X277897500Y-354372500D03*
X272817500Y-354372500D03*
X267737500Y-354372500D03*
X262657500Y-354372500D03*
X280437500Y-354372500D03*
X262657500Y-341672500D03*
X260117500Y-354372500D03*
X265197500Y-354372500D03*
X270277500Y-354372500D03*
X275357500Y-354372500D03*
X257577500Y-354372500D03*
X267737500Y-341672500D03*
X270277500Y-341672500D03*
D16*
X130160937Y-312830000D03*
D17*
X132700937Y-312830000D03*
X135240937Y-312830000D03*
X137780937Y-312830000D03*
X140320937Y-312830000D03*
X142860937Y-312830000D03*
X145400937Y-312830000D03*
X147940937Y-312830000D03*
X153020937Y-312830000D03*
X155560937Y-312830000D03*
X158100937Y-312830000D03*
X160640937Y-312830000D03*
X163180937Y-312830000D03*
X165720937Y-312830000D03*
X165720937Y-361090000D03*
X163180937Y-361090000D03*
X160640937Y-361090000D03*
X158100937Y-361090000D03*
X155560937Y-361090000D03*
X153020937Y-361090000D03*
X150480937Y-361090000D03*
X147940937Y-361090000D03*
X143880937Y-361090000D03*
X141340937Y-361090000D03*
X138800937Y-361090000D03*
X136260937Y-361090000D03*
X133720937Y-361090000D03*
X131180937Y-361090000D03*
X128640937Y-361090000D03*
X126100937Y-361090000D03*
X123560937Y-361090000D03*
X121020937Y-361090000D03*
D15*
X257862500Y-323792500D03*
X280972500Y-323792500D03*
D13*
X273602500Y-323792500D03*
X265982500Y-323792500D03*
X263442500Y-323792500D03*
X260902500Y-311092500D03*
X265982500Y-311092500D03*
X271062500Y-311092500D03*
X276142500Y-311092500D03*
X258362500Y-311092500D03*
X276142500Y-323792500D03*
X278682500Y-311092500D03*
X273602500Y-311092500D03*
X268522500Y-311092500D03*
X263442500Y-311092500D03*
X281222500Y-311092500D03*
X271062500Y-323792500D03*
X268522500Y-323792500D03*
D12*
X376220937Y-269425000D03*
D10*
X247887604Y-285625000D03*
D11*
X249887604Y-285625000D03*
X251887604Y-285625000D03*
X253887604Y-285625000D03*
X255887604Y-285625000D03*
X257887604Y-285625000D03*
D18*
X365000000Y-360760000D03*
D19*
X367540000Y-358220000D03*
X362460000Y-358220000D03*
X362460000Y-363300000D03*
X367540000Y-363300000D03*
D12*
X116220937Y-269425000D03*
X246220937Y-269425000D03*
D10*
X157920937Y-285625000D03*
D11*
X159920937Y-285625000D03*
X161920937Y-285625000D03*
X163920937Y-285625000D03*
X165920937Y-285625000D03*
X167920937Y-285625000D03*
X169920937Y-285625000D03*
X171920937Y-285625000D03*
M02*
