M48
; DRILL file {KiCad 9.0.0} date 2026-03-11T14:47:05-0400
; FORMAT={-:-/ absolute / metric / decimal}
; #@! TF.CreationDate,2026-03-11T14:47:05-04:00
; #@! TF.GenerationSoftware,Kicad,Pcbnew,9.0.0
; #@! TF.FileFunction,Plated,1,2,PTH
FMAT,2
METRIC
; #@! TA.AperFunction,Plated,PTH,ViaDrill
T1C0.300
; #@! TA.AperFunction,Plated,PTH,ComponentDrill
T2C0.750
; #@! TA.AperFunction,Plated,PTH,ComponentDrill
T3C1.000
; #@! TA.AperFunction,Plated,PTH,ComponentDrill
T4C1.100
; #@! TA.AperFunction,Plated,PTH,ComponentDrill
T5C1.400
; #@! TA.AperFunction,Plated,PTH,ComponentDrill
T6C2.540
%
G90
G05
T1
X175.621Y-322.325
X177.721Y-322.125
X179.821Y-321.925
X181.861Y-321.925
X183.941Y-321.925
X185.721Y-303.925
X185.821Y-300.825
X186.021Y-315.425
X186.021Y-321.825
X186.171Y-306.775
X186.321Y-312.025
X186.421Y-309.725
X207.8Y-319.425
X214.8Y-315.625
X230.5Y-318.525
X248.5Y-320.9
X250.15Y-320.65
X263.562Y-328.752
X266.207Y-331.452
X316.45Y-364.3
X316.575Y-335.575
X323.665Y-356.725
X328.315Y-324.6
X335.965Y-355.025
X336.015Y-326.3
X348.665Y-355.2
X348.915Y-326.475
X355.6Y-317.485
X364.992Y-352.0
X365.0Y-349.3
X365.025Y-336.7
T2
X157.921Y-285.625
X159.921Y-285.625
X161.921Y-285.625
X163.921Y-285.625
X165.921Y-285.625
X167.921Y-285.625
X169.921Y-285.625
X171.921Y-285.625
X190.788Y-285.625
X192.788Y-285.625
X194.788Y-285.625
X196.788Y-285.625
X198.788Y-285.625
X200.788Y-285.625
X209.821Y-285.625
X211.821Y-285.625
X213.821Y-285.625
X215.821Y-285.625
X217.821Y-285.625
X219.821Y-285.625
X228.854Y-285.625
X230.854Y-285.625
X232.854Y-285.625
X234.854Y-285.625
X236.854Y-285.625
X238.854Y-285.625
X247.888Y-285.625
X249.888Y-285.625
X251.888Y-285.625
X253.888Y-285.625
X255.888Y-285.625
X257.888Y-285.625
X269.721Y-285.625
X271.721Y-285.625
X273.721Y-285.625
X275.721Y-285.625
X277.721Y-285.625
X279.721Y-285.625
X288.754Y-285.625
X290.754Y-285.625
X292.754Y-285.625
X294.754Y-285.625
X296.754Y-285.625
X298.754Y-285.625
X307.788Y-285.625
X309.788Y-285.625
X311.788Y-285.625
X313.788Y-285.625
X315.788Y-285.625
X317.788Y-285.625
X326.565Y-285.625
X328.565Y-285.625
X330.565Y-285.625
X332.565Y-285.625
X334.565Y-285.625
X336.565Y-285.625
T3
X121.021Y-361.09
X123.561Y-361.09
X126.101Y-361.09
X128.641Y-361.09
X130.161Y-312.83
X131.181Y-361.09
X132.701Y-312.83
X133.721Y-361.09
X135.241Y-312.83
X136.261Y-361.09
X137.781Y-312.83
X138.801Y-361.09
X140.321Y-312.83
X141.341Y-361.09
X142.861Y-312.83
X143.881Y-361.09
X145.401Y-312.83
X147.941Y-312.83
X147.941Y-361.09
X150.481Y-361.09
X153.021Y-312.83
X153.021Y-361.09
X155.561Y-312.83
X155.561Y-361.09
X158.101Y-312.83
X158.101Y-361.09
X160.641Y-312.83
X160.641Y-361.09
X163.181Y-312.83
X163.181Y-361.09
X165.721Y-312.83
X165.721Y-361.09
X195.56Y-312.64
X195.56Y-325.34
X198.1Y-312.64
X198.1Y-325.34
X200.64Y-312.64
X200.64Y-325.34
X203.18Y-312.64
X203.18Y-325.34
X205.72Y-312.64
X205.72Y-325.34
X208.26Y-312.64
X208.26Y-325.34
X210.8Y-312.64
X210.8Y-325.34
X213.34Y-312.64
X213.34Y-325.34
X215.88Y-312.64
X215.88Y-325.34
X218.42Y-312.64
X218.42Y-325.34
X220.96Y-312.64
X220.96Y-325.34
X223.5Y-312.64
X223.5Y-325.34
X226.04Y-312.64
X226.04Y-325.34
X257.577Y-354.373
X258.363Y-311.092
X260.118Y-354.373
X260.902Y-311.092
X262.657Y-341.672
X262.657Y-354.373
X263.442Y-311.092
X263.442Y-323.792
X265.197Y-341.672
X265.197Y-354.373
X265.983Y-311.092
X265.983Y-323.792
X267.738Y-341.672
X267.738Y-354.373
X268.522Y-311.092
X268.522Y-323.792
X270.277Y-341.672
X270.277Y-354.373
X271.062Y-311.092
X271.062Y-323.792
X272.817Y-341.672
X272.817Y-354.373
X273.602Y-311.092
X273.602Y-323.792
X275.358Y-341.672
X275.358Y-354.373
X276.142Y-311.092
X276.142Y-323.792
X277.897Y-354.373
X278.683Y-311.092
X280.438Y-354.373
X281.222Y-311.092
T4
X365.0Y-360.76
T5
X362.46Y-358.22
X362.46Y-363.3
X367.54Y-358.22
X367.54Y-363.3
T6
X257.827Y-341.672
X257.863Y-323.792
X280.938Y-341.672
X280.972Y-323.792
M30
