G04 #@! TF.GenerationSoftware,KiCad,Pcbnew,9.0.0*
G04 #@! TF.CreationDate,2026-03-11T14:47:02-04:00*
G04 #@! TF.ProjectId,4x4_compression_matrix_modular_control,3478345f-636f-46d7-9072-657373696f6e,rev?*
G04 #@! TF.SameCoordinates,Original*
G04 #@! TF.FileFunction,Soldermask,Top*
G04 #@! TF.FilePolarity,Negative*
%FSLAX46Y46*%
G04 Gerber Fmt 4.6, Leading zero omitted, Abs format (unit mm)*
G04 Created by KiCad (PCBNEW 9.0.0) date 2026-03-11 14:47:02*
%MOMM*%
%LPD*%
G01*
G04 APERTURE LIST*
G04 Aperture macros list*
%AMRoundRect*
0 Rectangle with rounded corners*
0 $1 Rounding radius*
0 $2 $3 $4 $5 $6 $7 $8 $9 X,Y pos of 4 corners*
0 Add a 4 corners polygon primitive as box body*
4,1,4,$2,$3,$4,$5,$6,$7,$8,$9,$2,$3,0*
0 Add four circle primitives for the rounded corners*
1,1,$1+$1,$2,$3*
1,1,$1+$1,$4,$5*
1,1,$1+$1,$6,$7*
1,1,$1+$1,$8,$9*
0 Add four rect primitives between the rounded corners*
20,1,$1+$1,$2,$3,$4,$5,0*
20,1,$1+$1,$4,$5,$6,$7,0*
20,1,$1+$1,$6,$7,$8,$9,0*
20,1,$1+$1,$8,$9,$2,$3,0*%
G04 Aperture macros list end*
%ADD10C,0.100000*%
%ADD11RoundRect,0.249999X-1.075001X0.450001X-1.075001X-0.450001X1.075001X-0.450001X1.075001X0.450001X0*%
%ADD12RoundRect,0.250000X-0.350000X-0.625000X0.350000X-0.625000X0.350000X0.625000X-0.350000X0.625000X0*%
%ADD13O,1.200000X1.750000*%
%ADD14RoundRect,0.250000X-2.050000X-0.300000X2.050000X-0.300000X2.050000X0.300000X-2.050000X0.300000X0*%
%ADD15RoundRect,0.250002X-4.449998X-5.149998X4.449998X-5.149998X4.449998X5.149998X-4.449998X5.149998X0*%
%ADD16C,3.200000*%
%ADD17RoundRect,0.250000X0.537500X1.450000X-0.537500X1.450000X-0.537500X-1.450000X0.537500X-1.450000X0*%
%ADD18RoundRect,0.250000X1.450000X-0.537500X1.450000X0.537500X-1.450000X0.537500X-1.450000X-0.537500X0*%
%ADD19RoundRect,0.249999X0.450001X1.075001X-0.450001X1.075001X-0.450001X-1.075001X0.450001X-1.075001X0*%
%ADD20O,1.700000X1.700000*%
%ADD21R,1.700000X1.700000*%
%ADD22C,3.300000*%
%ADD23R,1.600000X1.600000*%
%ADD24O,1.600000X1.600000*%
%ADD25RoundRect,0.250000X-1.450000X0.537500X-1.450000X-0.537500X1.450000X-0.537500X1.450000X0.537500X0*%
%ADD26RoundRect,0.250000X-0.300000X2.050000X-0.300000X-2.050000X0.300000X-2.050000X0.300000X2.050000X0*%
%ADD27RoundRect,0.250002X-5.149998X4.449998X-5.149998X-4.449998X5.149998X-4.449998X5.149998X4.449998X0*%
%ADD28C,1.650000*%
%ADD29C,2.100000*%
G04 APERTURE END LIST*
D10*
X359275000Y-346500000D02*
X370875000Y-346500000D01*
X370875000Y-348600000D01*
X359275000Y-348600000D01*
X359275000Y-346500000D01*
G36*
X359275000Y-346500000D02*
G01*
X370875000Y-346500000D01*
X370875000Y-348600000D01*
X359275000Y-348600000D01*
X359275000Y-346500000D01*
G37*
X327115000Y-329250000D02*
X330515000Y-329250000D01*
X330515000Y-330150000D01*
X327115000Y-330150000D01*
X327115000Y-329250000D01*
G36*
X327115000Y-329250000D02*
G01*
X330515000Y-329250000D01*
X330515000Y-330150000D01*
X327115000Y-330150000D01*
X327115000Y-329250000D01*
G37*
X345765000Y-349225000D02*
X347865000Y-349225000D01*
X347865000Y-360825000D01*
X345765000Y-360825000D01*
X345765000Y-349225000D01*
G36*
X345765000Y-349225000D02*
G01*
X347865000Y-349225000D01*
X347865000Y-360825000D01*
X345765000Y-360825000D01*
X345765000Y-349225000D01*
G37*
X362875000Y-327500000D02*
X363775000Y-327500000D01*
X363775000Y-330900000D01*
X362875000Y-330900000D01*
X362875000Y-327500000D01*
G36*
X362875000Y-327500000D02*
G01*
X363775000Y-327500000D01*
X363775000Y-330900000D01*
X362875000Y-330900000D01*
X362875000Y-327500000D01*
G37*
X326865000Y-357975000D02*
X330265000Y-357975000D01*
X330265000Y-358875000D01*
X326865000Y-358875000D01*
X326865000Y-357975000D01*
G36*
X326865000Y-357975000D02*
G01*
X330265000Y-357975000D01*
X330265000Y-358875000D01*
X326865000Y-358875000D01*
X326865000Y-357975000D01*
G37*
X327115000Y-327550000D02*
X330515000Y-327550000D01*
X330515000Y-328450000D01*
X327115000Y-328450000D01*
X327115000Y-327550000D01*
G36*
X327115000Y-327550000D02*
G01*
X330515000Y-327550000D01*
X330515000Y-328450000D01*
X327115000Y-328450000D01*
X327115000Y-327550000D01*
G37*
X326865000Y-356275000D02*
X330265000Y-356275000D01*
X330265000Y-357175000D01*
X326865000Y-357175000D01*
X326865000Y-356275000D01*
G36*
X326865000Y-356275000D02*
G01*
X330265000Y-356275000D01*
X330265000Y-357175000D01*
X326865000Y-357175000D01*
X326865000Y-356275000D01*
G37*
X364575000Y-327500000D02*
X365475000Y-327500000D01*
X365475000Y-330900000D01*
X364575000Y-330900000D01*
X364575000Y-327500000D01*
G36*
X364575000Y-327500000D02*
G01*
X365475000Y-327500000D01*
X365475000Y-330900000D01*
X364575000Y-330900000D01*
X364575000Y-327500000D01*
G37*
X346015000Y-320500000D02*
X348115000Y-320500000D01*
X348115000Y-332100000D01*
X346015000Y-332100000D01*
X346015000Y-320500000D01*
G36*
X346015000Y-320500000D02*
G01*
X348115000Y-320500000D01*
X348115000Y-332100000D01*
X346015000Y-332100000D01*
X346015000Y-320500000D01*
G37*
X326865000Y-354600000D02*
X330265000Y-354600000D01*
X330265000Y-355500000D01*
X326865000Y-355500000D01*
X326865000Y-354600000D01*
G36*
X326865000Y-354600000D02*
G01*
X330265000Y-354600000D01*
X330265000Y-355500000D01*
X326865000Y-355500000D01*
X326865000Y-354600000D01*
G37*
X327115000Y-325850000D02*
X330515000Y-325850000D01*
X330515000Y-326750000D01*
X327115000Y-326750000D01*
X327115000Y-325850000D01*
G36*
X327115000Y-325850000D02*
G01*
X330515000Y-325850000D01*
X330515000Y-326750000D01*
X327115000Y-326750000D01*
X327115000Y-325850000D01*
G37*
X361175000Y-327500000D02*
X362075000Y-327500000D01*
X362075000Y-330900000D01*
X361175000Y-330900000D01*
X361175000Y-327500000D01*
G36*
X361175000Y-327500000D02*
G01*
X362075000Y-327500000D01*
X362075000Y-330900000D01*
X361175000Y-330900000D01*
X361175000Y-327500000D01*
G37*
D11*
X316600000Y-319100000D03*
X316600000Y-323900000D03*
D12*
X269720937Y-285625000D03*
D13*
X271720937Y-285625000D03*
X273720937Y-285625000D03*
X275720937Y-285625000D03*
X277720937Y-285625000D03*
X279720937Y-285625000D03*
D14*
X332275000Y-351625000D03*
X332275000Y-353325000D03*
X332275000Y-355025000D03*
D15*
X341425000Y-355025000D03*
D14*
X332275000Y-356725000D03*
X332275000Y-358425000D03*
D12*
X326564999Y-285625000D03*
D13*
X328564999Y-285625000D03*
X330564999Y-285625000D03*
X332564999Y-285625000D03*
X334564999Y-285625000D03*
X336564999Y-285625000D03*
D16*
X116220937Y-369425000D03*
X376220937Y-369425000D03*
D11*
X316600000Y-329100000D03*
X316600000Y-333900000D03*
D12*
X307787604Y-285625000D03*
D13*
X309787604Y-285625000D03*
X311787604Y-285625000D03*
X313787604Y-285625000D03*
X315787604Y-285625000D03*
X317787604Y-285625000D03*
D17*
X332275000Y-345800000D03*
X328000000Y-345800000D03*
D12*
X228854271Y-285625000D03*
D13*
X230854271Y-285625000D03*
X232854271Y-285625000D03*
X234854271Y-285625000D03*
X236854271Y-285625000D03*
X238854271Y-285625000D03*
D17*
X366937500Y-310900000D03*
X362662500Y-310900000D03*
D18*
X374200000Y-333035000D03*
X374200000Y-328760000D03*
D16*
X246220937Y-369425000D03*
D12*
X288754270Y-285625000D03*
D13*
X290754270Y-285625000D03*
X292754270Y-285625000D03*
X294754270Y-285625000D03*
X296754270Y-285625000D03*
X298754270Y-285625000D03*
D19*
X362500000Y-317500000D03*
X357700000Y-317500000D03*
D12*
X209820937Y-285625000D03*
D13*
X211820937Y-285625000D03*
X213820937Y-285625000D03*
X215820937Y-285625000D03*
X217820937Y-285625000D03*
X219820937Y-285625000D03*
D14*
X332425000Y-322900000D03*
X332425000Y-324600000D03*
X332425000Y-326300000D03*
D15*
X341575000Y-326300000D03*
D14*
X332425000Y-328000000D03*
X332425000Y-329700000D03*
D12*
X190787604Y-285625000D03*
D13*
X192787604Y-285625000D03*
X194787604Y-285625000D03*
X196787604Y-285625000D03*
X198787604Y-285625000D03*
X200787604Y-285625000D03*
D20*
X195560000Y-325340000D03*
X198100000Y-325340000D03*
X200640000Y-325340000D03*
X203180000Y-325340000D03*
X205720000Y-325340000D03*
X208260000Y-325340000D03*
X210800000Y-325340000D03*
X213340000Y-325340000D03*
D21*
X226040000Y-312640000D03*
D20*
X223500000Y-312640000D03*
X220960000Y-312640000D03*
X218420000Y-312640000D03*
X220960000Y-325340000D03*
X218420000Y-325340000D03*
X215880000Y-325340000D03*
X215880000Y-312640000D03*
X223500000Y-325340000D03*
D21*
X226040000Y-325340000D03*
D20*
X213340000Y-312640000D03*
X210800000Y-312640000D03*
X208260000Y-312640000D03*
X205720000Y-312640000D03*
X203180000Y-312640000D03*
X200640000Y-312640000D03*
X198100000Y-312640000D03*
X195560000Y-312640000D03*
D22*
X280937500Y-341672500D03*
X257827500Y-341672500D03*
D20*
X265197500Y-341672500D03*
X272817500Y-341672500D03*
X275357500Y-341672500D03*
X277897500Y-354372500D03*
X272817500Y-354372500D03*
X267737500Y-354372500D03*
X262657500Y-354372500D03*
X280437500Y-354372500D03*
X262657500Y-341672500D03*
X260117500Y-354372500D03*
X265197500Y-354372500D03*
X270277500Y-354372500D03*
X275357500Y-354372500D03*
X257577500Y-354372500D03*
X267737500Y-341672500D03*
X270277500Y-341672500D03*
D23*
X130160937Y-312830000D03*
D24*
X132700937Y-312830000D03*
X135240937Y-312830000D03*
X137780937Y-312830000D03*
X140320937Y-312830000D03*
X142860937Y-312830000D03*
X145400937Y-312830000D03*
X147940937Y-312830000D03*
X153020937Y-312830000D03*
X155560937Y-312830000D03*
X158100937Y-312830000D03*
X160640937Y-312830000D03*
X163180937Y-312830000D03*
X165720937Y-312830000D03*
X165720937Y-361090000D03*
X163180937Y-361090000D03*
X160640937Y-361090000D03*
X158100937Y-361090000D03*
X155560937Y-361090000D03*
X153020937Y-361090000D03*
X150480937Y-361090000D03*
X147940937Y-361090000D03*
X143880937Y-361090000D03*
X141340937Y-361090000D03*
X138800937Y-361090000D03*
X136260937Y-361090000D03*
X133720937Y-361090000D03*
X131180937Y-361090000D03*
X128640937Y-361090000D03*
X126100937Y-361090000D03*
X123560937Y-361090000D03*
X121020937Y-361090000D03*
D25*
X309865000Y-353062500D03*
X309865000Y-357337500D03*
D26*
X368425000Y-333060000D03*
X366725000Y-333060000D03*
X365025000Y-333060000D03*
D27*
X365025000Y-342210000D03*
D26*
X363325000Y-333060000D03*
X361625000Y-333060000D03*
D22*
X257862500Y-323792500D03*
X280972500Y-323792500D03*
D20*
X273602500Y-323792500D03*
X265982500Y-323792500D03*
X263442500Y-323792500D03*
X260902500Y-311092500D03*
X265982500Y-311092500D03*
X271062500Y-311092500D03*
X276142500Y-311092500D03*
X258362500Y-311092500D03*
X276142500Y-323792500D03*
X278682500Y-311092500D03*
X273602500Y-311092500D03*
X268522500Y-311092500D03*
X263442500Y-311092500D03*
X281222500Y-311092500D03*
X271062500Y-323792500D03*
X268522500Y-323792500D03*
D16*
X376220937Y-269425000D03*
D12*
X247887604Y-285625000D03*
D13*
X249887604Y-285625000D03*
X251887604Y-285625000D03*
X253887604Y-285625000D03*
X255887604Y-285625000D03*
X257887604Y-285625000D03*
D28*
X365000000Y-360760000D03*
D29*
X367540000Y-358220000D03*
X362460000Y-358220000D03*
X362460000Y-363300000D03*
X367540000Y-363300000D03*
D16*
X116220937Y-269425000D03*
X246220937Y-269425000D03*
D12*
X157920937Y-285625000D03*
D13*
X159920937Y-285625000D03*
X161920937Y-285625000D03*
X163920937Y-285625000D03*
X165920937Y-285625000D03*
X167920937Y-285625000D03*
X169920937Y-285625000D03*
X171920937Y-285625000D03*
D11*
X316450000Y-348000000D03*
X316450000Y-352800000D03*
D19*
X374200000Y-317435000D03*
X369400000Y-317435000D03*
D17*
X332425000Y-315775000D03*
X328150000Y-315775000D03*
D11*
X316450000Y-357500000D03*
X316450000Y-362300000D03*
D25*
X310115000Y-324137500D03*
X310115000Y-328412500D03*
M02*
