G04 #@! TF.GenerationSoftware,KiCad,Pcbnew,9.0.0*
G04 #@! TF.CreationDate,2026-03-11T14:47:02-04:00*
G04 #@! TF.ProjectId,4x4_compression_matrix_modular_control,3478345f-636f-46d7-9072-657373696f6e,rev?*
G04 #@! TF.SameCoordinates,Original*
G04 #@! TF.FileFunction,Copper,L1,Top*
G04 #@! TF.FilePolarity,Positive*
%FSLAX46Y46*%
G04 Gerber Fmt 4.6, Leading zero omitted, Abs format (unit mm)*
G04 Created by KiCad (PCBNEW 9.0.0) date 2026-03-11 14:47:02*
%MOMM*%
%LPD*%
G01*
G04 APERTURE LIST*
G04 Aperture macros list*
%AMRoundRect*
0 Rectangle with rounded corners*
0 $1 Rounding radius*
0 $2 $3 $4 $5 $6 $7 $8 $9 X,Y pos of 4 corners*
0 Add a 4 corners polygon primitive as box body*
4,1,4,$2,$3,$4,$5,$6,$7,$8,$9,$2,$3,0*
0 Add four circle primitives for the rounded corners*
1,1,$1+$1,$2,$3*
1,1,$1+$1,$4,$5*
1,1,$1+$1,$6,$7*
1,1,$1+$1,$8,$9*
0 Add four rect primitives between the rounded corners*
20,1,$1+$1,$2,$3,$4,$5,0*
20,1,$1+$1,$4,$5,$6,$7,0*
20,1,$1+$1,$6,$7,$8,$9,0*
20,1,$1+$1,$8,$9,$2,$3,0*%
G04 Aperture macros list end*
G04 #@! TA.AperFunction,Conductor*
%ADD10C,0.200000*%
G04 #@! TD*
G04 #@! TA.AperFunction,SMDPad,CuDef*
%ADD11RoundRect,0.249999X-1.075001X0.450001X-1.075001X-0.450001X1.075001X-0.450001X1.075001X0.450001X0*%
G04 #@! TD*
G04 #@! TA.AperFunction,ComponentPad*
%ADD12RoundRect,0.250000X-0.350000X-0.625000X0.350000X-0.625000X0.350000X0.625000X-0.350000X0.625000X0*%
G04 #@! TD*
G04 #@! TA.AperFunction,ComponentPad*
%ADD13O,1.200000X1.750000*%
G04 #@! TD*
G04 #@! TA.AperFunction,SMDPad,CuDef*
%ADD14RoundRect,0.250000X-2.050000X-0.300000X2.050000X-0.300000X2.050000X0.300000X-2.050000X0.300000X0*%
G04 #@! TD*
G04 #@! TA.AperFunction,SMDPad,CuDef*
%ADD15RoundRect,0.250000X-2.025000X-2.375000X2.025000X-2.375000X2.025000X2.375000X-2.025000X2.375000X0*%
G04 #@! TD*
G04 #@! TA.AperFunction,SMDPad,CuDef*
%ADD16RoundRect,0.250002X-4.449998X-5.149998X4.449998X-5.149998X4.449998X5.149998X-4.449998X5.149998X0*%
G04 #@! TD*
G04 #@! TA.AperFunction,SMDPad,CuDef*
%ADD17RoundRect,0.250000X0.537500X1.450000X-0.537500X1.450000X-0.537500X-1.450000X0.537500X-1.450000X0*%
G04 #@! TD*
G04 #@! TA.AperFunction,SMDPad,CuDef*
%ADD18RoundRect,0.250000X1.450000X-0.537500X1.450000X0.537500X-1.450000X0.537500X-1.450000X-0.537500X0*%
G04 #@! TD*
G04 #@! TA.AperFunction,SMDPad,CuDef*
%ADD19RoundRect,0.249999X0.450001X1.075001X-0.450001X1.075001X-0.450001X-1.075001X0.450001X-1.075001X0*%
G04 #@! TD*
G04 #@! TA.AperFunction,ComponentPad*
%ADD20O,1.700000X1.700000*%
G04 #@! TD*
G04 #@! TA.AperFunction,ComponentPad*
%ADD21R,1.700000X1.700000*%
G04 #@! TD*
G04 #@! TA.AperFunction,ComponentPad*
%ADD22C,3.300000*%
G04 #@! TD*
G04 #@! TA.AperFunction,ComponentPad*
%ADD23R,1.600000X1.600000*%
G04 #@! TD*
G04 #@! TA.AperFunction,ComponentPad*
%ADD24O,1.600000X1.600000*%
G04 #@! TD*
G04 #@! TA.AperFunction,SMDPad,CuDef*
%ADD25RoundRect,0.250000X-1.450000X0.537500X-1.450000X-0.537500X1.450000X-0.537500X1.450000X0.537500X0*%
G04 #@! TD*
G04 #@! TA.AperFunction,SMDPad,CuDef*
%ADD26RoundRect,0.250000X-0.300000X2.050000X-0.300000X-2.050000X0.300000X-2.050000X0.300000X2.050000X0*%
G04 #@! TD*
G04 #@! TA.AperFunction,SMDPad,CuDef*
%ADD27RoundRect,0.250000X-2.375000X2.025000X-2.375000X-2.025000X2.375000X-2.025000X2.375000X2.025000X0*%
G04 #@! TD*
G04 #@! TA.AperFunction,SMDPad,CuDef*
%ADD28RoundRect,0.250002X-5.149998X4.449998X-5.149998X-4.449998X5.149998X-4.449998X5.149998X4.449998X0*%
G04 #@! TD*
G04 #@! TA.AperFunction,ComponentPad*
%ADD29C,1.650000*%
G04 #@! TD*
G04 #@! TA.AperFunction,ComponentPad*
%ADD30C,2.100000*%
G04 #@! TD*
G04 #@! TA.AperFunction,ViaPad*
%ADD31C,0.600000*%
G04 #@! TD*
G04 #@! TA.AperFunction,Conductor*
%ADD32C,1.000000*%
G04 #@! TD*
G04 #@! TA.AperFunction,Conductor*
%ADD33C,1.500000*%
G04 #@! TD*
G04 APERTURE END LIST*
D10*
X315300000Y-324000000D02*
X318000000Y-324000000D01*
X318000000Y-328800000D01*
X315300000Y-328800000D01*
X315300000Y-324000000D01*
G04 #@! TA.AperFunction,Conductor*
G36*
X315300000Y-324000000D02*
G01*
X318000000Y-324000000D01*
X318000000Y-328800000D01*
X315300000Y-328800000D01*
X315300000Y-324000000D01*
G37*
G04 #@! TD.AperFunction*
X315100000Y-352800000D02*
X317800000Y-352800000D01*
X317800000Y-357600000D01*
X315100000Y-357600000D01*
X315100000Y-352800000D01*
G04 #@! TA.AperFunction,Conductor*
G36*
X315100000Y-352800000D02*
G01*
X317800000Y-352800000D01*
X317800000Y-357600000D01*
X315100000Y-357600000D01*
X315100000Y-352800000D01*
G37*
G04 #@! TD.AperFunction*
X315150000Y-345400000D02*
X317850000Y-345400000D01*
X317850000Y-347900000D01*
X315150000Y-347900000D01*
X315150000Y-345400000D01*
G04 #@! TA.AperFunction,Conductor*
G36*
X315150000Y-345400000D02*
G01*
X317850000Y-345400000D01*
X317850000Y-347900000D01*
X315150000Y-347900000D01*
X315150000Y-345400000D01*
G37*
G04 #@! TD.AperFunction*
X315275000Y-316675000D02*
X317975000Y-316675000D01*
X317975000Y-319175000D01*
X315275000Y-319175000D01*
X315275000Y-316675000D01*
G04 #@! TA.AperFunction,Conductor*
G36*
X315275000Y-316675000D02*
G01*
X317975000Y-316675000D01*
X317975000Y-319175000D01*
X315275000Y-319175000D01*
X315275000Y-316675000D01*
G37*
G04 #@! TD.AperFunction*
D11*
X316600000Y-319100000D03*
X316600000Y-323900000D03*
D12*
X269720937Y-285625000D03*
D13*
X271720937Y-285625000D03*
X273720937Y-285625000D03*
X275720937Y-285625000D03*
X277720937Y-285625000D03*
X279720937Y-285625000D03*
D14*
X332275000Y-351625000D03*
X332275000Y-353325000D03*
X332275000Y-355025000D03*
D15*
X339000000Y-352250000D03*
X339000000Y-357800000D03*
D16*
X341425000Y-355025000D03*
D15*
X343850000Y-352250000D03*
X343850000Y-357800000D03*
D14*
X332275000Y-356725000D03*
X332275000Y-358425000D03*
D12*
X326564999Y-285625000D03*
D13*
X328564999Y-285625000D03*
X330564999Y-285625000D03*
X332564999Y-285625000D03*
X334564999Y-285625000D03*
X336564999Y-285625000D03*
D11*
X316600000Y-329100000D03*
X316600000Y-333900000D03*
D12*
X307787604Y-285625000D03*
D13*
X309787604Y-285625000D03*
X311787604Y-285625000D03*
X313787604Y-285625000D03*
X315787604Y-285625000D03*
X317787604Y-285625000D03*
D17*
X332275000Y-345800000D03*
X328000000Y-345800000D03*
D12*
X228854271Y-285625000D03*
D13*
X230854271Y-285625000D03*
X232854271Y-285625000D03*
X234854271Y-285625000D03*
X236854271Y-285625000D03*
X238854271Y-285625000D03*
D17*
X366937500Y-310900000D03*
X362662500Y-310900000D03*
D18*
X374200000Y-333035000D03*
X374200000Y-328760000D03*
D12*
X288754270Y-285625000D03*
D13*
X290754270Y-285625000D03*
X292754270Y-285625000D03*
X294754270Y-285625000D03*
X296754270Y-285625000D03*
X298754270Y-285625000D03*
D19*
X362500000Y-317500000D03*
X357700000Y-317500000D03*
D12*
X209820937Y-285625000D03*
D13*
X211820937Y-285625000D03*
X213820937Y-285625000D03*
X215820937Y-285625000D03*
X217820937Y-285625000D03*
X219820937Y-285625000D03*
D14*
X332425000Y-322900000D03*
X332425000Y-324600000D03*
X332425000Y-326300000D03*
D15*
X339150000Y-323525000D03*
X339150000Y-329075000D03*
D16*
X341575000Y-326300000D03*
D15*
X344000000Y-323525000D03*
X344000000Y-329075000D03*
D14*
X332425000Y-328000000D03*
X332425000Y-329700000D03*
D12*
X190787604Y-285625000D03*
D13*
X192787604Y-285625000D03*
X194787604Y-285625000D03*
X196787604Y-285625000D03*
X198787604Y-285625000D03*
X200787604Y-285625000D03*
D20*
X195560000Y-325340000D03*
X198100000Y-325340000D03*
X200640000Y-325340000D03*
X203180000Y-325340000D03*
X205720000Y-325340000D03*
X208260000Y-325340000D03*
X210800000Y-325340000D03*
X213340000Y-325340000D03*
D21*
X226040000Y-312640000D03*
D20*
X223500000Y-312640000D03*
X220960000Y-312640000D03*
X218420000Y-312640000D03*
X220960000Y-325340000D03*
X218420000Y-325340000D03*
X215880000Y-325340000D03*
X215880000Y-312640000D03*
X223500000Y-325340000D03*
D21*
X226040000Y-325340000D03*
D20*
X213340000Y-312640000D03*
X210800000Y-312640000D03*
X208260000Y-312640000D03*
X205720000Y-312640000D03*
X203180000Y-312640000D03*
X200640000Y-312640000D03*
X198100000Y-312640000D03*
X195560000Y-312640000D03*
D22*
X280937500Y-341672500D03*
X257827500Y-341672500D03*
D20*
X265197500Y-341672500D03*
X272817500Y-341672500D03*
X275357500Y-341672500D03*
X277897500Y-354372500D03*
X272817500Y-354372500D03*
X267737500Y-354372500D03*
X262657500Y-354372500D03*
X280437500Y-354372500D03*
X262657500Y-341672500D03*
X260117500Y-354372500D03*
X265197500Y-354372500D03*
X270277500Y-354372500D03*
X275357500Y-354372500D03*
X257577500Y-354372500D03*
X267737500Y-341672500D03*
X270277500Y-341672500D03*
D23*
X130160937Y-312830000D03*
D24*
X132700937Y-312830000D03*
X135240937Y-312830000D03*
X137780937Y-312830000D03*
X140320937Y-312830000D03*
X142860937Y-312830000D03*
X145400937Y-312830000D03*
X147940937Y-312830000D03*
X153020937Y-312830000D03*
X155560937Y-312830000D03*
X158100937Y-312830000D03*
X160640937Y-312830000D03*
X163180937Y-312830000D03*
X165720937Y-312830000D03*
X165720937Y-361090000D03*
X163180937Y-361090000D03*
X160640937Y-361090000D03*
X158100937Y-361090000D03*
X155560937Y-361090000D03*
X153020937Y-361090000D03*
X150480937Y-361090000D03*
X147940937Y-361090000D03*
X143880937Y-361090000D03*
X141340937Y-361090000D03*
X138800937Y-361090000D03*
X136260937Y-361090000D03*
X133720937Y-361090000D03*
X131180937Y-361090000D03*
X128640937Y-361090000D03*
X126100937Y-361090000D03*
X123560937Y-361090000D03*
X121020937Y-361090000D03*
D25*
X309865000Y-353062500D03*
X309865000Y-357337500D03*
D26*
X368425000Y-333060000D03*
X366725000Y-333060000D03*
X365025000Y-333060000D03*
D27*
X367800000Y-339785000D03*
X362250000Y-339785000D03*
D28*
X365025000Y-342210000D03*
D27*
X367800000Y-344635000D03*
X362250000Y-344635000D03*
D26*
X363325000Y-333060000D03*
X361625000Y-333060000D03*
D22*
X257862500Y-323792500D03*
X280972500Y-323792500D03*
D20*
X273602500Y-323792500D03*
X265982500Y-323792500D03*
X263442500Y-323792500D03*
X260902500Y-311092500D03*
X265982500Y-311092500D03*
X271062500Y-311092500D03*
X276142500Y-311092500D03*
X258362500Y-311092500D03*
X276142500Y-323792500D03*
X278682500Y-311092500D03*
X273602500Y-311092500D03*
X268522500Y-311092500D03*
X263442500Y-311092500D03*
X281222500Y-311092500D03*
X271062500Y-323792500D03*
X268522500Y-323792500D03*
D12*
X247887604Y-285625000D03*
D13*
X249887604Y-285625000D03*
X251887604Y-285625000D03*
X253887604Y-285625000D03*
X255887604Y-285625000D03*
X257887604Y-285625000D03*
D29*
X365000000Y-360760000D03*
D30*
X367540000Y-358220000D03*
X362460000Y-358220000D03*
X362460000Y-363300000D03*
X367540000Y-363300000D03*
D12*
X157920937Y-285625000D03*
D13*
X159920937Y-285625000D03*
X161920937Y-285625000D03*
X163920937Y-285625000D03*
X165920937Y-285625000D03*
X167920937Y-285625000D03*
X169920937Y-285625000D03*
X171920937Y-285625000D03*
D11*
X316450000Y-348000000D03*
X316450000Y-352800000D03*
D19*
X374200000Y-317435000D03*
X369400000Y-317435000D03*
D17*
X332425000Y-315775000D03*
X328150000Y-315775000D03*
D11*
X316450000Y-357500000D03*
X316450000Y-362300000D03*
D25*
X310115000Y-324137500D03*
X310115000Y-328412500D03*
D31*
X335965000Y-355025000D03*
X365025000Y-336700000D03*
X316575000Y-335575000D03*
X355600000Y-317485000D03*
X336015000Y-326300000D03*
X365000000Y-349300000D03*
X348665000Y-355200000D03*
X316450000Y-364300000D03*
X348915000Y-326475000D03*
X186170937Y-306775000D03*
X179820937Y-321925000D03*
X186020937Y-321825000D03*
X186020937Y-315425000D03*
X183940937Y-321925000D03*
X186320937Y-312025000D03*
X175620937Y-322325000D03*
X185820937Y-300825000D03*
X185720937Y-303925000D03*
X177720937Y-322125000D03*
X186420937Y-309725000D03*
X181860937Y-321925000D03*
X323665000Y-356725000D03*
X328315000Y-324600000D03*
X266206563Y-331452500D03*
X263562500Y-328752500D03*
X250150000Y-320650000D03*
X230500000Y-318525000D03*
X207800000Y-319425000D03*
X248500000Y-320900000D03*
X214800000Y-315625000D03*
X364992474Y-352000000D03*
D32*
X365025000Y-333060000D02*
X365025000Y-327435000D01*
X326675000Y-326300000D02*
X324950000Y-324575000D01*
X326502500Y-355025000D02*
X325800000Y-354322500D01*
X355575000Y-313600000D02*
X355575000Y-317460000D01*
X313015000Y-335575000D02*
X316575000Y-335575000D01*
X358275000Y-310900000D02*
X355575000Y-313600000D01*
X310115000Y-332675000D02*
X313015000Y-335575000D01*
X332425000Y-326300000D02*
X326675000Y-326300000D01*
X362662500Y-310900000D02*
X358275000Y-310900000D01*
X372987500Y-326597500D02*
X374200000Y-327810000D01*
X332275000Y-355025000D02*
X341425000Y-355025000D01*
X324950000Y-317775000D02*
X326950000Y-315775000D01*
X365025000Y-333060000D02*
X365025000Y-342210000D01*
X374200000Y-327810000D02*
X374200000Y-328760000D01*
X326950000Y-315775000D02*
X328150000Y-315775000D01*
X309865000Y-357337500D02*
X309865000Y-361625000D01*
X316425000Y-364325000D02*
X316450000Y-364300000D01*
X310115000Y-328412500D02*
X310115000Y-332675000D01*
X355575000Y-317460000D02*
X355600000Y-317485000D01*
X332275000Y-355025000D02*
X326502500Y-355025000D01*
X309865000Y-361625000D02*
X312565000Y-364325000D01*
X365862500Y-326597500D02*
X372987500Y-326597500D01*
X325800000Y-354322500D02*
X325800000Y-346975000D01*
X312565000Y-364325000D02*
X316425000Y-364325000D01*
X325800000Y-346975000D02*
X326975000Y-345800000D01*
X365025000Y-327435000D02*
X365862500Y-326597500D01*
X324950000Y-324575000D02*
X324950000Y-317775000D01*
X332425000Y-326300000D02*
X341575000Y-326300000D01*
X326975000Y-345800000D02*
X328000000Y-345800000D01*
X179820937Y-313125000D02*
X186170937Y-306775000D01*
X179820937Y-321925000D02*
X179820937Y-313125000D01*
X186020937Y-321825000D02*
X186020937Y-315425000D01*
X183940937Y-321925000D02*
X183940937Y-321745000D01*
X183920937Y-321725000D02*
X183920937Y-314425000D01*
X183920937Y-314425000D02*
X186320937Y-312025000D01*
X183940937Y-321745000D02*
X183920937Y-321725000D01*
X175620937Y-322325000D02*
X175620937Y-311025000D01*
X175620937Y-311025000D02*
X185820937Y-300825000D01*
X177720937Y-322125000D02*
X177720937Y-311925000D01*
X177720937Y-311925000D02*
X185720937Y-303925000D01*
X181820937Y-314325000D02*
X186420937Y-309725000D01*
X181860937Y-321925000D02*
X181820937Y-321885000D01*
X181820937Y-321885000D02*
X181820937Y-314325000D01*
X321150000Y-348400000D02*
X319400000Y-346650000D01*
D33*
X267558587Y-328352500D02*
X277306563Y-328352500D01*
D32*
X323665000Y-356725000D02*
X323075000Y-356725000D01*
D33*
X263442500Y-323792500D02*
X263442500Y-324236413D01*
X249928126Y-312640000D02*
X226040000Y-312640000D01*
X147940937Y-312830000D02*
X163345937Y-297425000D01*
X263442500Y-323792500D02*
X263442500Y-322388437D01*
D32*
X323665000Y-356725000D02*
X332275000Y-356725000D01*
D33*
X310525000Y-346650000D02*
X304675000Y-340800000D01*
X304675000Y-340800000D02*
X298727500Y-334852500D01*
D32*
X328315000Y-324600000D02*
X332425000Y-324600000D01*
X323075000Y-356725000D02*
X321150000Y-354800000D01*
D33*
X316500000Y-346650000D02*
X309865000Y-346650000D01*
X163345937Y-297425000D02*
X216200000Y-297425000D01*
D32*
X332425000Y-324600000D02*
X332425000Y-315775000D01*
D33*
X263442500Y-324236413D02*
X267558587Y-328352500D01*
D32*
X319400000Y-346650000D02*
X316500000Y-346650000D01*
D33*
X282177500Y-334852500D02*
X275357500Y-341672500D01*
X283806563Y-334852500D02*
X282177500Y-334852500D01*
X216200000Y-297425000D02*
X226040000Y-307265000D01*
X253694063Y-312640000D02*
X241473126Y-312640000D01*
X226080000Y-312600000D02*
X226040000Y-312640000D01*
X277306563Y-328352500D02*
X283806563Y-334852500D01*
D32*
X321150000Y-354800000D02*
X321150000Y-348400000D01*
D33*
X226040000Y-307265000D02*
X226040000Y-312640000D01*
D32*
X316550000Y-347900000D02*
X316450000Y-348000000D01*
D33*
X298727500Y-334852500D02*
X283806563Y-334852500D01*
D32*
X309865000Y-353062500D02*
X309865000Y-346650000D01*
D33*
X263442500Y-322388437D02*
X253694063Y-312640000D01*
D32*
X265062500Y-330308437D02*
X265062500Y-330252500D01*
X248025000Y-318525000D02*
X230500000Y-318525000D01*
X250150000Y-320650000D02*
X248025000Y-318525000D01*
X265062500Y-330252500D02*
X263562500Y-328752500D01*
X266206563Y-331452500D02*
X265062500Y-330308437D01*
X248100000Y-320500000D02*
X212075000Y-320500000D01*
X211000000Y-319425000D02*
X214800000Y-315625000D01*
X212075000Y-320500000D02*
X211000000Y-319425000D01*
X248500000Y-320900000D02*
X248100000Y-320500000D01*
X207800000Y-319425000D02*
X211000000Y-319425000D01*
D33*
X251383222Y-292185000D02*
X251383222Y-291683222D01*
D32*
X310015000Y-318062374D02*
X310115000Y-318162374D01*
D33*
X209820937Y-288720937D02*
X209820937Y-285625000D01*
D32*
X316762374Y-318062374D02*
X316625000Y-317925000D01*
D33*
X309687374Y-318062374D02*
X316487626Y-318062374D01*
D32*
X310115000Y-318162374D02*
X310115000Y-324137500D01*
D33*
X190787604Y-288587604D02*
X190787604Y-285625000D01*
D32*
X321275000Y-326075000D02*
X321275000Y-319675000D01*
D33*
X228854271Y-288454271D02*
X228854271Y-285625000D01*
X216320937Y-292225000D02*
X194425000Y-292225000D01*
X194425000Y-292225000D02*
X190787604Y-288587604D01*
D32*
X323200000Y-328000000D02*
X321275000Y-326075000D01*
D33*
X251383222Y-291683222D02*
X247887604Y-288187604D01*
D32*
X332400000Y-328000000D02*
X323200000Y-328000000D01*
D33*
X213325000Y-292225000D02*
X209820937Y-288720937D01*
X234985826Y-292225000D02*
X232625000Y-292225000D01*
D32*
X321275000Y-319675000D02*
X319662374Y-318062374D01*
D33*
X309687374Y-318062374D02*
X291310000Y-299685000D01*
X251343222Y-292225000D02*
X234985826Y-292225000D01*
D32*
X319662374Y-318062374D02*
X316762374Y-318062374D01*
D33*
X232625000Y-292225000D02*
X228854271Y-288454271D01*
X258883222Y-299685000D02*
X251383222Y-292185000D01*
X316487626Y-318062374D02*
X316625000Y-317925000D01*
X291310000Y-299685000D02*
X258883222Y-299685000D01*
X251383222Y-292185000D02*
X251343222Y-292225000D01*
D32*
X309687374Y-318062374D02*
X310015000Y-318062374D01*
D33*
X247887604Y-288187604D02*
X247887604Y-285625000D01*
X216320937Y-292225000D02*
X213325000Y-292225000D01*
X234985826Y-292225000D02*
X216320937Y-292225000D01*
X346575000Y-345800000D02*
X332275000Y-345800000D01*
X269720937Y-285625000D02*
X269720937Y-290125000D01*
X326564999Y-285880938D02*
X326564999Y-289569062D01*
X330320937Y-293325000D02*
X344025000Y-293325000D01*
D32*
X363325000Y-324060000D02*
X363325000Y-333260000D01*
D33*
X374175000Y-310985000D02*
X374200000Y-311010000D01*
X374200000Y-304700000D02*
X374200000Y-310790000D01*
X352300000Y-299785000D02*
X352300000Y-340075000D01*
X374200000Y-311010000D02*
X374090000Y-310900000D01*
X292120937Y-293325000D02*
X311220937Y-293325000D01*
X311220937Y-293325000D02*
X330320937Y-293325000D01*
X352300000Y-340075000D02*
X346575000Y-345800000D01*
X307787604Y-289891667D02*
X311220937Y-293325000D01*
D32*
X371650000Y-322135000D02*
X365250000Y-322135000D01*
D33*
X288754270Y-285625000D02*
X288754270Y-289958333D01*
X344025000Y-293325000D02*
X350385000Y-299685000D01*
D32*
X365250000Y-322135000D02*
X363325000Y-324060000D01*
D33*
X272920937Y-293325000D02*
X292120937Y-293325000D01*
X307787604Y-285625000D02*
X307787604Y-289891667D01*
X369185000Y-299685000D02*
X374200000Y-304700000D01*
D32*
X374200000Y-318835000D02*
X374200000Y-319585000D01*
D33*
X374200000Y-311010000D02*
X374200000Y-317350000D01*
X269720937Y-290125000D02*
X272920937Y-293325000D01*
X352200000Y-299685000D02*
X352300000Y-299785000D01*
X288754270Y-289958333D02*
X292120937Y-293325000D01*
X374090000Y-310900000D02*
X366937500Y-310900000D01*
D32*
X332275000Y-353325000D02*
X332250000Y-353300000D01*
X374200000Y-319585000D02*
X371650000Y-322135000D01*
X332275000Y-353300000D02*
X332275000Y-345800000D01*
D33*
X350385000Y-299685000D02*
X369185000Y-299685000D01*
X374200000Y-310790000D02*
X374090000Y-310900000D01*
X326564999Y-289569062D02*
X330320937Y-293325000D01*
D32*
X316450000Y-355200000D02*
X319050000Y-355200000D01*
X322275000Y-358425000D02*
X332275000Y-358425000D01*
X319050000Y-355200000D02*
X322275000Y-358425000D01*
X322400000Y-329700000D02*
X332400000Y-329700000D01*
X319175000Y-326475000D02*
X322400000Y-329700000D01*
X316575000Y-326475000D02*
X319175000Y-326475000D01*
X366750000Y-333035000D02*
X374200000Y-333035000D01*
X366725000Y-333060000D02*
X366750000Y-333035000D01*
X372500000Y-352000000D02*
X374200000Y-350300000D01*
X364992474Y-360752474D02*
X365000000Y-360760000D01*
X374200000Y-350300000D02*
X374200000Y-333035000D01*
X364992474Y-352000000D02*
X372500000Y-352000000D01*
D10*
X366800000Y-332985000D02*
X366725000Y-333060000D01*
D32*
X361625000Y-323260000D02*
X361625000Y-333260000D01*
X365625000Y-317435000D02*
X365625000Y-319260000D01*
X362500000Y-317500000D02*
X362565000Y-317435000D01*
X365625000Y-319260000D02*
X361625000Y-323260000D01*
X362565000Y-317435000D02*
X369400000Y-317435000D01*
G04 #@! TA.AperFunction,Conductor*
G36*
X371143039Y-340304685D02*
G01*
X371188794Y-340357489D01*
X371200000Y-340409000D01*
X371200000Y-350061000D01*
X371180315Y-350128039D01*
X371127511Y-350173794D01*
X371076000Y-350185000D01*
X359024000Y-350185000D01*
X358956961Y-350165315D01*
X358911206Y-350112511D01*
X358900000Y-350061000D01*
X358900000Y-340409000D01*
X358919685Y-340341961D01*
X358972489Y-340296206D01*
X359024000Y-340285000D01*
X371076000Y-340285000D01*
X371143039Y-340304685D01*
G37*
G04 #@! TD.AperFunction*
G04 #@! TA.AperFunction,Conductor*
G36*
X349518039Y-320194685D02*
G01*
X349563794Y-320247489D01*
X349575000Y-320299000D01*
X349575000Y-332351000D01*
X349555315Y-332418039D01*
X349502511Y-332463794D01*
X349451000Y-332475000D01*
X339799000Y-332475000D01*
X339731961Y-332455315D01*
X339686206Y-332402511D01*
X339675000Y-332351000D01*
X339675000Y-320299000D01*
X339694685Y-320231961D01*
X339747489Y-320186206D01*
X339799000Y-320175000D01*
X349451000Y-320175000D01*
X349518039Y-320194685D01*
G37*
G04 #@! TD.AperFunction*
G04 #@! TA.AperFunction,Conductor*
G36*
X317918039Y-333594685D02*
G01*
X317963794Y-333647489D01*
X317975000Y-333699000D01*
X317975000Y-336351000D01*
X317955315Y-336418039D01*
X317902511Y-336463794D01*
X317851000Y-336475000D01*
X315299000Y-336475000D01*
X315231961Y-336455315D01*
X315186206Y-336402511D01*
X315175000Y-336351000D01*
X315175000Y-333699000D01*
X315194685Y-333631961D01*
X315247489Y-333586206D01*
X315299000Y-333575000D01*
X317851000Y-333575000D01*
X317918039Y-333594685D01*
G37*
G04 #@! TD.AperFunction*
G04 #@! TA.AperFunction,Conductor*
G36*
X349393039Y-348919685D02*
G01*
X349438794Y-348972489D01*
X349450000Y-349024000D01*
X349450000Y-361076000D01*
X349430315Y-361143039D01*
X349377511Y-361188794D01*
X349326000Y-361200000D01*
X339674000Y-361200000D01*
X339606961Y-361180315D01*
X339561206Y-361127511D01*
X339550000Y-361076000D01*
X339550000Y-349024000D01*
X339569685Y-348956961D01*
X339622489Y-348911206D01*
X339674000Y-348900000D01*
X349326000Y-348900000D01*
X349393039Y-348919685D01*
G37*
G04 #@! TD.AperFunction*
G04 #@! TA.AperFunction,Conductor*
G36*
X357543039Y-316104685D02*
G01*
X357588794Y-316157489D01*
X357600000Y-316209000D01*
X357600000Y-318761000D01*
X357580315Y-318828039D01*
X357527511Y-318873794D01*
X357476000Y-318885000D01*
X354824000Y-318885000D01*
X354756961Y-318865315D01*
X354711206Y-318812511D01*
X354700000Y-318761000D01*
X354700000Y-316209000D01*
X354719685Y-316141961D01*
X354772489Y-316096206D01*
X354824000Y-316085000D01*
X357476000Y-316085000D01*
X357543039Y-316104685D01*
G37*
G04 #@! TD.AperFunction*
G04 #@! TA.AperFunction,Conductor*
G36*
X317793039Y-362319685D02*
G01*
X317838794Y-362372489D01*
X317850000Y-362424000D01*
X317850000Y-365076000D01*
X317830315Y-365143039D01*
X317777511Y-365188794D01*
X317726000Y-365200000D01*
X315174000Y-365200000D01*
X315106961Y-365180315D01*
X315061206Y-365127511D01*
X315050000Y-365076000D01*
X315050000Y-362424000D01*
X315069685Y-362356961D01*
X315122489Y-362311206D01*
X315174000Y-362300000D01*
X317726000Y-362300000D01*
X317793039Y-362319685D01*
G37*
G04 #@! TD.AperFunction*
M02*
