G04 #@! TF.GenerationSoftware,KiCad,Pcbnew,9.0.0*
G04 #@! TF.CreationDate,2026-03-06T12:01:43-05:00*
G04 #@! TF.ProjectId,4x4_compression_matrix_modular_combine,3478345f-636f-46d7-9072-657373696f6e,rev?*
G04 #@! TF.SameCoordinates,Original*
G04 #@! TF.FileFunction,Copper,L2,Bot*
G04 #@! TF.FilePolarity,Positive*
%FSLAX46Y46*%
G04 Gerber Fmt 4.6, Leading zero omitted, Abs format (unit mm)*
G04 Created by KiCad (PCBNEW 9.0.0) date 2026-03-06 12:01:43*
%MOMM*%
%LPD*%
G01*
G04 APERTURE LIST*
G04 #@! TA.AperFunction,ComponentPad*
%ADD10C,1.650000*%
G04 #@! TD*
G04 #@! TA.AperFunction,ComponentPad*
%ADD11C,2.100000*%
G04 #@! TD*
G04 #@! TA.AperFunction,ViaPad*
%ADD12C,0.600000*%
G04 #@! TD*
G04 APERTURE END LIST*
D10*
X430135944Y-203415516D03*
D11*
X427595944Y-200875516D03*
X427595944Y-205955516D03*
X432675944Y-205955516D03*
X432675944Y-200875516D03*
D10*
X468515944Y-149971071D03*
D11*
X465975944Y-147431071D03*
X465975944Y-152511071D03*
X471055944Y-152511071D03*
X471055944Y-147431071D03*
D10*
X430135944Y-171591071D03*
D11*
X427595944Y-169051071D03*
X427595944Y-174131071D03*
X432675944Y-174131071D03*
X432675944Y-169051071D03*
D10*
X430135944Y-217993293D03*
D11*
X427595944Y-215453293D03*
X427595944Y-220533293D03*
X432675944Y-220533293D03*
X432675944Y-215453293D03*
D10*
X468515944Y-210871071D03*
D11*
X465975944Y-208331071D03*
X465975944Y-213411071D03*
X471055944Y-213411071D03*
X471055944Y-208331071D03*
D10*
X430135944Y-128091071D03*
D11*
X427595944Y-125551071D03*
X427595944Y-130631071D03*
X432675944Y-130631071D03*
X432675944Y-125551071D03*
D10*
X468515944Y-332471071D03*
D11*
X465975944Y-329931071D03*
X465975944Y-335011071D03*
X471055944Y-335011071D03*
X471055944Y-329931071D03*
D10*
X430135944Y-142591071D03*
D11*
X427595944Y-140051071D03*
X427595944Y-145131071D03*
X432675944Y-145131071D03*
X432675944Y-140051071D03*
D10*
X430135944Y-339671071D03*
D11*
X427595944Y-337131071D03*
X427595944Y-342211071D03*
X432675944Y-342211071D03*
X432675944Y-337131071D03*
D10*
X430135944Y-310671071D03*
D11*
X427595944Y-308131071D03*
X427595944Y-313211071D03*
X432675944Y-313211071D03*
X432675944Y-308131071D03*
D10*
X430135944Y-188837738D03*
D11*
X427595944Y-186297738D03*
X427595944Y-191377738D03*
X432675944Y-191377738D03*
X432675944Y-186297738D03*
D10*
X430135944Y-293371071D03*
D11*
X427595944Y-290831071D03*
X427595944Y-295911071D03*
X432675944Y-295911071D03*
X432675944Y-290831071D03*
D10*
X430135944Y-157091071D03*
D11*
X427595944Y-154551071D03*
X427595944Y-159631071D03*
X432675944Y-159631071D03*
X432675944Y-154551071D03*
D10*
X468515944Y-271671071D03*
D11*
X465975944Y-269131071D03*
X465975944Y-274211071D03*
X471055944Y-274211071D03*
X471055944Y-269131071D03*
D10*
X430135944Y-264371071D03*
D11*
X427595944Y-261831071D03*
X427595944Y-266911071D03*
X432675944Y-266911071D03*
X432675944Y-261831071D03*
D10*
X430135944Y-232571071D03*
D11*
X427595944Y-230031071D03*
X427595944Y-235111071D03*
X432675944Y-235111071D03*
X432675944Y-230031071D03*
D10*
X430135944Y-354171071D03*
D11*
X427595944Y-351631071D03*
X427595944Y-356711071D03*
X432675944Y-356711071D03*
X432675944Y-351631071D03*
D10*
X430135944Y-325171071D03*
D11*
X427595944Y-322631071D03*
X427595944Y-327711071D03*
X432675944Y-327711071D03*
X432675944Y-322631071D03*
D10*
X430135944Y-249871071D03*
D11*
X427595944Y-247331071D03*
X427595944Y-252411071D03*
X432675944Y-252411071D03*
X432675944Y-247331071D03*
D10*
X430135944Y-278871071D03*
D11*
X427595944Y-276331071D03*
X427595944Y-281411071D03*
X432675944Y-281411071D03*
X432675944Y-276331071D03*
D12*
X450535944Y-330041071D03*
X450535944Y-324841071D03*
X450775944Y-142386071D03*
X454875944Y-220719404D03*
X450535944Y-264007738D03*
X450975944Y-218519404D03*
X450775944Y-147586071D03*
X450535944Y-340141071D03*
X450975944Y-203219404D03*
X454675944Y-159886071D03*
X450535944Y-269207738D03*
X454875944Y-205719404D03*
X454435944Y-322541071D03*
X454875944Y-200919404D03*
X450975944Y-208419404D03*
X454435944Y-327341071D03*
X454435944Y-266507738D03*
X450775944Y-157686071D03*
X454435944Y-281507738D03*
X450535944Y-279307738D03*
X454675944Y-144886071D03*
X454435944Y-261707738D03*
X454675944Y-140086071D03*
X454435944Y-342341071D03*
G04 #@! TA.AperFunction,Conductor*
G36*
X479342539Y-117546256D02*
G01*
X479388294Y-117599060D01*
X479399500Y-117650571D01*
X479399500Y-364401571D01*
X479379815Y-364468610D01*
X479327011Y-364514365D01*
X479275500Y-364525571D01*
X412524500Y-364525571D01*
X412457461Y-364505886D01*
X412411706Y-364453082D01*
X412400500Y-364401571D01*
X412400500Y-359904782D01*
X415049500Y-359904782D01*
X415049500Y-360147359D01*
X415081161Y-360387856D01*
X415143947Y-360622175D01*
X415236773Y-360846276D01*
X415236776Y-360846283D01*
X415358064Y-361056360D01*
X415358066Y-361056363D01*
X415358067Y-361056364D01*
X415505733Y-361248807D01*
X415505739Y-361248814D01*
X415677256Y-361420331D01*
X415677262Y-361420336D01*
X415869711Y-361568007D01*
X416079788Y-361689295D01*
X416303900Y-361782125D01*
X416538211Y-361844909D01*
X416718586Y-361868655D01*
X416778711Y-361876571D01*
X416778712Y-361876571D01*
X417021289Y-361876571D01*
X417069388Y-361870238D01*
X417261789Y-361844909D01*
X417496100Y-361782125D01*
X417720212Y-361689295D01*
X417930289Y-361568007D01*
X418122738Y-361420336D01*
X418294265Y-361248809D01*
X418441936Y-361056360D01*
X418563224Y-360846283D01*
X418656054Y-360622171D01*
X418718838Y-360387860D01*
X418750500Y-360147359D01*
X418750500Y-359904783D01*
X418750500Y-359904782D01*
X473049500Y-359904782D01*
X473049500Y-360147359D01*
X473081161Y-360387856D01*
X473143947Y-360622175D01*
X473236773Y-360846276D01*
X473236776Y-360846283D01*
X473358064Y-361056360D01*
X473358066Y-361056363D01*
X473358067Y-361056364D01*
X473505733Y-361248807D01*
X473505739Y-361248814D01*
X473677256Y-361420331D01*
X473677262Y-361420336D01*
X473869711Y-361568007D01*
X474079788Y-361689295D01*
X474303900Y-361782125D01*
X474538211Y-361844909D01*
X474718586Y-361868655D01*
X474778711Y-361876571D01*
X474778712Y-361876571D01*
X475021289Y-361876571D01*
X475069388Y-361870238D01*
X475261789Y-361844909D01*
X475496100Y-361782125D01*
X475720212Y-361689295D01*
X475930289Y-361568007D01*
X476122738Y-361420336D01*
X476294265Y-361248809D01*
X476441936Y-361056360D01*
X476563224Y-360846283D01*
X476656054Y-360622171D01*
X476718838Y-360387860D01*
X476750500Y-360147359D01*
X476750500Y-359904783D01*
X476718838Y-359664282D01*
X476656054Y-359429971D01*
X476563224Y-359205859D01*
X476441936Y-358995782D01*
X476294265Y-358803333D01*
X476294260Y-358803327D01*
X476122743Y-358631810D01*
X476122736Y-358631804D01*
X475930293Y-358484138D01*
X475930292Y-358484137D01*
X475930289Y-358484135D01*
X475720212Y-358362847D01*
X475720205Y-358362844D01*
X475496104Y-358270018D01*
X475261785Y-358207232D01*
X475021289Y-358175571D01*
X475021288Y-358175571D01*
X474778712Y-358175571D01*
X474778711Y-358175571D01*
X474538214Y-358207232D01*
X474303895Y-358270018D01*
X474079794Y-358362844D01*
X474079785Y-358362848D01*
X473869706Y-358484138D01*
X473677263Y-358631804D01*
X473677256Y-358631810D01*
X473505739Y-358803327D01*
X473505733Y-358803334D01*
X473358067Y-358995777D01*
X473236777Y-359205856D01*
X473236773Y-359205865D01*
X473143947Y-359429966D01*
X473081161Y-359664285D01*
X473049500Y-359904782D01*
X418750500Y-359904782D01*
X418718838Y-359664282D01*
X418656054Y-359429971D01*
X418563224Y-359205859D01*
X418441936Y-358995782D01*
X418294265Y-358803333D01*
X418294260Y-358803327D01*
X418122743Y-358631810D01*
X418122736Y-358631804D01*
X417930293Y-358484138D01*
X417930292Y-358484137D01*
X417930289Y-358484135D01*
X417720212Y-358362847D01*
X417720205Y-358362844D01*
X417496104Y-358270018D01*
X417261785Y-358207232D01*
X417021289Y-358175571D01*
X417021288Y-358175571D01*
X416778712Y-358175571D01*
X416778711Y-358175571D01*
X416538214Y-358207232D01*
X416303895Y-358270018D01*
X416079794Y-358362844D01*
X416079785Y-358362848D01*
X415869706Y-358484138D01*
X415677263Y-358631804D01*
X415677256Y-358631810D01*
X415505739Y-358803327D01*
X415505733Y-358803334D01*
X415358067Y-358995777D01*
X415236777Y-359205856D01*
X415236773Y-359205865D01*
X415143947Y-359429966D01*
X415081161Y-359664285D01*
X415049500Y-359904782D01*
X412400500Y-359904782D01*
X412400500Y-354066746D01*
X428810444Y-354066746D01*
X428810444Y-354275395D01*
X428843081Y-354481460D01*
X428907556Y-354679891D01*
X429002274Y-354865785D01*
X429124909Y-355034576D01*
X429272439Y-355182106D01*
X429441230Y-355304741D01*
X429529060Y-355349492D01*
X429627123Y-355399458D01*
X429627125Y-355399458D01*
X429627128Y-355399460D01*
X429733489Y-355434019D01*
X429825554Y-355463933D01*
X430031620Y-355496571D01*
X430031625Y-355496571D01*
X430240268Y-355496571D01*
X430446333Y-355463933D01*
X430644760Y-355399460D01*
X430830658Y-355304741D01*
X430999449Y-355182106D01*
X431146979Y-355034576D01*
X431269614Y-354865785D01*
X431364333Y-354679887D01*
X431428806Y-354481460D01*
X431461444Y-354275395D01*
X431461444Y-354066746D01*
X431428806Y-353860681D01*
X431364331Y-353662250D01*
X431269613Y-353476356D01*
X431146979Y-353307566D01*
X430999449Y-353160036D01*
X430830658Y-353037401D01*
X430644764Y-352942683D01*
X430446333Y-352878208D01*
X430240268Y-352845571D01*
X430240263Y-352845571D01*
X430031625Y-352845571D01*
X430031620Y-352845571D01*
X429825554Y-352878208D01*
X429627123Y-352942683D01*
X429441229Y-353037401D01*
X429272437Y-353160037D01*
X429124910Y-353307564D01*
X429002274Y-353476356D01*
X428907556Y-353662250D01*
X428843081Y-353860681D01*
X428810444Y-354066746D01*
X412400500Y-354066746D01*
X412400500Y-339566746D01*
X428810444Y-339566746D01*
X428810444Y-339775395D01*
X428843081Y-339981460D01*
X428907556Y-340179891D01*
X429002274Y-340365785D01*
X429124909Y-340534576D01*
X429272439Y-340682106D01*
X429441230Y-340804741D01*
X429529060Y-340849492D01*
X429627123Y-340899458D01*
X429627125Y-340899458D01*
X429627128Y-340899460D01*
X429733489Y-340934019D01*
X429825554Y-340963933D01*
X430031620Y-340996571D01*
X430031625Y-340996571D01*
X430240268Y-340996571D01*
X430446333Y-340963933D01*
X430644760Y-340899460D01*
X430830658Y-340804741D01*
X430999449Y-340682106D01*
X431146979Y-340534576D01*
X431269614Y-340365785D01*
X431364333Y-340179887D01*
X431428806Y-339981460D01*
X431461444Y-339775395D01*
X431461444Y-339566746D01*
X431428806Y-339360681D01*
X431364331Y-339162250D01*
X431269613Y-338976356D01*
X431146979Y-338807566D01*
X430999449Y-338660036D01*
X430830658Y-338537401D01*
X430644764Y-338442683D01*
X430446333Y-338378208D01*
X430240268Y-338345571D01*
X430240263Y-338345571D01*
X430031625Y-338345571D01*
X430031620Y-338345571D01*
X429825554Y-338378208D01*
X429627123Y-338442683D01*
X429441229Y-338537401D01*
X429272437Y-338660037D01*
X429124910Y-338807564D01*
X429002274Y-338976356D01*
X428907556Y-339162250D01*
X428843081Y-339360681D01*
X428810444Y-339566746D01*
X412400500Y-339566746D01*
X412400500Y-332366746D01*
X467190444Y-332366746D01*
X467190444Y-332575395D01*
X467223081Y-332781460D01*
X467287556Y-332979891D01*
X467382274Y-333165785D01*
X467504909Y-333334576D01*
X467652439Y-333482106D01*
X467821230Y-333604741D01*
X467909060Y-333649492D01*
X468007123Y-333699458D01*
X468007125Y-333699458D01*
X468007128Y-333699460D01*
X468113489Y-333734019D01*
X468205554Y-333763933D01*
X468411620Y-333796571D01*
X468411625Y-333796571D01*
X468620268Y-333796571D01*
X468826333Y-333763933D01*
X469024760Y-333699460D01*
X469210658Y-333604741D01*
X469379449Y-333482106D01*
X469526979Y-333334576D01*
X469649614Y-333165785D01*
X469744333Y-332979887D01*
X469808806Y-332781460D01*
X469841444Y-332575395D01*
X469841444Y-332366746D01*
X469808806Y-332160681D01*
X469744331Y-331962250D01*
X469649613Y-331776356D01*
X469526979Y-331607566D01*
X469379449Y-331460036D01*
X469210658Y-331337401D01*
X469024764Y-331242683D01*
X468826333Y-331178208D01*
X468620268Y-331145571D01*
X468620263Y-331145571D01*
X468411625Y-331145571D01*
X468411620Y-331145571D01*
X468205554Y-331178208D01*
X468007123Y-331242683D01*
X467821229Y-331337401D01*
X467652437Y-331460037D01*
X467504910Y-331607564D01*
X467382274Y-331776356D01*
X467287556Y-331962250D01*
X467223081Y-332160681D01*
X467190444Y-332366746D01*
X412400500Y-332366746D01*
X412400500Y-325066746D01*
X428810444Y-325066746D01*
X428810444Y-325275395D01*
X428843081Y-325481460D01*
X428907556Y-325679891D01*
X429002274Y-325865785D01*
X429124909Y-326034576D01*
X429272439Y-326182106D01*
X429441230Y-326304741D01*
X429529060Y-326349492D01*
X429627123Y-326399458D01*
X429627125Y-326399458D01*
X429627128Y-326399460D01*
X429733489Y-326434019D01*
X429825554Y-326463933D01*
X430031620Y-326496571D01*
X430031625Y-326496571D01*
X430240268Y-326496571D01*
X430446333Y-326463933D01*
X430644760Y-326399460D01*
X430830658Y-326304741D01*
X430999449Y-326182106D01*
X431146979Y-326034576D01*
X431269614Y-325865785D01*
X431364333Y-325679887D01*
X431428806Y-325481460D01*
X431461444Y-325275395D01*
X431461444Y-325066746D01*
X431428806Y-324860681D01*
X431364331Y-324662250D01*
X431269613Y-324476356D01*
X431146979Y-324307566D01*
X430999449Y-324160036D01*
X430830658Y-324037401D01*
X430644764Y-323942683D01*
X430446333Y-323878208D01*
X430240268Y-323845571D01*
X430240263Y-323845571D01*
X430031625Y-323845571D01*
X430031620Y-323845571D01*
X429825554Y-323878208D01*
X429627123Y-323942683D01*
X429441229Y-324037401D01*
X429272437Y-324160037D01*
X429124910Y-324307564D01*
X429002274Y-324476356D01*
X428907556Y-324662250D01*
X428843081Y-324860681D01*
X428810444Y-325066746D01*
X412400500Y-325066746D01*
X412400500Y-310566746D01*
X428810444Y-310566746D01*
X428810444Y-310775395D01*
X428843081Y-310981460D01*
X428907556Y-311179891D01*
X429002274Y-311365785D01*
X429124909Y-311534576D01*
X429272439Y-311682106D01*
X429441230Y-311804741D01*
X429529060Y-311849492D01*
X429627123Y-311899458D01*
X429627125Y-311899458D01*
X429627128Y-311899460D01*
X429733489Y-311934019D01*
X429825554Y-311963933D01*
X430031620Y-311996571D01*
X430031625Y-311996571D01*
X430240268Y-311996571D01*
X430446333Y-311963933D01*
X430644760Y-311899460D01*
X430830658Y-311804741D01*
X430999449Y-311682106D01*
X431146979Y-311534576D01*
X431269614Y-311365785D01*
X431364333Y-311179887D01*
X431428806Y-310981460D01*
X431461444Y-310775395D01*
X431461444Y-310566746D01*
X431428806Y-310360681D01*
X431364331Y-310162250D01*
X431269613Y-309976356D01*
X431146979Y-309807566D01*
X430999449Y-309660036D01*
X430830658Y-309537401D01*
X430644764Y-309442683D01*
X430446333Y-309378208D01*
X430240268Y-309345571D01*
X430240263Y-309345571D01*
X430031625Y-309345571D01*
X430031620Y-309345571D01*
X429825554Y-309378208D01*
X429627123Y-309442683D01*
X429441229Y-309537401D01*
X429272437Y-309660037D01*
X429124910Y-309807564D01*
X429002274Y-309976356D01*
X428907556Y-310162250D01*
X428843081Y-310360681D01*
X428810444Y-310566746D01*
X412400500Y-310566746D01*
X412400500Y-293266746D01*
X428810444Y-293266746D01*
X428810444Y-293475395D01*
X428843081Y-293681460D01*
X428907556Y-293879891D01*
X429002274Y-294065785D01*
X429124909Y-294234576D01*
X429272439Y-294382106D01*
X429441230Y-294504741D01*
X429529060Y-294549492D01*
X429627123Y-294599458D01*
X429627125Y-294599458D01*
X429627128Y-294599460D01*
X429733489Y-294634019D01*
X429825554Y-294663933D01*
X430031620Y-294696571D01*
X430031625Y-294696571D01*
X430240268Y-294696571D01*
X430446333Y-294663933D01*
X430644760Y-294599460D01*
X430830658Y-294504741D01*
X430999449Y-294382106D01*
X431146979Y-294234576D01*
X431269614Y-294065785D01*
X431364333Y-293879887D01*
X431428806Y-293681460D01*
X431461444Y-293475395D01*
X431461444Y-293266746D01*
X431428806Y-293060681D01*
X431364331Y-292862250D01*
X431269613Y-292676356D01*
X431146979Y-292507566D01*
X430999449Y-292360036D01*
X430830658Y-292237401D01*
X430644764Y-292142683D01*
X430446333Y-292078208D01*
X430240268Y-292045571D01*
X430240263Y-292045571D01*
X430031625Y-292045571D01*
X430031620Y-292045571D01*
X429825554Y-292078208D01*
X429627123Y-292142683D01*
X429441229Y-292237401D01*
X429272437Y-292360037D01*
X429124910Y-292507564D01*
X429002274Y-292676356D01*
X428907556Y-292862250D01*
X428843081Y-293060681D01*
X428810444Y-293266746D01*
X412400500Y-293266746D01*
X412400500Y-282238115D01*
X415049500Y-282238115D01*
X415049500Y-282480692D01*
X415081161Y-282721189D01*
X415143947Y-282955508D01*
X415236773Y-283179609D01*
X415236776Y-283179616D01*
X415358064Y-283389693D01*
X415358066Y-283389696D01*
X415358067Y-283389697D01*
X415505733Y-283582140D01*
X415505739Y-283582147D01*
X415677256Y-283753664D01*
X415677262Y-283753669D01*
X415869711Y-283901340D01*
X416079788Y-284022628D01*
X416303900Y-284115458D01*
X416538211Y-284178242D01*
X416718586Y-284201988D01*
X416778711Y-284209904D01*
X416778712Y-284209904D01*
X417021289Y-284209904D01*
X417069388Y-284203571D01*
X417261789Y-284178242D01*
X417496100Y-284115458D01*
X417720212Y-284022628D01*
X417930289Y-283901340D01*
X418122738Y-283753669D01*
X418294265Y-283582142D01*
X418441936Y-283389693D01*
X418563224Y-283179616D01*
X418656054Y-282955504D01*
X418718838Y-282721193D01*
X418750500Y-282480692D01*
X418750500Y-282238116D01*
X418750500Y-282238115D01*
X473049500Y-282238115D01*
X473049500Y-282480692D01*
X473081161Y-282721189D01*
X473143947Y-282955508D01*
X473236773Y-283179609D01*
X473236776Y-283179616D01*
X473358064Y-283389693D01*
X473358066Y-283389696D01*
X473358067Y-283389697D01*
X473505733Y-283582140D01*
X473505739Y-283582147D01*
X473677256Y-283753664D01*
X473677262Y-283753669D01*
X473869711Y-283901340D01*
X474079788Y-284022628D01*
X474303900Y-284115458D01*
X474538211Y-284178242D01*
X474718586Y-284201988D01*
X474778711Y-284209904D01*
X474778712Y-284209904D01*
X475021289Y-284209904D01*
X475069388Y-284203571D01*
X475261789Y-284178242D01*
X475496100Y-284115458D01*
X475720212Y-284022628D01*
X475930289Y-283901340D01*
X476122738Y-283753669D01*
X476294265Y-283582142D01*
X476441936Y-283389693D01*
X476563224Y-283179616D01*
X476656054Y-282955504D01*
X476718838Y-282721193D01*
X476750500Y-282480692D01*
X476750500Y-282238116D01*
X476718838Y-281997615D01*
X476656054Y-281763304D01*
X476563224Y-281539192D01*
X476441936Y-281329115D01*
X476294265Y-281136666D01*
X476294260Y-281136660D01*
X476122743Y-280965143D01*
X476122736Y-280965137D01*
X475930293Y-280817471D01*
X475930292Y-280817470D01*
X475930289Y-280817468D01*
X475720212Y-280696180D01*
X475720205Y-280696177D01*
X475496104Y-280603351D01*
X475261785Y-280540565D01*
X475021289Y-280508904D01*
X475021288Y-280508904D01*
X474778712Y-280508904D01*
X474778711Y-280508904D01*
X474538214Y-280540565D01*
X474303895Y-280603351D01*
X474079794Y-280696177D01*
X474079785Y-280696181D01*
X473869706Y-280817471D01*
X473677263Y-280965137D01*
X473677256Y-280965143D01*
X473505739Y-281136660D01*
X473505733Y-281136667D01*
X473358067Y-281329110D01*
X473236777Y-281539189D01*
X473236773Y-281539198D01*
X473143947Y-281763299D01*
X473081161Y-281997618D01*
X473049500Y-282238115D01*
X418750500Y-282238115D01*
X418718838Y-281997615D01*
X418656054Y-281763304D01*
X418563224Y-281539192D01*
X418441936Y-281329115D01*
X418294265Y-281136666D01*
X418294260Y-281136660D01*
X418122743Y-280965143D01*
X418122736Y-280965137D01*
X417930293Y-280817471D01*
X417930292Y-280817470D01*
X417930289Y-280817468D01*
X417720212Y-280696180D01*
X417720205Y-280696177D01*
X417496104Y-280603351D01*
X417261785Y-280540565D01*
X417021289Y-280508904D01*
X417021288Y-280508904D01*
X416778712Y-280508904D01*
X416778711Y-280508904D01*
X416538214Y-280540565D01*
X416303895Y-280603351D01*
X416079794Y-280696177D01*
X416079785Y-280696181D01*
X415869706Y-280817471D01*
X415677263Y-280965137D01*
X415677256Y-280965143D01*
X415505739Y-281136660D01*
X415505733Y-281136667D01*
X415358067Y-281329110D01*
X415236777Y-281539189D01*
X415236773Y-281539198D01*
X415143947Y-281763299D01*
X415081161Y-281997618D01*
X415049500Y-282238115D01*
X412400500Y-282238115D01*
X412400500Y-278766746D01*
X428810444Y-278766746D01*
X428810444Y-278975395D01*
X428843081Y-279181460D01*
X428907556Y-279379891D01*
X429002274Y-279565785D01*
X429124909Y-279734576D01*
X429272439Y-279882106D01*
X429441230Y-280004741D01*
X429529060Y-280049492D01*
X429627123Y-280099458D01*
X429627125Y-280099458D01*
X429627128Y-280099460D01*
X429733489Y-280134019D01*
X429825554Y-280163933D01*
X430031620Y-280196571D01*
X430031625Y-280196571D01*
X430240268Y-280196571D01*
X430446333Y-280163933D01*
X430644760Y-280099460D01*
X430830658Y-280004741D01*
X430999449Y-279882106D01*
X431146979Y-279734576D01*
X431269614Y-279565785D01*
X431364333Y-279379887D01*
X431428806Y-279181460D01*
X431461444Y-278975395D01*
X431461444Y-278766746D01*
X431428806Y-278560681D01*
X431364331Y-278362250D01*
X431269613Y-278176356D01*
X431146979Y-278007566D01*
X430999449Y-277860036D01*
X430830658Y-277737401D01*
X430644764Y-277642683D01*
X430446333Y-277578208D01*
X430240268Y-277545571D01*
X430240263Y-277545571D01*
X430031625Y-277545571D01*
X430031620Y-277545571D01*
X429825554Y-277578208D01*
X429627123Y-277642683D01*
X429441229Y-277737401D01*
X429272437Y-277860037D01*
X429124910Y-278007564D01*
X429002274Y-278176356D01*
X428907556Y-278362250D01*
X428843081Y-278560681D01*
X428810444Y-278766746D01*
X412400500Y-278766746D01*
X412400500Y-271566746D01*
X467190444Y-271566746D01*
X467190444Y-271775395D01*
X467223081Y-271981460D01*
X467287556Y-272179891D01*
X467382274Y-272365785D01*
X467504909Y-272534576D01*
X467652439Y-272682106D01*
X467821230Y-272804741D01*
X467909060Y-272849492D01*
X468007123Y-272899458D01*
X468007125Y-272899458D01*
X468007128Y-272899460D01*
X468113489Y-272934019D01*
X468205554Y-272963933D01*
X468411620Y-272996571D01*
X468411625Y-272996571D01*
X468620268Y-272996571D01*
X468826333Y-272963933D01*
X469024760Y-272899460D01*
X469210658Y-272804741D01*
X469379449Y-272682106D01*
X469526979Y-272534576D01*
X469649614Y-272365785D01*
X469744333Y-272179887D01*
X469808806Y-271981460D01*
X469841444Y-271775395D01*
X469841444Y-271566746D01*
X469808806Y-271360681D01*
X469744331Y-271162250D01*
X469649613Y-270976356D01*
X469526979Y-270807566D01*
X469379449Y-270660036D01*
X469210658Y-270537401D01*
X469024764Y-270442683D01*
X468826333Y-270378208D01*
X468620268Y-270345571D01*
X468620263Y-270345571D01*
X468411625Y-270345571D01*
X468411620Y-270345571D01*
X468205554Y-270378208D01*
X468007123Y-270442683D01*
X467821229Y-270537401D01*
X467652437Y-270660037D01*
X467504910Y-270807564D01*
X467382274Y-270976356D01*
X467287556Y-271162250D01*
X467223081Y-271360681D01*
X467190444Y-271566746D01*
X412400500Y-271566746D01*
X412400500Y-264266746D01*
X428810444Y-264266746D01*
X428810444Y-264475395D01*
X428843081Y-264681460D01*
X428907556Y-264879891D01*
X429002274Y-265065785D01*
X429124909Y-265234576D01*
X429272439Y-265382106D01*
X429441230Y-265504741D01*
X429529060Y-265549492D01*
X429627123Y-265599458D01*
X429627125Y-265599458D01*
X429627128Y-265599460D01*
X429733489Y-265634019D01*
X429825554Y-265663933D01*
X430031620Y-265696571D01*
X430031625Y-265696571D01*
X430240268Y-265696571D01*
X430446333Y-265663933D01*
X430644760Y-265599460D01*
X430830658Y-265504741D01*
X430999449Y-265382106D01*
X431146979Y-265234576D01*
X431269614Y-265065785D01*
X431364333Y-264879887D01*
X431428806Y-264681460D01*
X431461444Y-264475395D01*
X431461444Y-264266746D01*
X431428806Y-264060681D01*
X431364331Y-263862250D01*
X431269613Y-263676356D01*
X431146979Y-263507566D01*
X430999449Y-263360036D01*
X430830658Y-263237401D01*
X430644764Y-263142683D01*
X430446333Y-263078208D01*
X430240268Y-263045571D01*
X430240263Y-263045571D01*
X430031625Y-263045571D01*
X430031620Y-263045571D01*
X429825554Y-263078208D01*
X429627123Y-263142683D01*
X429441229Y-263237401D01*
X429272437Y-263360037D01*
X429124910Y-263507564D01*
X429002274Y-263676356D01*
X428907556Y-263862250D01*
X428843081Y-264060681D01*
X428810444Y-264266746D01*
X412400500Y-264266746D01*
X412400500Y-249766746D01*
X428810444Y-249766746D01*
X428810444Y-249975395D01*
X428843081Y-250181460D01*
X428907556Y-250379891D01*
X429002274Y-250565785D01*
X429124909Y-250734576D01*
X429272439Y-250882106D01*
X429441230Y-251004741D01*
X429529060Y-251049492D01*
X429627123Y-251099458D01*
X429627125Y-251099458D01*
X429627128Y-251099460D01*
X429733489Y-251134019D01*
X429825554Y-251163933D01*
X430031620Y-251196571D01*
X430031625Y-251196571D01*
X430240268Y-251196571D01*
X430446333Y-251163933D01*
X430644760Y-251099460D01*
X430830658Y-251004741D01*
X430999449Y-250882106D01*
X431146979Y-250734576D01*
X431269614Y-250565785D01*
X431364333Y-250379887D01*
X431428806Y-250181460D01*
X431461444Y-249975395D01*
X431461444Y-249766746D01*
X431428806Y-249560681D01*
X431364331Y-249362250D01*
X431269613Y-249176356D01*
X431146979Y-249007566D01*
X430999449Y-248860036D01*
X430830658Y-248737401D01*
X430644764Y-248642683D01*
X430446333Y-248578208D01*
X430240268Y-248545571D01*
X430240263Y-248545571D01*
X430031625Y-248545571D01*
X430031620Y-248545571D01*
X429825554Y-248578208D01*
X429627123Y-248642683D01*
X429441229Y-248737401D01*
X429272437Y-248860037D01*
X429124910Y-249007564D01*
X429002274Y-249176356D01*
X428907556Y-249362250D01*
X428843081Y-249560681D01*
X428810444Y-249766746D01*
X412400500Y-249766746D01*
X412400500Y-232466746D01*
X428810444Y-232466746D01*
X428810444Y-232675395D01*
X428843081Y-232881460D01*
X428907556Y-233079891D01*
X429002274Y-233265785D01*
X429124909Y-233434576D01*
X429272439Y-233582106D01*
X429441230Y-233704741D01*
X429529060Y-233749492D01*
X429627123Y-233799458D01*
X429627125Y-233799458D01*
X429627128Y-233799460D01*
X429733489Y-233834019D01*
X429825554Y-233863933D01*
X430031620Y-233896571D01*
X430031625Y-233896571D01*
X430240268Y-233896571D01*
X430446333Y-233863933D01*
X430644760Y-233799460D01*
X430830658Y-233704741D01*
X430999449Y-233582106D01*
X431146979Y-233434576D01*
X431269614Y-233265785D01*
X431364333Y-233079887D01*
X431428806Y-232881460D01*
X431461444Y-232675395D01*
X431461444Y-232466746D01*
X431428806Y-232260681D01*
X431364331Y-232062250D01*
X431269613Y-231876356D01*
X431146979Y-231707566D01*
X430999449Y-231560036D01*
X430830658Y-231437401D01*
X430644764Y-231342683D01*
X430446333Y-231278208D01*
X430240268Y-231245571D01*
X430240263Y-231245571D01*
X430031625Y-231245571D01*
X430031620Y-231245571D01*
X429825554Y-231278208D01*
X429627123Y-231342683D01*
X429441229Y-231437401D01*
X429272437Y-231560037D01*
X429124910Y-231707564D01*
X429002274Y-231876356D01*
X428907556Y-232062250D01*
X428843081Y-232260681D01*
X428810444Y-232466746D01*
X412400500Y-232466746D01*
X412400500Y-217888968D01*
X428810444Y-217888968D01*
X428810444Y-218097617D01*
X428843081Y-218303682D01*
X428907556Y-218502113D01*
X429002274Y-218688007D01*
X429124909Y-218856798D01*
X429272439Y-219004328D01*
X429441230Y-219126963D01*
X429529060Y-219171714D01*
X429627123Y-219221680D01*
X429627125Y-219221680D01*
X429627128Y-219221682D01*
X429733489Y-219256241D01*
X429825554Y-219286155D01*
X430031620Y-219318793D01*
X430031625Y-219318793D01*
X430240268Y-219318793D01*
X430446333Y-219286155D01*
X430644760Y-219221682D01*
X430830658Y-219126963D01*
X430999449Y-219004328D01*
X431146979Y-218856798D01*
X431269614Y-218688007D01*
X431364333Y-218502109D01*
X431428806Y-218303682D01*
X431461444Y-218097617D01*
X431461444Y-217888968D01*
X431428806Y-217682903D01*
X431364331Y-217484472D01*
X431269613Y-217298578D01*
X431146979Y-217129788D01*
X430999449Y-216982258D01*
X430830658Y-216859623D01*
X430644764Y-216764905D01*
X430446333Y-216700430D01*
X430240268Y-216667793D01*
X430240263Y-216667793D01*
X430031625Y-216667793D01*
X430031620Y-216667793D01*
X429825554Y-216700430D01*
X429627123Y-216764905D01*
X429441229Y-216859623D01*
X429272437Y-216982259D01*
X429124910Y-217129786D01*
X429002274Y-217298578D01*
X428907556Y-217484472D01*
X428843081Y-217682903D01*
X428810444Y-217888968D01*
X412400500Y-217888968D01*
X412400500Y-210766746D01*
X467190444Y-210766746D01*
X467190444Y-210975395D01*
X467223081Y-211181460D01*
X467287556Y-211379891D01*
X467382274Y-211565785D01*
X467504909Y-211734576D01*
X467652439Y-211882106D01*
X467821230Y-212004741D01*
X467909060Y-212049492D01*
X468007123Y-212099458D01*
X468007125Y-212099458D01*
X468007128Y-212099460D01*
X468113489Y-212134019D01*
X468205554Y-212163933D01*
X468411620Y-212196571D01*
X468411625Y-212196571D01*
X468620268Y-212196571D01*
X468826333Y-212163933D01*
X469024760Y-212099460D01*
X469210658Y-212004741D01*
X469379449Y-211882106D01*
X469526979Y-211734576D01*
X469649614Y-211565785D01*
X469744333Y-211379887D01*
X469808806Y-211181460D01*
X469841444Y-210975395D01*
X469841444Y-210766746D01*
X469808806Y-210560681D01*
X469744331Y-210362250D01*
X469649613Y-210176356D01*
X469526979Y-210007566D01*
X469379449Y-209860036D01*
X469210658Y-209737401D01*
X469024764Y-209642683D01*
X468826333Y-209578208D01*
X468620268Y-209545571D01*
X468620263Y-209545571D01*
X468411625Y-209545571D01*
X468411620Y-209545571D01*
X468205554Y-209578208D01*
X468007123Y-209642683D01*
X467821229Y-209737401D01*
X467652437Y-209860037D01*
X467504910Y-210007564D01*
X467382274Y-210176356D01*
X467287556Y-210362250D01*
X467223081Y-210560681D01*
X467190444Y-210766746D01*
X412400500Y-210766746D01*
X412400500Y-203311191D01*
X428810444Y-203311191D01*
X428810444Y-203519840D01*
X428843081Y-203725905D01*
X428907556Y-203924336D01*
X429002274Y-204110230D01*
X429124909Y-204279021D01*
X429272439Y-204426551D01*
X429441230Y-204549186D01*
X429529060Y-204593937D01*
X429627123Y-204643903D01*
X429627125Y-204643903D01*
X429627128Y-204643905D01*
X429733489Y-204678464D01*
X429825554Y-204708378D01*
X430031620Y-204741016D01*
X430031625Y-204741016D01*
X430240268Y-204741016D01*
X430446333Y-204708378D01*
X430644760Y-204643905D01*
X430830658Y-204549186D01*
X430999449Y-204426551D01*
X431146979Y-204279021D01*
X431269614Y-204110230D01*
X431364333Y-203924332D01*
X431428806Y-203725905D01*
X431461444Y-203519840D01*
X431461444Y-203311191D01*
X431428806Y-203105126D01*
X431364331Y-202906695D01*
X431269613Y-202720801D01*
X431146979Y-202552011D01*
X430999449Y-202404481D01*
X430830658Y-202281846D01*
X430644764Y-202187128D01*
X430446333Y-202122653D01*
X430240268Y-202090016D01*
X430240263Y-202090016D01*
X430031625Y-202090016D01*
X430031620Y-202090016D01*
X429825554Y-202122653D01*
X429627123Y-202187128D01*
X429441229Y-202281846D01*
X429272437Y-202404482D01*
X429124910Y-202552009D01*
X429002274Y-202720801D01*
X428907556Y-202906695D01*
X428843081Y-203105126D01*
X428810444Y-203311191D01*
X412400500Y-203311191D01*
X412400500Y-199571449D01*
X415049500Y-199571449D01*
X415049500Y-199814026D01*
X415081161Y-200054523D01*
X415143947Y-200288842D01*
X415236773Y-200512943D01*
X415236776Y-200512950D01*
X415358064Y-200723027D01*
X415358066Y-200723030D01*
X415358067Y-200723031D01*
X415505733Y-200915474D01*
X415505739Y-200915481D01*
X415677256Y-201086998D01*
X415677262Y-201087003D01*
X415869711Y-201234674D01*
X416079788Y-201355962D01*
X416303900Y-201448792D01*
X416538211Y-201511576D01*
X416718586Y-201535322D01*
X416778711Y-201543238D01*
X416778712Y-201543238D01*
X417021289Y-201543238D01*
X417069388Y-201536905D01*
X417261789Y-201511576D01*
X417496100Y-201448792D01*
X417720212Y-201355962D01*
X417930289Y-201234674D01*
X418122738Y-201087003D01*
X418294265Y-200915476D01*
X418441936Y-200723027D01*
X418563224Y-200512950D01*
X418656054Y-200288838D01*
X418718838Y-200054527D01*
X418750500Y-199814026D01*
X418750500Y-199571450D01*
X418750500Y-199571449D01*
X473049500Y-199571449D01*
X473049500Y-199814026D01*
X473081161Y-200054523D01*
X473143947Y-200288842D01*
X473236773Y-200512943D01*
X473236776Y-200512950D01*
X473358064Y-200723027D01*
X473358066Y-200723030D01*
X473358067Y-200723031D01*
X473505733Y-200915474D01*
X473505739Y-200915481D01*
X473677256Y-201086998D01*
X473677262Y-201087003D01*
X473869711Y-201234674D01*
X474079788Y-201355962D01*
X474303900Y-201448792D01*
X474538211Y-201511576D01*
X474718586Y-201535322D01*
X474778711Y-201543238D01*
X474778712Y-201543238D01*
X475021289Y-201543238D01*
X475069388Y-201536905D01*
X475261789Y-201511576D01*
X475496100Y-201448792D01*
X475720212Y-201355962D01*
X475930289Y-201234674D01*
X476122738Y-201087003D01*
X476294265Y-200915476D01*
X476441936Y-200723027D01*
X476563224Y-200512950D01*
X476656054Y-200288838D01*
X476718838Y-200054527D01*
X476750500Y-199814026D01*
X476750500Y-199571450D01*
X476718838Y-199330949D01*
X476656054Y-199096638D01*
X476563224Y-198872526D01*
X476441936Y-198662449D01*
X476294265Y-198470000D01*
X476294260Y-198469994D01*
X476122743Y-198298477D01*
X476122736Y-198298471D01*
X475930293Y-198150805D01*
X475930292Y-198150804D01*
X475930289Y-198150802D01*
X475720212Y-198029514D01*
X475720205Y-198029511D01*
X475496104Y-197936685D01*
X475261785Y-197873899D01*
X475021289Y-197842238D01*
X475021288Y-197842238D01*
X474778712Y-197842238D01*
X474778711Y-197842238D01*
X474538214Y-197873899D01*
X474303895Y-197936685D01*
X474079794Y-198029511D01*
X474079785Y-198029515D01*
X473869706Y-198150805D01*
X473677263Y-198298471D01*
X473677256Y-198298477D01*
X473505739Y-198469994D01*
X473505733Y-198470001D01*
X473358067Y-198662444D01*
X473236777Y-198872523D01*
X473236773Y-198872532D01*
X473143947Y-199096633D01*
X473081161Y-199330952D01*
X473049500Y-199571449D01*
X418750500Y-199571449D01*
X418718838Y-199330949D01*
X418656054Y-199096638D01*
X418563224Y-198872526D01*
X418441936Y-198662449D01*
X418294265Y-198470000D01*
X418294260Y-198469994D01*
X418122743Y-198298477D01*
X418122736Y-198298471D01*
X417930293Y-198150805D01*
X417930292Y-198150804D01*
X417930289Y-198150802D01*
X417720212Y-198029514D01*
X417720205Y-198029511D01*
X417496104Y-197936685D01*
X417261785Y-197873899D01*
X417021289Y-197842238D01*
X417021288Y-197842238D01*
X416778712Y-197842238D01*
X416778711Y-197842238D01*
X416538214Y-197873899D01*
X416303895Y-197936685D01*
X416079794Y-198029511D01*
X416079785Y-198029515D01*
X415869706Y-198150805D01*
X415677263Y-198298471D01*
X415677256Y-198298477D01*
X415505739Y-198469994D01*
X415505733Y-198470001D01*
X415358067Y-198662444D01*
X415236777Y-198872523D01*
X415236773Y-198872532D01*
X415143947Y-199096633D01*
X415081161Y-199330952D01*
X415049500Y-199571449D01*
X412400500Y-199571449D01*
X412400500Y-188733413D01*
X428810444Y-188733413D01*
X428810444Y-188942062D01*
X428843081Y-189148127D01*
X428907556Y-189346558D01*
X429002274Y-189532452D01*
X429124909Y-189701243D01*
X429272439Y-189848773D01*
X429441230Y-189971408D01*
X429529060Y-190016159D01*
X429627123Y-190066125D01*
X429627125Y-190066125D01*
X429627128Y-190066127D01*
X429733489Y-190100686D01*
X429825554Y-190130600D01*
X430031620Y-190163238D01*
X430031625Y-190163238D01*
X430240268Y-190163238D01*
X430446333Y-190130600D01*
X430644760Y-190066127D01*
X430830658Y-189971408D01*
X430999449Y-189848773D01*
X431146979Y-189701243D01*
X431269614Y-189532452D01*
X431364333Y-189346554D01*
X431428806Y-189148127D01*
X431461444Y-188942062D01*
X431461444Y-188733413D01*
X431428806Y-188527348D01*
X431364331Y-188328917D01*
X431269613Y-188143023D01*
X431146979Y-187974233D01*
X430999449Y-187826703D01*
X430830658Y-187704068D01*
X430644764Y-187609350D01*
X430446333Y-187544875D01*
X430240268Y-187512238D01*
X430240263Y-187512238D01*
X430031625Y-187512238D01*
X430031620Y-187512238D01*
X429825554Y-187544875D01*
X429627123Y-187609350D01*
X429441229Y-187704068D01*
X429272437Y-187826704D01*
X429124910Y-187974231D01*
X429002274Y-188143023D01*
X428907556Y-188328917D01*
X428843081Y-188527348D01*
X428810444Y-188733413D01*
X412400500Y-188733413D01*
X412400500Y-171486746D01*
X428810444Y-171486746D01*
X428810444Y-171695395D01*
X428843081Y-171901460D01*
X428907556Y-172099891D01*
X429002274Y-172285785D01*
X429124909Y-172454576D01*
X429272439Y-172602106D01*
X429441230Y-172724741D01*
X429529060Y-172769492D01*
X429627123Y-172819458D01*
X429627125Y-172819458D01*
X429627128Y-172819460D01*
X429733489Y-172854019D01*
X429825554Y-172883933D01*
X430031620Y-172916571D01*
X430031625Y-172916571D01*
X430240268Y-172916571D01*
X430446333Y-172883933D01*
X430644760Y-172819460D01*
X430830658Y-172724741D01*
X430999449Y-172602106D01*
X431146979Y-172454576D01*
X431269614Y-172285785D01*
X431364333Y-172099887D01*
X431428806Y-171901460D01*
X431461444Y-171695395D01*
X431461444Y-171486746D01*
X431428806Y-171280681D01*
X431364331Y-171082250D01*
X431269613Y-170896356D01*
X431146979Y-170727566D01*
X430999449Y-170580036D01*
X430830658Y-170457401D01*
X430644764Y-170362683D01*
X430446333Y-170298208D01*
X430240268Y-170265571D01*
X430240263Y-170265571D01*
X430031625Y-170265571D01*
X430031620Y-170265571D01*
X429825554Y-170298208D01*
X429627123Y-170362683D01*
X429441229Y-170457401D01*
X429272437Y-170580037D01*
X429124910Y-170727564D01*
X429002274Y-170896356D01*
X428907556Y-171082250D01*
X428843081Y-171280681D01*
X428810444Y-171486746D01*
X412400500Y-171486746D01*
X412400500Y-156986746D01*
X428810444Y-156986746D01*
X428810444Y-157195395D01*
X428843081Y-157401460D01*
X428907556Y-157599891D01*
X429002274Y-157785785D01*
X429124909Y-157954576D01*
X429272439Y-158102106D01*
X429441230Y-158224741D01*
X429529060Y-158269492D01*
X429627123Y-158319458D01*
X429627125Y-158319458D01*
X429627128Y-158319460D01*
X429733489Y-158354019D01*
X429825554Y-158383933D01*
X430031620Y-158416571D01*
X430031625Y-158416571D01*
X430240268Y-158416571D01*
X430446333Y-158383933D01*
X430644760Y-158319460D01*
X430830658Y-158224741D01*
X430999449Y-158102106D01*
X431146979Y-157954576D01*
X431269614Y-157785785D01*
X431364333Y-157599887D01*
X431428806Y-157401460D01*
X431461444Y-157195395D01*
X431461444Y-156986746D01*
X431428806Y-156780681D01*
X431364331Y-156582250D01*
X431269613Y-156396356D01*
X431146979Y-156227566D01*
X430999449Y-156080036D01*
X430830658Y-155957401D01*
X430644764Y-155862683D01*
X430446333Y-155798208D01*
X430240268Y-155765571D01*
X430240263Y-155765571D01*
X430031625Y-155765571D01*
X430031620Y-155765571D01*
X429825554Y-155798208D01*
X429627123Y-155862683D01*
X429441229Y-155957401D01*
X429272437Y-156080037D01*
X429124910Y-156227564D01*
X429002274Y-156396356D01*
X428907556Y-156582250D01*
X428843081Y-156780681D01*
X428810444Y-156986746D01*
X412400500Y-156986746D01*
X412400500Y-149866746D01*
X467190444Y-149866746D01*
X467190444Y-150075395D01*
X467223081Y-150281460D01*
X467287556Y-150479891D01*
X467382274Y-150665785D01*
X467504909Y-150834576D01*
X467652439Y-150982106D01*
X467821230Y-151104741D01*
X467909060Y-151149492D01*
X468007123Y-151199458D01*
X468007125Y-151199458D01*
X468007128Y-151199460D01*
X468113489Y-151234019D01*
X468205554Y-151263933D01*
X468411620Y-151296571D01*
X468411625Y-151296571D01*
X468620268Y-151296571D01*
X468826333Y-151263933D01*
X469024760Y-151199460D01*
X469210658Y-151104741D01*
X469379449Y-150982106D01*
X469526979Y-150834576D01*
X469649614Y-150665785D01*
X469744333Y-150479887D01*
X469808806Y-150281460D01*
X469841444Y-150075395D01*
X469841444Y-149866746D01*
X469808806Y-149660681D01*
X469744331Y-149462250D01*
X469649613Y-149276356D01*
X469526979Y-149107566D01*
X469379449Y-148960036D01*
X469210658Y-148837401D01*
X469024764Y-148742683D01*
X468826333Y-148678208D01*
X468620268Y-148645571D01*
X468620263Y-148645571D01*
X468411625Y-148645571D01*
X468411620Y-148645571D01*
X468205554Y-148678208D01*
X468007123Y-148742683D01*
X467821229Y-148837401D01*
X467652437Y-148960037D01*
X467504910Y-149107564D01*
X467382274Y-149276356D01*
X467287556Y-149462250D01*
X467223081Y-149660681D01*
X467190444Y-149866746D01*
X412400500Y-149866746D01*
X412400500Y-142486746D01*
X428810444Y-142486746D01*
X428810444Y-142695395D01*
X428843081Y-142901460D01*
X428907556Y-143099891D01*
X429002274Y-143285785D01*
X429124909Y-143454576D01*
X429272439Y-143602106D01*
X429441230Y-143724741D01*
X429529060Y-143769492D01*
X429627123Y-143819458D01*
X429627125Y-143819458D01*
X429627128Y-143819460D01*
X429733489Y-143854019D01*
X429825554Y-143883933D01*
X430031620Y-143916571D01*
X430031625Y-143916571D01*
X430240268Y-143916571D01*
X430446333Y-143883933D01*
X430644760Y-143819460D01*
X430830658Y-143724741D01*
X430999449Y-143602106D01*
X431146979Y-143454576D01*
X431269614Y-143285785D01*
X431364333Y-143099887D01*
X431428806Y-142901460D01*
X431461444Y-142695395D01*
X431461444Y-142486746D01*
X431428806Y-142280681D01*
X431364331Y-142082250D01*
X431269613Y-141896356D01*
X431146979Y-141727566D01*
X430999449Y-141580036D01*
X430830658Y-141457401D01*
X430644764Y-141362683D01*
X430446333Y-141298208D01*
X430240268Y-141265571D01*
X430240263Y-141265571D01*
X430031625Y-141265571D01*
X430031620Y-141265571D01*
X429825554Y-141298208D01*
X429627123Y-141362683D01*
X429441229Y-141457401D01*
X429272437Y-141580037D01*
X429124910Y-141727564D01*
X429002274Y-141896356D01*
X428907556Y-142082250D01*
X428843081Y-142280681D01*
X428810444Y-142486746D01*
X412400500Y-142486746D01*
X412400500Y-127986746D01*
X428810444Y-127986746D01*
X428810444Y-128195395D01*
X428843081Y-128401460D01*
X428907556Y-128599891D01*
X429002274Y-128785785D01*
X429124909Y-128954576D01*
X429272439Y-129102106D01*
X429441230Y-129224741D01*
X429529060Y-129269492D01*
X429627123Y-129319458D01*
X429627125Y-129319458D01*
X429627128Y-129319460D01*
X429733489Y-129354019D01*
X429825554Y-129383933D01*
X430031620Y-129416571D01*
X430031625Y-129416571D01*
X430240268Y-129416571D01*
X430446333Y-129383933D01*
X430644760Y-129319460D01*
X430830658Y-129224741D01*
X430999449Y-129102106D01*
X431146979Y-128954576D01*
X431269614Y-128785785D01*
X431364333Y-128599887D01*
X431428806Y-128401460D01*
X431461444Y-128195395D01*
X431461444Y-127986746D01*
X431428806Y-127780681D01*
X431364331Y-127582250D01*
X431269613Y-127396356D01*
X431146979Y-127227566D01*
X430999449Y-127080036D01*
X430830658Y-126957401D01*
X430644764Y-126862683D01*
X430446333Y-126798208D01*
X430240268Y-126765571D01*
X430240263Y-126765571D01*
X430031625Y-126765571D01*
X430031620Y-126765571D01*
X429825554Y-126798208D01*
X429627123Y-126862683D01*
X429441229Y-126957401D01*
X429272437Y-127080037D01*
X429124910Y-127227564D01*
X429002274Y-127396356D01*
X428907556Y-127582250D01*
X428843081Y-127780681D01*
X428810444Y-127986746D01*
X412400500Y-127986746D01*
X412400500Y-121904782D01*
X415049500Y-121904782D01*
X415049500Y-122147359D01*
X415081161Y-122387856D01*
X415143947Y-122622175D01*
X415236773Y-122846276D01*
X415236776Y-122846283D01*
X415358064Y-123056360D01*
X415358066Y-123056363D01*
X415358067Y-123056364D01*
X415505733Y-123248807D01*
X415505739Y-123248814D01*
X415677256Y-123420331D01*
X415677262Y-123420336D01*
X415869711Y-123568007D01*
X416079788Y-123689295D01*
X416303900Y-123782125D01*
X416538211Y-123844909D01*
X416718586Y-123868655D01*
X416778711Y-123876571D01*
X416778712Y-123876571D01*
X417021289Y-123876571D01*
X417069388Y-123870238D01*
X417261789Y-123844909D01*
X417496100Y-123782125D01*
X417720212Y-123689295D01*
X417930289Y-123568007D01*
X418122738Y-123420336D01*
X418294265Y-123248809D01*
X418441936Y-123056360D01*
X418563224Y-122846283D01*
X418656054Y-122622171D01*
X418718838Y-122387860D01*
X418750500Y-122147359D01*
X418750500Y-121904783D01*
X418750500Y-121904782D01*
X473049500Y-121904782D01*
X473049500Y-122147359D01*
X473081161Y-122387856D01*
X473143947Y-122622175D01*
X473236773Y-122846276D01*
X473236776Y-122846283D01*
X473358064Y-123056360D01*
X473358066Y-123056363D01*
X473358067Y-123056364D01*
X473505733Y-123248807D01*
X473505739Y-123248814D01*
X473677256Y-123420331D01*
X473677262Y-123420336D01*
X473869711Y-123568007D01*
X474079788Y-123689295D01*
X474303900Y-123782125D01*
X474538211Y-123844909D01*
X474718586Y-123868655D01*
X474778711Y-123876571D01*
X474778712Y-123876571D01*
X475021289Y-123876571D01*
X475069388Y-123870238D01*
X475261789Y-123844909D01*
X475496100Y-123782125D01*
X475720212Y-123689295D01*
X475930289Y-123568007D01*
X476122738Y-123420336D01*
X476294265Y-123248809D01*
X476441936Y-123056360D01*
X476563224Y-122846283D01*
X476656054Y-122622171D01*
X476718838Y-122387860D01*
X476750500Y-122147359D01*
X476750500Y-121904783D01*
X476718838Y-121664282D01*
X476656054Y-121429971D01*
X476563224Y-121205859D01*
X476441936Y-120995782D01*
X476294265Y-120803333D01*
X476294260Y-120803327D01*
X476122743Y-120631810D01*
X476122736Y-120631804D01*
X475930293Y-120484138D01*
X475930292Y-120484137D01*
X475930289Y-120484135D01*
X475720212Y-120362847D01*
X475720205Y-120362844D01*
X475496104Y-120270018D01*
X475261785Y-120207232D01*
X475021289Y-120175571D01*
X475021288Y-120175571D01*
X474778712Y-120175571D01*
X474778711Y-120175571D01*
X474538214Y-120207232D01*
X474303895Y-120270018D01*
X474079794Y-120362844D01*
X474079785Y-120362848D01*
X473869706Y-120484138D01*
X473677263Y-120631804D01*
X473677256Y-120631810D01*
X473505739Y-120803327D01*
X473505733Y-120803334D01*
X473358067Y-120995777D01*
X473236777Y-121205856D01*
X473236773Y-121205865D01*
X473143947Y-121429966D01*
X473081161Y-121664285D01*
X473049500Y-121904782D01*
X418750500Y-121904782D01*
X418718838Y-121664282D01*
X418656054Y-121429971D01*
X418563224Y-121205859D01*
X418441936Y-120995782D01*
X418294265Y-120803333D01*
X418294260Y-120803327D01*
X418122743Y-120631810D01*
X418122736Y-120631804D01*
X417930293Y-120484138D01*
X417930292Y-120484137D01*
X417930289Y-120484135D01*
X417720212Y-120362847D01*
X417720205Y-120362844D01*
X417496104Y-120270018D01*
X417261785Y-120207232D01*
X417021289Y-120175571D01*
X417021288Y-120175571D01*
X416778712Y-120175571D01*
X416778711Y-120175571D01*
X416538214Y-120207232D01*
X416303895Y-120270018D01*
X416079794Y-120362844D01*
X416079785Y-120362848D01*
X415869706Y-120484138D01*
X415677263Y-120631804D01*
X415677256Y-120631810D01*
X415505739Y-120803327D01*
X415505733Y-120803334D01*
X415358067Y-120995777D01*
X415236777Y-121205856D01*
X415236773Y-121205865D01*
X415143947Y-121429966D01*
X415081161Y-121664285D01*
X415049500Y-121904782D01*
X412400500Y-121904782D01*
X412400500Y-117650571D01*
X412420185Y-117583532D01*
X412472989Y-117537777D01*
X412524500Y-117526571D01*
X479275500Y-117526571D01*
X479342539Y-117546256D01*
G37*
G04 #@! TD.AperFunction*
M02*
