M48
; DRILL file {KiCad 9.0.0} date 2026-03-06T12:01:46-0500
; FORMAT={-:-/ absolute / metric / decimal}
; #@! TF.CreationDate,2026-03-06T12:01:46-05:00
; #@! TF.GenerationSoftware,Kicad,Pcbnew,9.0.0
; #@! TF.FileFunction,Plated,1,2,PTH
FMAT,2
METRIC
; #@! TA.AperFunction,Plated,PTH,ViaDrill
T1C0.300
; #@! TA.AperFunction,Plated,PTH,ComponentDrill
T2C1.100
; #@! TA.AperFunction,Plated,PTH,ComponentDrill
T3C1.400
%
G90
G05
T1
X450.536Y-264.008
X450.536Y-269.208
X450.536Y-279.308
X450.536Y-324.841
X450.536Y-330.041
X450.536Y-340.141
X450.776Y-142.386
X450.776Y-147.586
X450.776Y-157.686
X450.976Y-203.219
X450.976Y-208.419
X450.976Y-218.519
X454.436Y-261.708
X454.436Y-266.508
X454.436Y-281.508
X454.436Y-322.541
X454.436Y-327.341
X454.436Y-342.341
X454.676Y-140.086
X454.676Y-144.886
X454.676Y-159.886
X454.876Y-200.919
X454.876Y-205.719
X454.876Y-220.719
T2
X430.136Y-128.091
X430.136Y-142.591
X430.136Y-157.091
X430.136Y-171.591
X430.136Y-188.838
X430.136Y-203.416
X430.136Y-217.993
X430.136Y-232.571
X430.136Y-249.871
X430.136Y-264.371
X430.136Y-278.871
X430.136Y-293.371
X430.136Y-310.671
X430.136Y-325.171
X430.136Y-339.671
X430.136Y-354.171
X468.516Y-149.971
X468.516Y-210.871
X468.516Y-271.671
X468.516Y-332.471
T3
X427.596Y-125.551
X427.596Y-130.631
X427.596Y-140.051
X427.596Y-145.131
X427.596Y-154.551
X427.596Y-159.631
X427.596Y-169.051
X427.596Y-174.131
X427.596Y-186.298
X427.596Y-191.378
X427.596Y-200.876
X427.596Y-205.956
X427.596Y-215.453
X427.596Y-220.533
X427.596Y-230.031
X427.596Y-235.111
X427.596Y-247.331
X427.596Y-252.411
X427.596Y-261.831
X427.596Y-266.911
X427.596Y-276.331
X427.596Y-281.411
X427.596Y-290.831
X427.596Y-295.911
X427.596Y-308.131
X427.596Y-313.211
X427.596Y-322.631
X427.596Y-327.711
X427.596Y-337.131
X427.596Y-342.211
X427.596Y-351.631
X427.596Y-356.711
X432.676Y-125.551
X432.676Y-130.631
X432.676Y-140.051
X432.676Y-145.131
X432.676Y-154.551
X432.676Y-159.631
X432.676Y-169.051
X432.676Y-174.131
X432.676Y-186.298
X432.676Y-191.378
X432.676Y-200.876
X432.676Y-205.956
X432.676Y-215.453
X432.676Y-220.533
X432.676Y-230.031
X432.676Y-235.111
X432.676Y-247.331
X432.676Y-252.411
X432.676Y-261.831
X432.676Y-266.911
X432.676Y-276.331
X432.676Y-281.411
X432.676Y-290.831
X432.676Y-295.911
X432.676Y-308.131
X432.676Y-313.211
X432.676Y-322.631
X432.676Y-327.711
X432.676Y-337.131
X432.676Y-342.211
X432.676Y-351.631
X432.676Y-356.711
X465.976Y-147.431
X465.976Y-152.511
X465.976Y-208.331
X465.976Y-213.411
X465.976Y-269.131
X465.976Y-274.211
X465.976Y-329.931
X465.976Y-335.011
X471.056Y-147.431
X471.056Y-152.511
X471.056Y-208.331
X471.056Y-213.411
X471.056Y-269.131
X471.056Y-274.211
X471.056Y-329.931
X471.056Y-335.011
M30
